SplineFontDB: 3.0
FontName: AndadaSC-BoldItalic
FullName: Andada SC Bold Italic
FamilyName: Andada SC
Weight: Bold
Copyright: Copyright (c) 2011-2012, Carolina Giovagnoli (huertatipografica.com.ar), with Reserved Font Name 'Andada'
Version: 1.003
ItalicAngle: -8.29999
UnderlinePosition: -50
UnderlineWidth: 50
Ascent: 800
Descent: 200
sfntRevision: 0x000100c5
LayerCount: 2
Layer: 0 1 "Back"  1
Layer: 1 1 "Fore"  0
XUID: [1021 352 1189133285 12660376]
FSType: 0
OS2Version: 3
OS2_WeightWidthSlopeOnly: 0
OS2_UseTypoMetrics: 1
CreationTime: 1337959620
ModificationTime: 1352840400
PfmFamily: 81
TTFWeight: 700
TTFWidth: 5
LineGap: 0
VLineGap: 0
Panose: 0 0 0 0 0 0 0 0 0 0
OS2TypoAscent: 1039
OS2TypoAOffset: 0
OS2TypoDescent: -280
OS2TypoDOffset: 0
OS2TypoLinegap: 0
OS2WinAscent: 1039
OS2WinAOffset: 0
OS2WinDescent: 280
OS2WinDOffset: 0
HheadAscent: 1039
HheadAOffset: 0
HheadDescent: -280
HheadDOffset: 0
OS2SubXSize: 650
OS2SubYSize: 600
OS2SubXOff: -11
OS2SubYOff: 75
OS2SupXSize: 650
OS2SupYSize: 600
OS2SupXOff: 51
OS2SupYOff: 350
OS2StrikeYSize: 50
OS2StrikeYPos: 296
OS2Vendor: 'pyrs'
OS2CodePages: 20000093.00000000
OS2UnicodeRanges: a000006f.4000204b.00000000.00000000
Lookup: 258 0 0 "'kern' Horizontal Kerning in Latin lookup 0"  {"'kern' Horizontal Kerning in Latin lookup 0 per glyph data 0"  "'kern' Horizontal Kerning in Latin lookup 0 per glyph data 1"  "'kern' Horizontal Kerning in Latin lookup 0 kerning class 2"  } ['kern' ('DFLT' <'dflt' > 'latn' <'ESP ' 'GUA ' 'dflt' > ) ]
DEI: 91125
KernClass2: 21+ 15 "'kern' Horizontal Kerning in Latin lookup 0 kerning class 2" 
 99 S s Sacute sacute Scircumflex scircumflex Scedilla scedilla Scaron scaron Scommaaccent scommaaccent
 53 T t Tcedilla tcedilla Tcaron tcaron Tbar tbar uni021A
 79 V W v w Wcircumflex wcircumflex Wgrave wgrave Wacute wacute Wdieresis wdieresis

StartChar: exclam
Encoding: 33 33 4
Width: 239
GlyphClass: 2
Flags: W
LayerCount: 2
Fore
SplineSet
170 241 m 1,0,-1
 152 225 l 1,1,2
 127 230 127 230 58 230 c 1,3,4
 64 266 64 266 68 296 c 2,5,-1
 121 712 l 1,6,-1
 233 721 l 1,7,-1
 256 693 l 1,8,9
 201 475 201 475 178 318 c 1,10,-1
 170 241 l 1,0,-1
40 123.5 m 128,-1,12
 63 154 63 154 94 154 c 128,-1,13
 125 154 125 154 140.5 135.5 c 128,-1,14
 156 117 156 117 156 81.5 c 128,-1,15
 156 46 156 46 133 15.5 c 128,-1,16
 110 -15 110 -15 79 -15 c 128,-1,17
 48 -15 48 -15 32.5 4 c 128,-1,18
 17 23 17 23 17 58 c 128,-1,11
 17 93 17 93 40 123.5 c 128,-1,12
EndSplineSet
EndChar

StartChar: quotedbl
Encoding: 34 34 5
Width: 359
GlyphClass: 2
Flags: W
LayerCount: 2
Fore
SplineSet
91 756 m 1,0,-1
 202 756 l 1,1,-1
 155 512 l 1,2,-1
 73 517 l 1,3,-1
 88 610 l 1,4,-1
 91 756 l 1,0,-1
251 756 m 1,5,-1
 362 756 l 1,6,-1
 315 512 l 1,7,-1
 233 517 l 1,8,-1
 248 610 l 1,9,-1
 251 756 l 1,5,-1
EndSplineSet
EndChar

StartChar: numbersign
Encoding: 35 35 6
Width: 570
GlyphClass: 2
Flags: W
LayerCount: 2
Fore
SplineSet
391 230 m 1,0,-1
 503 231 l 1,1,-1
 489 140 l 1,2,-1
 365 140 l 1,3,-1
 320 -15 l 1,4,-1
 246 -5 l 1,5,-1
 288 140 l 1,6,-1
 205 140 l 1,7,-1
 160 -15 l 1,8,-1
 86 -5 l 1,9,-1
 128 140 l 1,10,-1
 29 140 l 1,11,-1
 42 226 l 1,12,-1
 154 227 l 1,13,-1
 183 328 l 1,14,-1
 76 327 l 1,15,-1
 89 418 l 1,16,-1
 210 418 l 1,17,-1
 255 572 l 1,18,-1
 328 562 l 1,19,-1
 286 418 l 1,20,-1
 370 418 l 1,21,-1
 415 572 l 1,22,-1
 488 562 l 1,23,-1
 446 418 l 1,24,-1
 549 418 l 1,25,-1
 536 332 l 1,26,-1
 420 331 l 1,27,-1
 391 230 l 1,0,-1
260 329 m 1,28,-1
 230 228 l 1,29,-1
 314 229 l 1,30,-1
 344 330 l 1,31,-1
 260 329 l 1,28,-1
EndSplineSet
EndChar

StartChar: dollar
Encoding: 36 36 7
Width: 506
GlyphClass: 2
Flags: W
LayerCount: 2
Fore
SplineSet
422 565 m 1,0,1
 364 588 364 588 323 588 c 128,-1,2
 282 588 282 588 262 570.5 c 128,-1,3
 242 553 242 553 242 520.5 c 128,-1,4
 242 488 242 488 280.5 446 c 128,-1,5
 319 404 319 404 364.5 370.5 c 128,-1,6
 410 337 410 337 448.5 290 c 128,-1,7
 487 243 487 243 487 199 c 0,8,9
 487 107 487 107 421.5 48 c 128,-1,10
 356 -11 356 -11 251 -17 c 1,11,-1
 237 -92 l 1,12,-1
 173 -89 l 1,13,-1
 187 -15 l 1,14,15
 76 -2 76 -2 5 55 c 1,16,-1
 75 231 l 1,17,-1
 138 214 l 1,18,-1
 119 104 l 1,19,20
 177 67 177 67 222.5 67 c 128,-1,21
 268 67 268 67 292.5 88 c 128,-1,22
 317 109 317 109 317 140.5 c 128,-1,23
 317 172 317 172 299.5 198.5 c 128,-1,24
 282 225 282 225 256 246 c 128,-1,25
 230 267 230 267 199.5 293 c 128,-1,26
 169 319 169 319 143 343 c 128,-1,27
 117 367 117 367 99.5 401 c 128,-1,28
 82 435 82 435 82 471 c 0,29,30
 82 565 82 565 146 613.5 c 128,-1,31
 210 662 210 662 314 666 c 1,32,-1
 332 760 l 1,33,-1
 395 757 l 1,34,-1
 378 665 l 1,35,36
 432 661 432 661 488 650 c 1,37,-1
 506 647 l 1,38,-1
 525 618 l 1,39,-1
 478 453 l 1,40,-1
 419 456 l 1,41,-1
 422 565 l 1,0,1
EndSplineSet
EndChar

StartChar: percent
Encoding: 37 37 8
Width: 871
GlyphClass: 2
Flags: W
LayerCount: 2
Fore
SplineSet
483 156 m 0,0,1
 483 256 483 256 535.5 326.5 c 128,-1,2
 588 397 588 397 692 397 c 0,3,4
 769 397 769 397 806 351 c 128,-1,5
 843 305 843 305 843 232 c 0,6,7
 843 133 843 133 790 62.5 c 128,-1,8
 737 -8 737 -8 633 -8 c 0,9,10
 556 -8 556 -8 519.5 37.5 c 128,-1,11
 483 83 483 83 483 156 c 0,0,1
731 239 m 0,12,13
 731 328 731 328 682 328 c 0,14,15
 646 328 646 328 620 266.5 c 128,-1,16
 594 205 594 205 594 150 c 0,17,18
 594 61 594 61 643 61 c 0,19,20
 680 61 680 61 705.5 123 c 128,-1,21
 731 185 731 185 731 239 c 0,12,13
53 479 m 0,22,23
 53 575 53 575 103.5 643.5 c 128,-1,24
 154 712 154 712 254 712 c 0,25,26
 327 712 327 712 362.5 667.5 c 128,-1,27
 398 623 398 623 398 553 c 0,28,29
 398 457 398 457 347 388 c 128,-1,30
 296 319 296 319 197 319 c 0,31,32
 123 319 123 319 88 363.5 c 128,-1,33
 53 408 53 408 53 479 c 0,22,23
291 560 m 0,34,35
 291 646 291 646 244 646 c 0,36,37
 210 646 210 646 185.5 585.5 c 128,-1,38
 161 525 161 525 161 472 c 0,39,40
 161 386 161 386 206 386 c 0,41,42
 241 386 241 386 266 446.5 c 128,-1,43
 291 507 291 507 291 560 c 0,34,35
643 720 m 1,44,-1
 704 675 l 1,45,-1
 188 -49 l 1,46,-1
 125 -4 l 1,47,-1
 643 720 l 1,44,-1
EndSplineSet
EndChar

StartChar: ampersand
Encoding: 38 38 9
Width: 606
GlyphClass: 2
Flags: W
LayerCount: 2
Fore
SplineSet
152 -18 m 0,0,1
 86 -18 86 -18 49 22 c 128,-1,2
 12 62 12 62 12 136.5 c 128,-1,3
 12 211 12 211 48 298.5 c 128,-1,4
 84 386 84 386 138 444.5 c 128,-1,5
 192 503 192 503 239 503 c 0,6,7
 406 503 406 503 406 424 c 0,8,9
 406 380 406 380 385 342 c 1,10,11
 439 369 439 369 479 393 c 1,12,13
 481 423 481 423 481 437 c 0,14,15
 481 532 481 532 448 615 c 1,16,-1
 580 665 l 1,17,18
 597 604 597 604 597 516 c 0,19,20
 597 501 597 501 595 471 c 1,21,22
 656 516 656 516 697 556 c 1,23,-1
 759 476 l 1,24,-1
 746 438 l 1,25,26
 664 407 664 407 578 366 c 1,27,28
 535 201 535 201 415.5 91.5 c 128,-1,29
 296 -18 296 -18 152 -18 c 0,0,1
208 78 m 0,30,31
 288 78 288 78 358.5 144 c 128,-1,32
 429 210 429 210 461 312 c 1,33,34
 273 225 273 225 146 195 c 1,35,36
 144 180 144 180 144 151 c 0,37,38
 144 78 144 78 208 78 c 0,30,31
230 414 m 0,39,40
 210 414 210 414 189 369 c 128,-1,41
 168 324 168 324 155 259 c 1,42,43
 211 276 211 276 247 311 c 128,-1,44
 283 346 283 346 283 385 c 0,45,46
 283 414 283 414 230 414 c 0,39,40
EndSplineSet
EndChar

StartChar: quotesingle
Encoding: 39 39 10
Width: 199
GlyphClass: 2
Flags: W
LayerCount: 2
Fore
SplineSet
91 756 m 1,0,-1
 202 756 l 1,1,-1
 155 512 l 1,2,-1
 73 517 l 1,3,-1
 88 610 l 1,4,-1
 91 756 l 1,0,-1
EndSplineSet
EndChar

StartChar: parenleft
Encoding: 40 40 11
Width: 294
GlyphClass: 2
Flags: W
LayerCount: 2
Fore
SplineSet
194.5 483 m 128,-1,1
 147 342 147 342 147 175.5 c 128,-1,2
 147 9 147 9 218 -91 c 1,3,-1
 158 -135 l 1,4,5
 22 10 22 10 22 217 c 0,6,7
 22 375 22 375 89 517.5 c 128,-1,8
 156 660 156 660 289 769 c 1,9,-1
 337 725 l 1,10,0
 242 624 242 624 194.5 483 c 128,-1,1
EndSplineSet
EndChar

StartChar: parenright
Encoding: 41 41 12
Width: 293
GlyphClass: 2
Flags: W
LayerCount: 2
Fore
SplineSet
155 441 m 0,0,1
 155 623 155 623 84 725 c 1,2,-1
 144 769 l 1,3,4
 280 623 280 623 280 414 c 0,5,6
 280 257 280 257 212.5 115 c 128,-1,7
 145 -27 145 -27 13 -135 c 1,8,-1
 -34 -91 l 1,9,10
 59 12 59 12 107 151.5 c 128,-1,11
 155 291 155 291 155 441 c 0,0,1
EndSplineSet
EndChar

StartChar: asterisk
Encoding: 42 42 13
Width: 399
GlyphClass: 2
Flags: W
LayerCount: 2
Fore
SplineSet
334 455 m 1,0,-1
 255 496 l 1,1,2
 245 458 245 458 245 456 c 2,3,-1
 237 404 l 1,4,-1
 168 396 l 1,5,-1
 173 494 l 1,6,7
 140 481 140 481 138 479 c 2,8,-1
 91 453 l 1,9,-1
 60 512 l 1,10,-1
 142 569 l 1,11,-1
 117 593 l 1,12,-1
 79 620 l 1,13,-1
 115 687 l 1,14,-1
 194 646 l 1,15,-1
 204 685 l 1,16,-1
 212 738 l 1,17,-1
 281 746 l 1,18,-1
 275 647 l 1,19,20
 297 656 297 656 312 663 c 1,21,-1
 358 689 l 1,22,-1
 389 630 l 1,23,-1
 306 572 l 1,24,-1
 333 548 l 1,25,-1
 370 522 l 1,26,-1
 334 455 l 1,0,-1
EndSplineSet
EndChar

StartChar: plus
Encoding: 43 43 14
Width: 581
GlyphClass: 2
Flags: W
LayerCount: 2
Fore
SplineSet
333 206 m 1,0,-1
 305 0 l 1,1,-1
 200 0 l 1,2,-1
 230 205 l 1,3,-1
 25 203 l 1,4,-1
 40 308 l 1,5,-1
 245 308 l 1,6,-1
 275 511 l 1,7,-1
 375 511 l 1,8,-1
 347 308 l 1,9,-1
 555 308 l 1,10,-1
 541 208 l 1,11,-1
 333 206 l 1,0,-1
EndSplineSet
EndChar

StartChar: comma
Encoding: 44 44 15
Width: 221
GlyphClass: 2
Flags: W
LayerCount: 2
Fore
SplineSet
22 53 m 0,0,1
 22 98 22 98 44.5 126 c 128,-1,2
 67 154 67 154 104 154 c 0,3,4
 162 154 162 154 162 83 c 128,-1,5
 162 12 162 12 115 -54.5 c 128,-1,6
 68 -121 68 -121 -14 -136 c 1,7,-1
 -20 -104 l 1,8,9
 56 -77 56 -77 74 -10 c 1,10,11
 22 -7 22 -7 22 53 c 0,0,1
EndSplineSet
EndChar

StartChar: hyphen
Encoding: 45 45 16
Width: 253
GlyphClass: 2
Flags: W
LayerCount: 2
Fore
SplineSet
250 301 m 1,0,-1
 232 206 l 1,1,-1
 17 206 l 1,2,-1
 28 301 l 1,3,-1
 250 301 l 1,0,-1
EndSplineSet
EndChar

StartChar: period
Encoding: 46 46 17
Width: 218
GlyphClass: 2
Flags: W
LayerCount: 2
Fore
SplineSet
38 123.5 m 128,-1,1
 61 154 61 154 92 154 c 128,-1,2
 123 154 123 154 138.5 135.5 c 128,-1,3
 154 117 154 117 154 81.5 c 128,-1,4
 154 46 154 46 131 15.5 c 128,-1,5
 108 -15 108 -15 77 -15 c 128,-1,6
 46 -15 46 -15 30.5 4 c 128,-1,7
 15 23 15 23 15 58 c 128,-1,0
 15 93 15 93 38 123.5 c 128,-1,1
EndSplineSet
EndChar

StartChar: slash
Encoding: 47 47 18
Width: 376
GlyphClass: 2
Flags: W
LayerCount: 2
Fore
SplineSet
49 -65 m 1,0,-1
 -39 -35 l 1,1,-1
 384 773 l 1,2,-1
 472 743 l 1,3,-1
 49 -65 l 1,0,-1
EndSplineSet
EndChar

StartChar: zero
Encoding: 48 48 19
Width: 554
GlyphClass: 2
Flags: W
LayerCount: 2
Fore
SplineSet
28 263 m 0,0,1
 28 438 28 438 114.5 550 c 128,-1,2
 201 662 201 662 337 662 c 0,3,4
 440 662 440 662 494.5 592 c 128,-1,5
 549 522 549 522 549 388 c 0,6,7
 549 213 549 213 463 101.5 c 128,-1,8
 377 -10 377 -10 241 -10 c 0,9,10
 137 -10 137 -10 82.5 59.5 c 128,-1,11
 28 129 28 129 28 263 c 0,0,1
389 421 m 0,12,13
 389 503 389 503 372.5 540 c 128,-1,14
 356 577 356 577 322 577 c 0,15,16
 262 577 262 577 225 479.5 c 128,-1,17
 188 382 188 382 188 229 c 0,18,19
 188 147 188 147 204 111 c 128,-1,20
 220 75 220 75 254 75 c 0,21,22
 314 75 314 75 351.5 172 c 128,-1,23
 389 269 389 269 389 421 c 0,12,13
EndSplineSet
EndChar

StartChar: one
Encoding: 49 49 20
Width: 416
GlyphClass: 2
Flags: W
LayerCount: 2
Fore
SplineSet
301 103 m 1,0,-1
 302 77 l 1,1,-1
 376 71 l 1,2,-1
 359 -5 l 1,3,4
 284 0 284 0 171 0 c 1,5,-1
 45 -5 l 1,6,-1
 50 65 l 1,7,-1
 138 77 l 1,8,9
 156 143 156 143 159 163 c 2,10,-1
 206 484 l 1,11,-1
 101 445 l 1,12,-1
 74 507 l 1,13,14
 205 599 205 599 227 615 c 1,15,-1
 283 672 l 1,16,-1
 385 660 l 1,17,18
 350 476 350 476 343 426 c 2,19,-1
 309 193 l 1,20,21
 301 149 301 149 301 103 c 1,0,-1
EndSplineSet
EndChar

StartChar: two
Encoding: 50 50 21
Width: 533
GlyphClass: 2
Flags: W
LayerCount: 2
Fore
SplineSet
380 138 m 1,0,-1
 399 180 l 1,1,-1
 411 216 l 1,2,-1
 488 210 l 1,3,-1
 452 17 l 1,4,-1
 419 -3 l 1,5,6
 333 0 333 0 315 0 c 2,7,-1
 -5 0 l 1,8,-1
 -4 99 l 1,9,10
 209 276 209 276 272.5 349.5 c 128,-1,11
 336 423 336 423 336 492 c 0,12,13
 336 527 336 527 316.5 545.5 c 128,-1,14
 297 564 297 564 258.5 564 c 128,-1,15
 220 564 220 564 175 540 c 1,16,17
 164 517 164 517 162 502 c 2,18,-1
 155 459 l 1,19,-1
 76 454 l 1,20,-1
 95 627 l 1,21,22
 196 662 196 662 295.5 662 c 128,-1,23
 395 662 395 662 447.5 623 c 128,-1,24
 500 584 500 584 500 510 c 128,-1,25
 500 436 500 436 432 350.5 c 128,-1,26
 364 265 364 265 191 128 c 1,27,-1
 291 128 l 2,28,29
 336 128 336 128 380 138 c 1,0,-1
EndSplineSet
EndChar

StartChar: three
Encoding: 51 51 22
Width: 478
GlyphClass: 2
Flags: W
LayerCount: 2
Fore
SplineSet
254 662 m 0,0,1
 451 662 451 662 451 514 c 0,2,3
 451 396 451 396 319 332 c 1,4,5
 369 321 369 321 400.5 280.5 c 128,-1,6
 432 240 432 240 432 190 c 0,7,8
 432 80 432 80 303 -5.5 c 128,-1,9
 174 -91 174 -91 -11 -105 c 1,10,-1
 -22 -29 l 1,11,12
 107 -15 107 -15 187 43.5 c 128,-1,13
 267 102 267 102 267 186 c 128,-1,14
 267 270 267 270 184 270 c 1,15,-1
 124 266 l 1,16,-1
 121 339 l 1,17,18
 207 354 207 354 253.5 398.5 c 128,-1,19
 300 443 300 443 300 508.5 c 128,-1,20
 300 574 300 574 236 574 c 0,21,22
 199 574 199 574 163 562 c 1,23,-1
 153 531 l 1,24,-1
 144 470 l 1,25,-1
 63 465 l 1,26,-1
 74 633 l 1,27,28
 163 662 163 662 254 662 c 0,0,1
EndSplineSet
EndChar

StartChar: four
Encoding: 52 52 23
Width: 549
GlyphClass: 2
Flags: W
LayerCount: 2
Fore
SplineSet
425 739 m 1,0,-1
 512 655 l 1,1,2
 397 553 397 553 380 530 c 1,3,-1
 158 273 l 1,4,-1
 288 273 l 1,5,-1
 302 370 l 1,6,-1
 449 418 l 1,7,-1
 430 282 l 1,8,-1
 522 287 l 1,9,-1
 506 182 l 1,10,-1
 415 182 l 1,11,-1
 412 160 l 1,12,13
 406 127 406 127 407.5 103.5 c 128,-1,14
 409 80 409 80 408 76 c 1,15,-1
 471 70 l 1,16,-1
 456 -5 l 1,17,18
 373 0 373 0 264 0 c 1,19,-1
 151 -5 l 1,20,-1
 156 64 l 1,21,-1
 251 76 l 1,22,-1
 256 94 l 2,23,24
 260 111 260 111 265.5 132 c 128,-1,25
 271 153 271 153 272 161 c 2,26,-1
 275 182 l 1,27,-1
 75 182 l 1,28,-1
 14 274 l 1,29,-1
 425 739 l 1,0,-1
EndSplineSet
EndChar

StartChar: five
Encoding: 53 53 24
Width: 473
GlyphClass: 2
Flags: W
LayerCount: 2
Fore
SplineSet
302 521 m 2,0,-1
 209 521 l 1,1,2
 197 460 197 460 179 379 c 1,3,4
 206 383 206 383 239 383 c 0,5,6
 333 383 333 383 382.5 339.5 c 128,-1,7
 432 296 432 296 432 218 c 0,8,9
 432 -40 432 -40 12 -105 c 1,10,-1
 1 -31 l 1,11,12
 160 4 160 4 216.5 53 c 128,-1,13
 273 102 273 102 273 188 c 0,14,15
 273 280 273 280 177 280 c 0,16,17
 137 280 137 280 89 266 c 1,18,-1
 51 320 l 1,19,-1
 121 634 l 1,20,-1
 142 652 l 1,21,-1
 229 652 l 1,22,-1
 466 662 l 1,23,-1
 454 535 l 1,24,25
 331 521 331 521 302 521 c 2,0,-1
EndSplineSet
EndChar

StartChar: six
Encoding: 54 54 25
Width: 538
GlyphClass: 2
Flags: W
LayerCount: 2
Fore
SplineSet
264 332 m 2,0,1
 261 332 261 332 257 331 c 1,2,-1
 262 403 l 1,3,4
 292 413 292 413 330 413 c 0,5,6
 414 413 414 413 460 368 c 128,-1,7
 506 323 506 323 506 243 c 0,8,9
 506 136 506 136 429.5 62.5 c 128,-1,10
 353 -11 353 -11 248 -11 c 128,-1,11
 143 -11 143 -11 83.5 48.5 c 128,-1,12
 24 108 24 108 24 197 c 128,-1,13
 24 286 24 286 58.5 371.5 c 128,-1,14
 93 457 93 457 156 533.5 c 128,-1,15
 219 610 219 610 319 668 c 128,-1,16
 419 726 419 726 539 747 c 1,17,-1
 546 681 l 1,18,19
 452 651 452 651 379 594 c 128,-1,20
 306 537 306 537 265 469 c 0,21,22
 183 333 183 333 183 201 c 0,23,24
 183 148 183 148 199 114.5 c 128,-1,25
 215 81 215 81 250 81 c 128,-1,26
 285 81 285 81 308 110 c 0,27,28
 345 157 345 157 345 237 c 0,29,30
 345 279 345 279 330 306.5 c 128,-1,31
 315 334 315 334 289 334 c 1,32,-1
 264 332 l 2,0,1
EndSplineSet
EndChar

StartChar: seven
Encoding: 55 55 26
Width: 496
GlyphClass: 2
Flags: W
LayerCount: 2
Fore
SplineSet
236 652 m 2,0,-1
 548 652 l 1,1,-1
 553 583 l 1,2,-1
 144 -105 l 1,3,-1
 21 -60 l 1,4,-1
 304 379 l 2,5,6
 315 396 315 396 339 443 c 128,-1,7
 363 490 363 490 373 520 c 1,8,-1
 225 520 l 2,9,10
 216 520 216 520 172 516 c 1,11,12
 170 509 170 509 152 474 c 1,13,-1
 137 428 l 1,14,-1
 59 431 l 1,15,-1
 100 641 l 1,16,-1
 121 661 l 1,17,18
 214 652 214 652 236 652 c 2,0,-1
EndSplineSet
EndChar

StartChar: eight
Encoding: 56 56 27
Width: 528
GlyphClass: 2
Flags: W
LayerCount: 2
Fore
SplineSet
174 341 m 1,0,1
 87 404 87 404 87 493 c 128,-1,2
 87 582 87 582 158.5 632 c 128,-1,3
 230 682 230 682 318.5 682 c 128,-1,4
 407 682 407 682 462.5 643 c 128,-1,5
 518 604 518 604 518 537 c 0,6,7
 518 439 518 439 382 351 c 1,8,9
 488 281 488 281 488 185 c 128,-1,10
 488 89 488 89 411 39.5 c 128,-1,11
 334 -10 334 -10 235 -10 c 128,-1,12
 136 -10 136 -10 75 28.5 c 128,-1,13
 14 67 14 67 14 143 c 0,14,15
 14 255 14 255 174 341 c 1,0,1
159 148 m 0,16,17
 159 112 159 112 179.5 91 c 128,-1,18
 200 70 200 70 243 70 c 128,-1,19
 286 70 286 70 313.5 98 c 128,-1,20
 341 126 341 126 341 169 c 128,-1,21
 341 212 341 212 318 237.5 c 128,-1,22
 295 263 295 263 250 293 c 1,23,24
 159 226 159 226 159 148 c 0,16,17
376 533 m 0,25,26
 376 565 376 565 359 583.5 c 128,-1,27
 342 602 342 602 312 602 c 128,-1,28
 282 602 282 602 256 575.5 c 128,-1,29
 230 549 230 549 230 510 c 128,-1,30
 230 471 230 471 250 446.5 c 128,-1,31
 270 422 270 422 308 397 c 1,32,33
 376 463 376 463 376 533 c 0,25,26
EndSplineSet
EndChar

StartChar: nine
Encoding: 57 57 28
Width: 537
GlyphClass: 2
Flags: W
LayerCount: 2
Fore
SplineSet
231 238 m 0,0,1
 147 238 147 238 101 282.5 c 128,-1,2
 55 327 55 327 55 408 c 0,3,4
 55 515 55 515 131.5 588.5 c 128,-1,5
 208 662 208 662 312.5 662 c 128,-1,6
 417 662 417 662 476.5 602.5 c 128,-1,7
 536 543 536 543 536 454.5 c 128,-1,8
 536 366 536 366 502.5 279.5 c 128,-1,9
 469 193 469 193 407 114.5 c 128,-1,10
 345 36 345 36 245 -24 c 128,-1,11
 145 -84 145 -84 25 -105 c 1,12,-1
 14 -31 l 1,13,14
 167 10 167 10 248 102 c 0,15,16
 327 193 327 193 354 288 c 1,17,18
 378 377 378 377 378 439 c 0,19,20
 378 570 378 570 312 570 c 0,21,22
 276 570 276 570 253 542 c 0,23,24
 215 494 215 494 215 414 c 0,25,26
 215 371 215 371 230 344 c 128,-1,27
 245 317 245 317 272 317 c 1,28,-1
 303 320 l 1,29,-1
 298 248 l 1,30,31
 268 238 268 238 231 238 c 0,0,1
EndSplineSet
EndChar

StartChar: colon
Encoding: 58 58 29
Width: 217
GlyphClass: 2
Flags: W
LayerCount: 2
Fore
SplineSet
38 120.5 m 128,-1,1
 61 150 61 150 91.5 150 c 128,-1,2
 122 150 122 150 137 132 c 128,-1,3
 152 114 152 114 152 79.5 c 128,-1,4
 152 45 152 45 129 15 c 128,-1,5
 106 -15 106 -15 76 -15 c 128,-1,6
 46 -15 46 -15 30.5 3.5 c 128,-1,7
 15 22 15 22 15 56.5 c 128,-1,0
 15 91 15 91 38 120.5 c 128,-1,1
88 457.5 m 128,-1,9
 111 487 111 487 141.5 487 c 128,-1,10
 172 487 172 487 187 469 c 128,-1,11
 202 451 202 451 202 416.5 c 128,-1,12
 202 382 202 382 179 352 c 128,-1,13
 156 322 156 322 126 322 c 128,-1,14
 96 322 96 322 80.5 340.5 c 128,-1,15
 65 359 65 359 65 393.5 c 128,-1,8
 65 428 65 428 88 457.5 c 128,-1,9
EndSplineSet
EndChar

StartChar: semicolon
Encoding: 59 59 30
Width: 205
GlyphClass: 2
Flags: W
LayerCount: 2
Fore
SplineSet
85 473.5 m 128,-1,1
 108 504 108 504 139 504 c 128,-1,2
 170 504 170 504 185.5 485.5 c 128,-1,3
 201 467 201 467 201 431.5 c 128,-1,4
 201 396 201 396 178 365.5 c 128,-1,5
 155 335 155 335 124 335 c 128,-1,6
 93 335 93 335 77.5 354 c 128,-1,7
 62 373 62 373 62 408 c 128,-1,0
 62 443 62 443 85 473.5 c 128,-1,1
12 53 m 0,8,9
 12 98 12 98 34.5 126 c 128,-1,10
 57 154 57 154 94 154 c 0,11,12
 152 154 152 154 152 83 c 128,-1,13
 152 12 152 12 105 -54.5 c 128,-1,14
 58 -121 58 -121 -24 -136 c 1,15,-1
 -30 -104 l 1,16,17
 46 -77 46 -77 64 -10 c 1,18,19
 12 -7 12 -7 12 53 c 0,8,9
EndSplineSet
EndChar

StartChar: less
Encoding: 60 60 31
Width: 481
GlyphClass: 2
Flags: W
LayerCount: 2
Fore
SplineSet
297 -15 m 1,0,-1
 40 249 l 1,1,-1
 374 513 l 1,2,-1
 428 438 l 1,3,-1
 186 249 l 1,4,-1
 373 60 l 1,5,-1
 297 -15 l 1,0,-1
EndSplineSet
EndChar

StartChar: equal
Encoding: 61 61 32
Width: 585
GlyphClass: 2
Flags: W
LayerCount: 2
Fore
SplineSet
526 293 m 1,0,-1
 71 288 l 1,1,-1
 86 394 l 1,2,-1
 541 394 l 1,3,-1
 526 293 l 1,0,-1
499 103 m 1,4,-1
 43 98 l 1,5,-1
 58 204 l 1,6,-1
 513 204 l 1,7,-1
 499 103 l 1,4,-1
EndSplineSet
EndChar

StartChar: greater
Encoding: 62 62 33
Width: 481
GlyphClass: 2
Flags: W
LayerCount: 2
Fore
SplineSet
183 512 m 1,0,-1
 441 248 l 1,1,-1
 106 -16 l 1,2,-1
 52 59 l 1,3,-1
 295 248 l 1,4,-1
 107 437 l 1,5,-1
 183 512 l 1,0,-1
EndSplineSet
EndChar

StartChar: question
Encoding: 63 63 34
Width: 422
GlyphClass: 2
Flags: W
LayerCount: 2
Fore
SplineSet
288 442.5 m 128,-1,1
 320 492 320 492 320 546 c 0,2,3
 320 653 320 653 237 653 c 0,4,5
 198 653 198 653 172 637 c 1,6,-1
 148 544 l 1,7,-1
 91 540 l 1,8,-1
 102 688 l 1,9,10
 187 727 187 727 266.5 727 c 128,-1,11
 346 727 346 727 395 684.5 c 128,-1,12
 444 642 444 642 444 562 c 0,13,14
 444 454 444 454 380 389 c 128,-1,15
 316 324 316 324 217 321 c 1,16,-1
 209 241 l 1,17,-1
 190 225 l 1,18,19
 162 229 162 229 98 229 c 1,20,-1
 95 232 l 1,21,-1
 114 362 l 1,22,-1
 148 396 l 1,23,24
 172 393 172 393 203 393 c 0,25,0
 256 393 256 393 288 442.5 c 128,-1,1
76 123.5 m 128,-1,27
 99 154 99 154 130 154 c 128,-1,28
 161 154 161 154 176.5 135.5 c 128,-1,29
 192 117 192 117 192 81.5 c 128,-1,30
 192 46 192 46 169 15.5 c 128,-1,31
 146 -15 146 -15 115 -15 c 128,-1,32
 84 -15 84 -15 68.5 4 c 128,-1,33
 53 23 53 23 53 58 c 128,-1,26
 53 93 53 93 76 123.5 c 128,-1,27
EndSplineSet
EndChar

StartChar: at
Encoding: 64 64 35
Width: 928
GlyphClass: 2
Flags: W
LayerCount: 2
Fore
SplineSet
314 -18 m 0,0,1
 274 -18 274 -18 253.5 27 c 128,-1,2
 233 72 233 72 233 146.5 c 128,-1,3
 233 221 233 221 266.5 308 c 128,-1,4
 300 395 300 395 354.5 452.5 c 128,-1,5
 409 510 409 510 465 510 c 0,6,7
 490 510 490 510 539 500.5 c 128,-1,8
 588 491 588 491 597 490 c 1,9,-1
 678 510 l 1,10,-1
 717 482 l 1,11,12
 658 252 658 252 652 69 c 1,13,14
 722 104 722 104 761.5 173.5 c 128,-1,15
 801 243 801 243 801 342 c 0,16,17
 801 465 801 465 722.5 534 c 128,-1,18
 644 603 644 603 521.5 603 c 128,-1,19
 399 603 399 603 314 537.5 c 128,-1,20
 229 472 229 472 188.5 369.5 c 128,-1,21
 148 267 148 267 148 139.5 c 128,-1,22
 148 12 148 12 217 -57 c 128,-1,23
 286 -126 286 -126 414 -126 c 0,24,25
 446 -126 446 -126 588 -114 c 1,26,-1
 632 -111 l 1,27,-1
 639 -164 l 1,28,29
 485 -208 485 -208 365 -208 c 0,30,31
 207 -208 207 -208 115 -123.5 c 128,-1,32
 23 -39 23 -39 23 146 c 0,33,34
 23 386 23 386 162.5 526.5 c 128,-1,35
 302 667 302 667 542 667 c 0,36,37
 714 667 714 667 813 587.5 c 128,-1,38
 912 508 912 508 912 356.5 c 128,-1,39
 912 205 912 205 802 99 c 128,-1,40
 692 -7 692 -7 529 -19 c 1,41,-1
 494 0 l 1,42,43
 545 135 545 135 557 215 c 1,44,45
 510 110 510 110 446.5 46 c 128,-1,46
 383 -18 383 -18 314 -18 c 0,0,1
448 406 m 0,47,48
 421 406 421 406 396.5 331.5 c 128,-1,49
 372 257 372 257 372 171 c 0,50,51
 372 109 372 109 399 109 c 0,52,53
 435 109 435 109 486 193 c 128,-1,54
 537 277 537 277 553 379 c 1,55,56
 489 406 489 406 448 406 c 0,47,48
EndSplineSet
EndChar

StartChar: A
Encoding: 65 65 36
Width: 647
GlyphClass: 2
Flags: W
LayerCount: 2
Fore
SplineSet
622 65 m 1,0,-1
 607 -5 l 1,1,2
 562 0 562 0 527 0 c 2,3,-1
 324 -5 l 1,4,-1
 330 68 l 1,5,-1
 388 77 l 1,6,-1
 392 129 l 1,7,-1
 386 179 l 1,8,-1
 205 179 l 1,9,-1
 180 115 l 1,10,-1
 169 77 l 1,11,-1
 223 65 l 1,12,-1
 208 -5 l 1,13,14
 151 0 151 0 104 0 c 1,15,-1
 -31 -5 l 1,16,-1
 -26 68 l 1,17,-1
 18 75 l 1,18,-1
 71 161 l 1,19,-1
 332 705 l 1,20,-1
 446 716 l 1,21,-1
 556 128 l 1,22,-1
 569 74 l 1,23,-1
 622 65 l 1,0,-1
347 498 m 1,24,-1
 244 261 l 1,25,-1
 373 263 l 1,26,-1
 347 498 l 1,24,-1
EndSplineSet
EndChar

StartChar: B
Encoding: 66 66 37
Width: 631
GlyphClass: 2
Flags: W
LayerCount: 2
Fore
SplineSet
218 705 m 1,0,-1
 421 715 l 1,1,2
 508 715 508 715 565.5 674 c 128,-1,3
 623 633 623 633 623 563 c 128,-1,4
 623 493 623 493 575.5 440.5 c 128,-1,5
 528 388 528 388 456 371 c 1,6,-1
 455 364 l 1,7,8
 522 354 522 354 561.5 315.5 c 128,-1,9
 601 277 601 277 601 214 c 0,10,11
 601 108 601 108 523 51.5 c 128,-1,12
 445 -5 445 -5 331 -5 c 1,13,-1
 111 0 l 1,14,-1
 18 -5 l 1,15,-1
 23 65 l 1,16,-1
 85 77 l 1,17,18
 102 125 102 125 106 163 c 1,19,-1
 160 512 l 2,20,21
 168 563 168 563 168 587.5 c 128,-1,22
 168 612 168 612 167 623 c 1,23,-1
 110 635 l 1,24,-1
 126 710 l 1,25,26
 171 705 171 705 218 705 c 1,0,-1
307 77 m 0,27,28
 369 77 369 77 409 117 c 128,-1,29
 449 157 449 157 449 215.5 c 128,-1,30
 449 274 449 274 417.5 297 c 128,-1,31
 386 320 386 320 337 320 c 2,32,-1
 328 320 l 1,33,-1
 347 407 l 1,34,-1
 353 407 l 2,35,36
 406 407 406 407 440.5 444 c 128,-1,37
 475 481 475 481 475 545 c 0,38,39
 475 583 475 583 450 608 c 128,-1,40
 425 633 425 633 385 633 c 0,41,42
 367 633 367 633 335 629 c 1,43,44
 329 604 329 604 319 542 c 2,45,-1
 266 193 l 2,46,47
 255 125 255 125 252 80 c 1,48,49
 279 77 279 77 307 77 c 0,27,28
EndSplineSet
EndChar

StartChar: C
Encoding: 67 67 38
Width: 620
GlyphClass: 2
Flags: W
LayerCount: 2
Fore
SplineSet
332 -15 m 0,0,1
 187 -15 187 -15 110.5 66.5 c 128,-1,2
 34 148 34 148 34 287 c 0,3,4
 34 478 34 478 139 599 c 128,-1,5
 244 720 244 720 433 720 c 0,6,7
 511 720 511 720 641 686 c 1,8,-1
 603 507 l 1,9,-1
 528 511 l 1,10,-1
 534 572 l 2,11,12
 535 581 535 581 528 613 c 1,13,14
 467 627 467 627 417 627 c 128,-1,15
 367 627 367 627 325 596 c 128,-1,16
 283 565 283 565 260 514 c 0,17,18
 213 412 213 412 213 277 c 0,19,20
 213 187 213 187 244 132.5 c 128,-1,21
 275 78 275 78 335.5 78 c 128,-1,22
 396 78 396 78 463 93 c 1,23,24
 464 95 464 95 470 106 c 0,25,26
 486 137 486 137 486 142 c 1,27,-1
 496 189 l 1,28,-1
 570 191 l 1,29,-1
 553 19 l 1,30,31
 413 -15 413 -15 332 -15 c 0,0,1
EndSplineSet
EndChar

StartChar: D
Encoding: 68 68 39
Width: 718
GlyphClass: 2
Flags: W
LayerCount: 2
Fore
SplineSet
214 705 m 1,0,-1
 416 715 l 1,1,2
 561 715 561 715 637.5 633.5 c 128,-1,3
 714 552 714 552 714 415 c 0,4,5
 714 229 714 229 610 111.5 c 128,-1,6
 506 -6 506 -6 317 -6 c 1,7,-1
 108 0 l 1,8,-1
 12 -5 l 1,9,-1
 17 65 l 1,10,-1
 82 77 l 1,11,12
 101 143 101 143 103 163 c 2,13,-1
 154 512 l 1,14,15
 162 556 162 556 162 606 c 2,16,-1
 162 623 l 1,17,-1
 101 635 l 1,18,-1
 117 710 l 1,19,20
 167 705 167 705 214 705 c 1,0,-1
393 632 m 0,21,22
 375 632 375 632 329 624 c 0,23,24
 329 623 329 623 322 587.5 c 128,-1,25
 315 552 315 552 314 542 c 2,26,-1
 263 193 l 1,27,28
 255 146 255 146 250 80 c 1,29,30
 277 77 277 77 310 77 c 0,31,32
 377 77 377 77 426 108 c 128,-1,33
 475 139 475 139 500 192 c 0,34,35
 548 292 548 292 548 423 c 0,36,37
 548 517 548 517 511 574.5 c 128,-1,38
 474 632 474 632 393 632 c 0,21,22
EndSplineSet
EndChar

StartChar: E
Encoding: 69 69 40
Width: 600
GlyphClass: 2
Flags: W
LayerCount: 2
Fore
SplineSet
212 705 m 2,0,-1
 475 705 l 1,1,-1
 587 715 l 1,2,-1
 603 697 l 1,3,-1
 587 541 l 1,4,-1
 516 536 l 1,5,-1
 516 595 l 2,6,7
 516 607 516 607 510 619 c 1,8,9
 472 623 472 623 434 623 c 2,10,-1
 329 623 l 1,11,12
 328 617 328 617 321.5 584 c 128,-1,13
 315 551 315 551 314 542 c 2,14,-1
 293 399 l 1,15,16
 302 398 302 398 317 398 c 2,17,-1
 370 398 l 2,18,19
 390 398 390 398 413 407 c 1,20,-1
 431 471 l 1,21,-1
 491 466 l 1,22,23
 481 403 481 403 478 383 c 2,24,-1
 463 256 l 1,25,-1
 398 250 l 1,26,-1
 398 310 l 1,27,28
 358 316 358 316 338 316 c 2,29,-1
 310 316 l 2,30,31
 287 316 287 316 281 315 c 1,32,-1
 263 193 l 2,33,34
 256 152 256 152 250 87 c 1,35,-1
 370 87 l 2,36,37
 405 87 405 87 445 95 c 1,38,39
 459 116 459 116 470 138 c 1,40,41
 483 170 483 170 489 195 c 1,42,-1
 557 190 l 1,43,-1
 517 14 l 1,44,-1
 496 -4 l 1,45,46
 406 0 406 0 386 0 c 2,47,-1
 109 0 l 1,48,-1
 12 -5 l 1,49,-1
 17 65 l 1,50,-1
 82 77 l 1,51,52
 86 85 86 85 94 116.5 c 128,-1,53
 102 148 102 148 103 163 c 1,54,-1
 154 512 l 2,55,56
 163 567 163 567 163 590.5 c 128,-1,57
 163 614 163 614 162 623 c 1,58,-1
 101 635 l 1,59,-1
 117 710 l 1,60,61
 176 705 176 705 212 705 c 2,0,-1
EndSplineSet
EndChar

StartChar: F
Encoding: 70 70 41
Width: 553
GlyphClass: 2
Flags: W
LayerCount: 2
Fore
SplineSet
434 623 m 2,0,-1
 329 623 l 1,1,2
 328 617 328 617 321.5 584 c 128,-1,3
 315 551 315 551 314 542 c 2,4,-1
 291 388 l 1,5,6
 301 387 301 387 313 387 c 2,7,-1
 368 387 l 2,8,9
 382 387 382 387 411 396 c 1,10,-1
 429 460 l 1,11,-1
 490 455 l 1,12,13
 479 392 479 392 477 372 c 2,14,-1
 461 245 l 1,15,-1
 397 239 l 1,16,-1
 397 299 l 1,17,18
 356 305 356 305 337 305 c 2,19,-1
 302 305 l 2,20,21
 286 305 286 305 279 304 c 1,22,-1
 262 190 l 2,23,24
 254 132 254 132 254 109 c 128,-1,25
 254 86 254 86 255 77 c 1,26,-1
 346 71 l 1,27,-1
 330 -5 l 1,28,29
 220 0 220 0 108 0 c 1,30,-1
 12 -5 l 1,31,-1
 17 65 l 1,32,-1
 82 77 l 1,33,34
 86 85 86 85 94 116.5 c 128,-1,35
 102 148 102 148 103 163 c 1,36,-1
 154 512 l 2,37,38
 163 569 163 569 163 591.5 c 128,-1,39
 163 614 163 614 162 623 c 1,40,-1
 101 635 l 1,41,-1
 117 710 l 1,42,43
 165 705 165 705 212 705 c 2,44,-1
 475 705 l 1,45,-1
 587 715 l 1,46,-1
 603 697 l 1,47,-1
 587 541 l 1,48,-1
 516 536 l 1,49,-1
 516 595 l 1,50,-1
 511 618 l 1,51,52
 463 623 463 623 434 623 c 2,0,-1
EndSplineSet
EndChar

StartChar: G
Encoding: 71 71 42
Width: 681
GlyphClass: 2
Flags: W
LayerCount: 2
Fore
SplineSet
449 720 m 0,0,1
 534 720 534 720 670 686 c 1,2,-1
 633 521 l 1,3,-1
 556 525 l 1,4,-1
 560 572 l 2,5,6
 561 581 561 581 554 613 c 1,7,8
 490 627 490 627 439 627 c 0,9,10
 362 627 362 627 310 575 c 0,11,12
 214 480 214 480 214 283 c 0,13,14
 214 190 214 190 249 134 c 128,-1,15
 284 78 284 78 358 78 c 0,16,17
 400 78 400 78 451 86 c 1,18,19
 462 115 462 115 464 128 c 2,20,-1
 474 196 l 1,21,-1
 473 257 l 1,22,-1
 371 265 l 1,23,-1
 390 363 l 1,24,-1
 498 363 l 1,25,-1
 613 366 l 1,26,-1
 637 341 l 1,27,28
 615 246 615 246 608 196 c 2,29,-1
 582 19 l 1,30,31
 452 -15 452 -15 348 -15 c 0,32,33
 196 -15 196 -15 115.5 67.5 c 128,-1,34
 35 150 35 150 35 290 c 0,35,36
 35 480 35 480 143.5 600 c 128,-1,37
 252 720 252 720 449 720 c 0,0,1
EndSplineSet
EndChar

StartChar: H
Encoding: 72 72 43
Width: 806
GlyphClass: 2
Flags: W
LayerCount: 2
Fore
SplineSet
825 710 m 1,0,-1
 818 629 l 1,1,-1
 754 623 l 1,2,3
 738 575 738 575 733 542 c 2,4,-1
 683 193 l 1,5,6
 674 144 674 144 674 77 c 1,7,-1
 735 71 l 1,8,-1
 719 -5 l 1,9,10
 640 0 640 0 528 0 c 1,11,-1
 432 -5 l 1,12,-1
 437 65 l 1,13,-1
 502 77 l 1,14,15
 502 79 502 79 511.5 115 c 128,-1,16
 521 151 521 151 523 163 c 2,17,-1
 543 302 l 1,18,-1
 279 302 l 1,19,-1
 263 193 l 2,20,21
 255 143 255 143 255 77 c 1,22,-1
 315 71 l 1,23,-1
 299 -5 l 1,24,25
 220 0 220 0 108 0 c 1,26,-1
 12 -5 l 1,27,-1
 17 65 l 1,28,-1
 82 77 l 1,29,30
 101 139 101 139 103 163 c 1,31,-1
 154 512 l 2,32,33
 156 523 156 523 162 623 c 1,34,-1
 101 635 l 1,35,-1
 117 710 l 1,36,37
 165 705 165 705 212 705 c 1,38,-1
 405 710 l 1,39,-1
 398 629 l 1,40,-1
 334 623 l 1,41,42
 320 580 320 580 314 542 c 2,43,-1
 291 389 l 1,44,-1
 557 393 l 1,45,-1
 574 512 l 2,46,47
 576 526 576 526 582 623 c 1,48,-1
 521 635 l 1,49,-1
 537 710 l 1,50,51
 585 705 585 705 632 705 c 1,52,-1
 825 710 l 1,0,-1
EndSplineSet
EndChar

StartChar: I
Encoding: 73 73 44
Width: 396
GlyphClass: 2
Flags: W
LayerCount: 2
Fore
SplineSet
410 710 m 1,0,-1
 403 629 l 1,1,-1
 339 623 l 1,2,3
 323 575 323 575 318 542 c 2,4,-1
 268 193 l 1,5,6
 259 144 259 144 259 77 c 1,7,-1
 320 71 l 1,8,-1
 304 -5 l 1,9,10
 225 0 225 0 113 0 c 1,11,-1
 17 -5 l 1,12,-1
 22 65 l 1,13,-1
 87 77 l 1,14,15
 87 79 87 79 96.5 115 c 128,-1,16
 106 151 106 151 108 163 c 2,17,-1
 159 512 l 2,18,19
 161 526 161 526 167 623 c 1,20,-1
 106 635 l 1,21,-1
 122 710 l 1,22,23
 170 705 170 705 217 705 c 1,24,-1
 410 710 l 1,0,-1
EndSplineSet
EndChar

StartChar: J
Encoding: 74 74 45
Width: 363
GlyphClass: 2
Flags: W
LayerCount: 2
Fore
SplineSet
386 629 m 1,0,-1
 322 623 l 1,1,2
 306 575 306 575 301 542 c 2,3,-1
 224 10 l 2,4,5
 220 -14 220 -14 163 -71.5 c 128,-1,6
 106 -129 106 -129 19 -200 c 1,7,-1
 -31 -169 l 1,8,9
 66 -9 66 -9 69 11 c 2,10,-1
 142 512 l 2,11,12
 150 569 150 569 150 623 c 1,13,-1
 89 635 l 1,14,-1
 105 710 l 1,15,16
 153 705 153 705 200 705 c 1,17,-1
 393 710 l 1,18,-1
 386 629 l 1,0,-1
EndSplineSet
EndChar

StartChar: K
Encoding: 75 75 46
Width: 732
GlyphClass: 2
Flags: W
LayerCount: 2
Fore
SplineSet
713 71 m 1,0,-1
 697 -5 l 1,1,2
 608 0 608 0 497 0 c 1,3,-1
 407 -5 l 1,4,-1
 412 65 l 1,5,-1
 450 73 l 1,6,7
 406 163 406 163 406 164 c 2,8,-1
 290 353 l 1,9,-1
 478 577 l 1,10,-1
 512 629 l 1,11,-1
 484 635 l 1,12,-1
 500 710 l 1,13,14
 544 705 544 705 593 705 c 1,15,-1
 757 710 l 1,16,-1
 750 629 l 1,17,-1
 695 623 l 1,18,19
 653 587 653 587 612 546 c 1,20,-1
 461 370 l 1,21,22
 561 225 561 225 624 129 c 0,23,24
 631 119 631 119 668 77 c 1,25,-1
 713 71 l 1,0,-1
402 710 m 1,26,-1
 395 629 l 1,27,-1
 334 623 l 1,28,29
 320 580 320 580 314 542 c 2,30,-1
 263 193 l 2,31,32
 255 143 255 143 255 77 c 1,33,-1
 311 71 l 1,34,-1
 295 -5 l 1,35,36
 218 0 218 0 107 0 c 1,37,-1
 15 -5 l 1,38,-1
 20 65 l 1,39,-1
 82 77 l 1,40,41
 101 139 101 139 103 163 c 1,42,-1
 154 512 l 2,43,44
 156 523 156 523 162 623 c 1,45,-1
 105 635 l 1,46,-1
 120 710 l 1,47,48
 163 705 163 705 211 705 c 1,49,-1
 402 710 l 1,26,-1
EndSplineSet
PairPos2: "'kern' Horizontal Kerning in Latin lookup 0 per glyph data 1" ygrave dx=0 dy=0 dh=-78 dv=0 dx=0 dy=0 dh=0 dv=0
PairPos2: "'kern' Horizontal Kerning in Latin lookup 0 per glyph data 1" Ygrave dx=0 dy=0 dh=-78 dv=0 dx=0 dy=0 dh=0 dv=0
PairPos2: "'kern' Horizontal Kerning in Latin lookup 0 per glyph data 1" Ydieresis dx=0 dy=0 dh=-78 dv=0 dx=0 dy=0 dh=0 dv=0
PairPos2: "'kern' Horizontal Kerning in Latin lookup 0 per glyph data 1" ycircumflex dx=0 dy=0 dh=-78 dv=0 dx=0 dy=0 dh=0 dv=0
PairPos2: "'kern' Horizontal Kerning in Latin lookup 0 per glyph data 1" Ycircumflex dx=0 dy=0 dh=-78 dv=0 dx=0 dy=0 dh=0 dv=0
PairPos2: "'kern' Horizontal Kerning in Latin lookup 0 per glyph data 1" ydieresis dx=0 dy=0 dh=-78 dv=0 dx=0 dy=0 dh=0 dv=0
PairPos2: "'kern' Horizontal Kerning in Latin lookup 0 per glyph data 1" yacute dx=0 dy=0 dh=-78 dv=0 dx=0 dy=0 dh=0 dv=0
PairPos2: "'kern' Horizontal Kerning in Latin lookup 0 per glyph data 1" Yacute dx=0 dy=0 dh=-78 dv=0 dx=0 dy=0 dh=0 dv=0
PairPos2: "'kern' Horizontal Kerning in Latin lookup 0 per glyph data 1" y dx=0 dy=0 dh=-78 dv=0 dx=0 dy=0 dh=0 dv=0
PairPos2: "'kern' Horizontal Kerning in Latin lookup 0 per glyph data 1" v dx=0 dy=0 dh=-8 dv=0 dx=0 dy=0 dh=0 dv=0
PairPos2: "'kern' Horizontal Kerning in Latin lookup 0 per glyph data 1" u dx=0 dy=0 dh=-39 dv=0 dx=0 dy=0 dh=0 dv=0
PairPos2: "'kern' Horizontal Kerning in Latin lookup 0 per glyph data 1" t dx=0 dy=0 dh=-39 dv=0 dx=0 dy=0 dh=0 dv=0
PairPos2: "'kern' Horizontal Kerning in Latin lookup 0 per glyph data 1" o dx=0 dy=0 dh=-39 dv=0 dx=0 dy=0 dh=0 dv=0
PairPos2: "'kern' Horizontal Kerning in Latin lookup 0 per glyph data 1" Y dx=0 dy=0 dh=-78 dv=0 dx=0 dy=0 dh=0 dv=0
PairPos2: "'kern' Horizontal Kerning in Latin lookup 0 per glyph data 1" O dx=0 dy=0 dh=-29 dv=0 dx=0 dy=0 dh=0 dv=0
PairPos2: "'kern' Horizontal Kerning in Latin lookup 0 per glyph data 1" A dx=0 dy=0 dh=29 dv=0 dx=0 dy=0 dh=0 dv=0
PairPos2: "'kern' Horizontal Kerning in Latin lookup 0 per glyph data 1" hyphen dx=0 dy=0 dh=-78 dv=0 dx=0 dy=0 dh=0 dv=0
EndChar

StartChar: L
Encoding: 76 76 47
Width: 550
GlyphClass: 2
Flags: W
LayerCount: 2
Fore
SplineSet
255 87 m 1,0,-1
 345 87 l 2,1,2
 382 87 382 87 420 95 c 1,3,4
 452 149 452 149 464 195 c 1,5,-1
 532 190 l 1,6,-1
 492 14 l 1,7,-1
 471 -4 l 1,8,9
 380 0 380 0 361 0 c 2,10,-1
 108 0 l 1,11,-1
 12 -5 l 1,12,-1
 17 65 l 1,13,-1
 82 77 l 1,14,15
 101 139 101 139 103 163 c 1,16,-1
 154 512 l 2,17,18
 156 523 156 523 162 623 c 1,19,-1
 101 635 l 1,20,-1
 117 710 l 1,21,22
 165 705 165 705 212 705 c 1,23,-1
 405 710 l 1,24,-1
 398 629 l 1,25,-1
 334 623 l 1,26,27
 320 580 320 580 314 542 c 2,28,-1
 263 193 l 2,29,30
 255 137 255 137 255 87 c 1,0,-1
EndSplineSet
EndChar

StartChar: M
Encoding: 77 77 48
Width: 954
GlyphClass: 2
Flags: W
LayerCount: 2
Fore
SplineSet
824 132 m 1,0,-1
 828 74 l 1,1,-1
 891 68 l 1,2,-1
 876 -5 l 1,3,4
 806 0 806 0 699 0 c 1,5,-1
 600 -5 l 1,6,-1
 605 62 l 1,7,-1
 671 74 l 1,8,9
 677 102 677 102 688 162 c 1,10,-1
 725 518 l 1,11,-1
 473 0 l 1,12,-1
 380 0 l 1,13,-1
 285 518 l 1,14,-1
 215 162 l 2,15,16
 208 125 208 125 206 74 c 1,17,-1
 270 68 l 1,18,-1
 253 -5 l 1,19,20
 210 0 210 0 103 0 c 1,21,-1
 5 -5 l 1,22,-1
 10 62 l 1,23,-1
 77 74 l 1,24,25
 92 113 92 113 98 132 c 1,26,-1
 190 569 l 1,27,28
 192 593 192 593 192 626 c 1,29,-1
 130 638 l 1,30,-1
 145 710 l 1,31,32
 202 705 202 705 245 705 c 2,33,-1
 388 705 l 1,34,-1
 404 685 l 1,35,36
 417 571 417 571 423 534 c 2,37,-1
 475 221 l 1,38,-1
 630 549 l 1,39,-1
 689 685 l 1,40,-1
 711 705 l 1,41,-1
 810 705 l 1,42,-1
 938 710 l 1,43,-1
 931 638 l 1,44,-1
 868 627 l 1,45,46
 861 597 861 597 857 569 c 1,47,-1
 824 132 l 1,0,-1
EndSplineSet
EndChar

StartChar: N
Encoding: 78 78 49
Width: 781
GlyphClass: 2
Flags: W
LayerCount: 2
Fore
SplineSet
213 705 m 2,0,-1
 316 705 l 1,1,-1
 331 685 l 1,2,3
 383 559 383 559 394 537 c 2,4,-1
 560 230 l 1,5,-1
 601 512 l 2,6,7
 608 564 608 564 608 623 c 1,8,-1
 548 635 l 1,9,-1
 564 710 l 1,10,-1
 661 705 l 1,11,-1
 824 710 l 1,12,-1
 817 629 l 1,13,-1
 753 623 l 1,14,15
 739 580 739 580 733 542 c 2,16,-1
 654 0 l 1,17,-1
 517 0 l 1,18,-1
 273 450 l 1,19,-1
 235 193 l 2,20,21
 227 134 227 134 227 77 c 1,22,-1
 288 71 l 1,23,-1
 272 -5 l 1,24,25
 221 0 221 0 109 0 c 1,26,-1
 12 -5 l 1,27,-1
 17 65 l 1,28,-1
 82 77 l 1,29,30
 99 124 99 124 103 163 c 1,31,-1
 154 512 l 2,32,33
 162 562 162 562 162 623 c 1,34,-1
 102 635 l 1,35,-1
 117 710 l 1,36,37
 165 705 165 705 213 705 c 2,0,-1
EndSplineSet
EndChar

StartChar: O
Encoding: 79 79 50
Width: 747
GlyphClass: 2
Flags: W
LayerCount: 2
Fore
SplineSet
743 412 m 0,0,1
 743 221 743 221 629.5 101 c 128,-1,2
 516 -19 516 -19 338 -19 c 0,3,4
 198 -19 198 -19 116.5 65.5 c 128,-1,5
 35 150 35 150 35 292 c 0,6,7
 35 483 35 483 148.5 603.5 c 128,-1,8
 262 724 262 724 440 724 c 0,9,10
 580 724 580 724 661.5 639.5 c 128,-1,11
 743 555 743 555 743 412 c 0,0,1
212 271 m 0,12,13
 212 78 212 78 349 78 c 0,14,15
 460 78 460 78 512.5 172 c 128,-1,16
 565 266 565 266 565 433 c 0,17,18
 565 627 565 627 429 627 c 0,19,20
 317 627 317 627 264.5 532.5 c 128,-1,21
 212 438 212 438 212 271 c 0,12,13
EndSplineSet
EndChar

StartChar: P
Encoding: 80 80 51
Width: 605
GlyphClass: 2
Flags: W
LayerCount: 2
Fore
SplineSet
226 705 m 1,0,-1
 425 715 l 1,1,2
 518 715 518 715 572 666 c 128,-1,3
 626 617 626 617 626 529 c 0,4,5
 626 412 626 412 535.5 341.5 c 128,-1,6
 445 271 445 271 325 271 c 2,7,-1
 274 271 l 1,8,-1
 263 193 l 2,9,10
 255 143 255 143 255 77 c 1,11,-1
 325 71 l 1,12,-1
 309 -5 l 1,13,14
 220 0 220 0 108 0 c 1,15,-1
 12 -5 l 1,16,-1
 17 65 l 1,17,-1
 82 77 l 1,18,19
 101 139 101 139 103 163 c 1,20,-1
 154 512 l 2,21,22
 156 523 156 523 162 623 c 1,23,-1
 101 635 l 1,24,-1
 117 710 l 1,25,26
 165 705 165 705 212 705 c 2,27,-1
 226 705 l 1,0,-1
299 353 m 2,28,29
 375 353 375 353 420 399.5 c 128,-1,30
 465 446 465 446 465 529 c 0,31,32
 465 582 465 582 438.5 607.5 c 128,-1,33
 412 633 412 633 355 633 c 0,34,35
 341 633 341 633 330 632 c 1,36,37
 317 569 317 569 314 542 c 2,38,-1
 286 353 l 1,39,-1
 299 353 l 2,28,29
EndSplineSet
EndChar

StartChar: Q
Encoding: 81 81 52
Width: 753
GlyphClass: 2
Flags: W
LayerCount: 2
Fore
SplineSet
338 -19 m 2,0,1
 198 -19 198 -19 116.5 65.5 c 128,-1,2
 35 150 35 150 35 292 c 0,3,4
 35 483 35 483 148.5 603.5 c 128,-1,5
 262 724 262 724 440 724 c 0,6,7
 580 724 580 724 661.5 639.5 c 128,-1,8
 743 555 743 555 743 414 c 128,-1,9
 743 273 743 273 679 168 c 128,-1,10
 615 63 615 63 503 14 c 1,11,-1
 562 -32 l 1,12,-1
 705 -100 l 1,13,-1
 598 -224 l 1,14,-1
 357 -19 l 1,15,-1
 338 -19 l 2,0,1
212 271 m 0,16,17
 212 78 212 78 349 78 c 0,18,19
 460 78 460 78 512.5 172 c 128,-1,20
 565 266 565 266 565 433 c 0,21,22
 565 627 565 627 429 627 c 0,23,24
 317 627 317 627 264.5 532.5 c 128,-1,25
 212 438 212 438 212 271 c 0,16,17
EndSplineSet
EndChar

StartChar: R
Encoding: 82 82 53
Width: 658
GlyphClass: 2
Flags: W
LayerCount: 2
Fore
SplineSet
223 705 m 1,0,-1
 430 715 l 1,1,2
 524 715 524 715 579.5 666.5 c 128,-1,3
 635 618 635 618 635 539.5 c 128,-1,4
 635 461 635 461 593.5 403.5 c 128,-1,5
 552 346 552 346 483 313 c 1,6,7
 508 243 508 243 545 164.5 c 128,-1,8
 582 86 582 86 587 75 c 1,9,-1
 634 71 l 1,10,-1
 619 -5 l 1,11,12
 542 0 542 0 429 0 c 1,13,14
 406 92 406 92 397 116 c 2,15,-1
 338 277 l 1,16,-1
 325 277 l 2,17,18
 306 277 306 277 280 280 c 1,19,-1
 267 193 l 2,20,21
 258 137 258 137 258 77 c 1,22,-1
 322 71 l 1,23,-1
 305 -5 l 1,24,25
 225 0 225 0 112 0 c 1,26,-1
 12 -5 l 1,27,-1
 17 65 l 1,28,-1
 85 77 l 1,29,30
 104 139 104 139 106 163 c 1,31,-1
 160 512 l 2,32,33
 168 568 168 568 168 623 c 1,34,-1
 104 635 l 1,35,-1
 120 710 l 1,36,37
 173 705 173 705 223 705 c 1,0,-1
360 633 m 0,38,39
 348 633 348 633 339 632 c 1,40,-1
 319 542 l 1,41,-1
 292 361 l 1,42,-1
 316 361 l 2,43,44
 474 361 474 361 474 530 c 0,45,46
 474 633 474 633 360 633 c 0,38,39
EndSplineSet
EndChar

StartChar: S
Encoding: 83 83 54
Width: 557
GlyphClass: 2
Flags: W
LayerCount: 2
Fore
SplineSet
141 221 m 1,0,1
 131 153 131 153 131 146.5 c 128,-1,2
 131 140 131 140 139 110 c 1,3,4
 185 82 185 82 235.5 82 c 128,-1,5
 286 82 286 82 318.5 107 c 128,-1,6
 351 132 351 132 351 172 c 128,-1,7
 351 212 351 212 323 239 c 128,-1,8
 295 266 295 266 255.5 286.5 c 128,-1,9
 216 307 216 307 176.5 330.5 c 128,-1,10
 137 354 137 354 109 395.5 c 128,-1,11
 81 437 81 437 81 492 c 0,12,13
 81 595 81 595 154 657.5 c 128,-1,14
 227 720 227 720 333.5 720 c 128,-1,15
 440 720 440 720 551 684 c 1,16,-1
 510 491 l 1,17,-1
 428 496 l 1,18,19
 439 568 439 568 439 572 c 128,-1,20
 439 576 439 576 432 604 c 1,21,22
 398 627 398 627 354.5 627 c 128,-1,23
 311 627 311 627 281 602.5 c 128,-1,24
 251 578 251 578 251 541 c 128,-1,25
 251 504 251 504 279 479 c 128,-1,26
 307 454 307 454 346.5 433.5 c 128,-1,27
 386 413 386 413 426 389.5 c 128,-1,28
 466 366 466 366 494 326 c 128,-1,29
 522 286 522 286 522 232 c 0,30,31
 522 120 522 120 440.5 52.5 c 128,-1,32
 359 -15 359 -15 240 -15 c 0,33,34
 182 -15 182 -15 126 -3 c 128,-1,35
 70 9 70 9 44 21 c 2,36,-1
 17 33 l 1,37,-1
 60 226 l 1,38,-1
 141 221 l 1,0,1
EndSplineSet
EndChar

StartChar: T
Encoding: 84 84 55
Width: 609
GlyphClass: 2
Flags: W
LayerCount: 2
Fore
SplineSet
571 526 m 1,0,1
 573 557 573 557 573 572 c 0,2,3
 573 594 573 594 568 618 c 1,4,5
 526 623 526 623 495 623 c 2,6,-1
 446 623 l 1,7,8
 431 575 431 575 426 542 c 2,9,-1
 375 193 l 2,10,11
 367 136 367 136 367 77 c 1,12,-1
 427 71 l 1,13,-1
 411 -5 l 1,14,15
 332 0 332 0 221 0 c 1,16,-1
 124 -5 l 1,17,-1
 129 65 l 1,18,-1
 194 77 l 1,19,20
 212 138 212 138 216 163 c 2,21,-1
 266 512 l 1,22,23
 274 556 274 556 274 623 c 1,24,-1
 229 623 l 2,25,26
 201 623 201 623 151 618 c 1,27,28
 140 597 140 597 135 583 c 128,-1,29
 130 569 130 569 121 526 c 1,30,-1
 51 531 l 1,31,-1
 82 697 l 1,32,-1
 103 715 l 1,33,34
 193 705 193 705 212 705 c 2,35,-1
 531 705 l 1,36,-1
 643 715 l 1,37,-1
 659 697 l 1,38,-1
 642 531 l 1,39,-1
 571 526 l 1,0,1
EndSplineSet
EndChar

StartChar: U
Encoding: 85 85 56
Width: 759
GlyphClass: 2
Flags: W
LayerCount: 2
Fore
SplineSet
341 -15 m 128,-1,1
 204 -15 204 -15 142 61 c 1,2,3
 96 119 96 119 96 209 c 0,4,5
 96 237 96 237 100 268 c 2,6,-1
 135 512 l 1,7,8
 144 566 144 566 144 590 c 128,-1,9
 144 614 144 614 143 623 c 1,10,-1
 82 635 l 1,11,-1
 98 710 l 1,12,13
 146 705 146 705 193 705 c 1,14,-1
 391 710 l 1,15,-1
 384 629 l 1,16,-1
 320 623 l 1,17,18
 304 578 304 578 300 542 c 1,19,-1
 258 260 l 2,20,21
 256 243 256 243 256 227 c 0,22,23
 256 179 256 179 278 144 c 1,24,25
 309 99 309 99 378 99 c 128,-1,26
 447 99 447 99 484 140 c 128,-1,27
 521 181 521 181 532 260 c 2,28,-1
 569 512 l 2,29,30
 570 520 570 520 577 623 c 1,31,-1
 516 635 l 1,32,-1
 532 710 l 1,33,34
 580 705 580 705 628 705 c 1,35,-1
 797 710 l 1,36,-1
 790 629 l 1,37,-1
 726 623 l 1,38,39
 712 585 712 585 706 542 c 2,40,-1
 666 268 l 2,41,42
 647 137 647 137 562.5 61 c 128,-1,0
 478 -15 478 -15 341 -15 c 128,-1,1
EndSplineSet
EndChar

StartChar: V
Encoding: 86 86 57
Width: 687
GlyphClass: 2
Flags: W
LayerCount: 2
Fore
SplineSet
249 0 m 1,0,-1
 130 577 l 1,1,-1
 113 631 l 1,2,-1
 56 640 l 1,3,-1
 71 710 l 1,4,5
 123 705 123 705 159 705 c 2,6,-1
 366 710 l 1,7,-1
 360 637 l 1,8,-1
 296 628 l 1,9,-1
 295 576 l 1,10,-1
 352 207 l 1,11,-1
 529 590 l 2,12,13
 537 608 537 608 541 628 c 1,14,-1
 482 640 l 1,15,-1
 497 710 l 1,16,17
 557 705 557 705 604 705 c 1,18,-1
 748 710 l 1,19,-1
 742 637 l 1,20,-1
 694 630 l 1,21,22
 652 574 652 574 638 544 c 2,23,-1
 365 0 l 1,24,-1
 249 0 l 1,0,-1
EndSplineSet
EndChar

StartChar: W
Encoding: 87 87 58
Width: 999
GlyphClass: 2
Flags: W
LayerCount: 2
Fore
SplineSet
1051 637 m 1,0,-1
 1003 630 l 1,1,2
 971 584 971 584 952 544 c 2,3,-1
 706 0 l 1,4,-1
 591 0 l 1,5,-1
 528 423 l 1,6,-1
 341 0 l 1,7,-1
 225 0 l 1,8,-1
 129 577 l 1,9,-1
 116 631 l 1,10,-1
 59 640 l 1,11,-1
 74 710 l 1,12,13
 126 705 126 705 162 705 c 2,14,-1
 369 710 l 1,15,-1
 363 637 l 1,16,-1
 299 628 l 1,17,18
 294 613 294 613 294 576 c 1,19,-1
 326 207 l 1,20,-1
 521 675 l 1,21,-1
 635 675 l 1,22,-1
 691 207 l 1,23,-1
 844 590 l 2,24,25
 852 610 852 610 850 628 c 1,26,-1
 791 640 l 1,27,-1
 806 710 l 1,28,29
 867 705 867 705 913 705 c 1,30,-1
 1057 710 l 1,31,-1
 1051 637 l 1,0,-1
EndSplineSet
EndChar

StartChar: X
Encoding: 88 88 59
Width: 675
GlyphClass: 2
Flags: W
LayerCount: 2
Fore
SplineSet
266 343 m 1,0,-1
 112 632 l 1,1,-1
 63 640 l 1,2,-1
 79 710 l 1,3,4
 133 705 133 705 170 705 c 2,5,-1
 361 710 l 1,6,-1
 352 636 l 1,7,-1
 314 631 l 1,8,9
 329 580 329 580 342 555 c 1,10,-1
 382 469 l 1,11,-1
 462 578 l 2,12,13
 474 593 474 593 498 632 c 1,14,-1
 462 640 l 1,15,-1
 478 710 l 1,16,17
 529 705 529 705 576 705 c 1,18,-1
 717 710 l 1,19,-1
 710 636 l 1,20,-1
 646 628 l 1,21,22
 593 582 593 582 582 569 c 2,23,-1
 433 378 l 1,24,-1
 566 132 l 1,25,26
 603 78 603 78 605 76 c 1,27,-1
 651 71 l 1,28,-1
 635 -5 l 1,29,30
 555 0 555 0 438 0 c 1,31,-1
 359 -5 l 1,32,-1
 365 65 l 1,33,-1
 400 72 l 1,34,35
 383 126 383 126 373 142 c 1,36,-1
 316 253 l 1,37,-1
 221 132 l 2,38,39
 211 120 211 120 183 75 c 1,40,-1
 228 71 l 1,41,-1
 211 -5 l 1,42,43
 149 0 149 0 64 0 c 1,44,-1
 -29 -5 l 1,45,-1
 -23 65 l 1,46,-1
 29 74 l 1,47,48
 104 144 104 144 120 164 c 2,49,-1
 266 343 l 1,0,-1
EndSplineSet
EndChar

StartChar: Y
Encoding: 89 89 60
Width: 694
GlyphClass: 2
Flags: W
LayerCount: 2
Fore
SplineSet
750 637 m 1,0,-1
 692 630 l 1,1,2
 639 576 639 576 619 544 c 2,3,-1
 425 244 l 1,4,-1
 418 193 l 2,5,6
 410 134 410 134 410 77 c 1,7,-1
 471 71 l 1,8,-1
 455 -5 l 1,9,10
 376 0 376 0 264 0 c 1,11,-1
 168 -5 l 1,12,-1
 173 65 l 1,13,-1
 238 77 l 1,14,15
 238 79 238 79 247.5 115 c 128,-1,16
 257 151 257 151 259 163 c 2,17,-1
 272 254 l 1,18,-1
 145 577 l 2,19,20
 137 599 137 599 114 623 c 1,21,-1
 107 631 l 1,22,-1
 51 640 l 1,23,-1
 66 710 l 1,24,25
 117 705 117 705 153 705 c 2,26,-1
 360 710 l 1,27,-1
 354 637 l 1,28,-1
 303 628 l 1,29,30
 305 595 305 595 310 576 c 1,31,-1
 382 369 l 1,32,-1
 521 590 l 1,33,-1
 529 628 l 1,34,-1
 490 640 l 1,35,-1
 505 710 l 1,36,37
 566 705 566 705 612 705 c 1,38,-1
 756 710 l 1,39,-1
 750 637 l 1,0,-1
EndSplineSet
EndChar

StartChar: Z
Encoding: 90 90 61
Width: 597
GlyphClass: 2
Flags: W
LayerCount: 2
Fore
SplineSet
258 616 m 2,0,1
 228 616 228 616 178 611 c 1,2,-1
 162 583 l 1,3,4
 145 540 145 540 137 507 c 1,5,-1
 67 512 l 1,6,-1
 98 697 l 1,7,-1
 120 715 l 1,8,9
 211 705 211 705 230 705 c 2,10,-1
 601 705 l 1,11,-1
 600 625 l 1,12,-1
 475 464 l 1,13,-1
 292 212 l 1,14,-1
 215 89 l 1,15,-1
 364 89 l 2,16,17
 406 89 406 89 446 97 c 1,18,19
 482 156 482 156 493 203 c 1,20,-1
 559 198 l 1,21,-1
 520 14 l 1,22,-1
 497 -4 l 1,23,24
 406 0 406 0 386 0 c 2,25,-1
 9 0 l 1,26,-1
 10 80 l 1,27,28
 111 196 111 196 139 237 c 1,29,-1
 345 516 l 1,30,-1
 405 616 l 1,31,-1
 258 616 l 2,0,1
EndSplineSet
EndChar

StartChar: bracketleft
Encoding: 91 91 62
Width: 265
GlyphClass: 2
Flags: W
LayerCount: 2
Fore
SplineSet
197 601 m 2,0,-1
 116 40 l 2,1,2
 111 3 111 3 111 -50 c 1,3,-1
 179 -59 l 1,4,-1
 167 -125 l 1,5,6
 68 -121 68 -121 0 -121 c 1,7,-1
 -20 -92 l 1,8,9
 9 74 9 74 11 94 c 2,10,-1
 78 551 l 1,11,-1
 100 733 l 1,12,-1
 128 762 l 1,13,-1
 296 766 l 1,14,-1
 290 700 l 1,15,-1
 220 691 l 1,16,17
 203 641 203 641 197 601 c 2,0,-1
EndSplineSet
EndChar

StartChar: backslash
Encoding: 92 92 63
Width: 398
GlyphClass: 2
Flags: W
LayerCount: 2
Fore
SplineSet
331 -35 m 1,0,-1
 239 -65 l 1,1,-1
 73 743 l 1,2,-1
 164 773 l 1,3,-1
 331 -35 l 1,0,-1
EndSplineSet
EndChar

StartChar: bracketright
Encoding: 93 93 64
Width: 265
GlyphClass: 2
Flags: W
LayerCount: 2
Fore
SplineSet
67 40 m 2,0,-1
 148 601 l 2,1,2
 153 638 153 638 153 691 c 1,3,-1
 85 700 l 1,4,-1
 97 766 l 1,5,6
 196 762 196 762 265 762 c 1,7,-1
 285 733 l 1,8,9
 256 571 256 571 253 551 c 2,10,-1
 186 94 l 1,11,-1
 164 -92 l 1,12,-1
 136 -121 l 1,13,-1
 -31 -125 l 1,14,-1
 -25 -59 l 1,15,-1
 44 -50 l 1,16,17
 61 0 61 0 67 40 c 2,0,-1
EndSplineSet
EndChar

StartChar: asciicircum
Encoding: 94 94 65
Width: 570
GlyphClass: 2
Flags: W
LayerCount: 2
Fore
SplineSet
356 732 m 1,0,-1
 569 373 l 1,1,-1
 475 314 l 1,2,-1
 333 578 l 1,3,-1
 116 314 l 1,4,-1
 37 373 l 1,5,-1
 356 732 l 1,0,-1
EndSplineSet
EndChar

StartChar: underscore
Encoding: 95 95 66
Width: 504
GlyphClass: 2
Flags: W
LayerCount: 2
Fore
SplineSet
-4 -232 m 1,0,-1
 6 -137 l 1,1,-1
 510 -137 l 1,2,-1
 492 -232 l 1,3,-1
 -4 -232 l 1,0,-1
EndSplineSet
EndChar

StartChar: grave
Encoding: 96 96 67
Width: 349
GlyphClass: 2
Flags: W
LayerCount: 2
Fore
SplineSet
359 623 m 1,0,-1
 313 565 l 1,1,-1
 248 614 l 1,2,-1
 112 679 l 1,3,-1
 158 755 l 1,4,-1
 359 623 l 1,0,-1
EndSplineSet
EndChar

StartChar: a
Encoding: 97 97 68
Width: 508
GlyphClass: 2
Flags: W
LayerCount: 2
Fore
SplineSet
487 54 m 1,0,-1
 474 -6 l 1,1,2
 448 0 448 0 420 0 c 2,3,-1
 239 -4 l 1,4,-1
 245 61 l 1,5,-1
 284 64 l 1,6,-1
 292 81 l 1,7,-1
 290 115 l 1,8,-1
 162 115 l 1,9,-1
 151 83 l 1,10,-1
 146 64 l 1,11,-1
 183 54 l 1,12,-1
 170 -6 l 1,13,14
 125 0 125 0 83 0 c 1,15,-1
 -23 -4 l 1,16,-1
 -18 61 l 1,17,-1
 8 63 l 1,18,-1
 48 123 l 1,19,-1
 253 536 l 1,20,-1
 362 545 l 1,21,-1
 448 60 l 1,22,-1
 487 54 l 1,0,-1
268 355 m 1,23,-1
 198 190 l 1,24,-1
 279 191 l 1,25,-1
 268 355 l 1,23,-1
EndSplineSet
EndChar

StartChar: b
Encoding: 98 98 69
Width: 508
GlyphClass: 2
Flags: W
LayerCount: 2
Fore
SplineSet
177 536 m 1,0,-1
 340 543 l 1,1,2
 412 543 412 543 459 512 c 128,-1,3
 506 481 506 481 506 427.5 c 128,-1,4
 506 374 506 374 469.5 334.5 c 128,-1,5
 433 295 433 295 377 282 c 1,6,-1
 376 277 l 1,7,8
 428 269 428 269 458.5 241 c 128,-1,9
 489 213 489 213 489 165 c 0,10,11
 489 80 489 80 424 38 c 128,-1,12
 359 -4 359 -4 264 -4 c 1,13,14
 264 -4 264 -4 86 0 c 1,15,-1
 19 -4 l 1,16,-1
 24 58 l 1,17,-1
 66 65 l 1,18,19
 70 74 70 74 76 98.5 c 128,-1,20
 82 123 82 123 83 134 c 2,21,-1
 120 366 l 2,22,23
 129 422 129 422 129 440.5 c 128,-1,24
 129 459 129 459 128 465 c 1,25,-1
 88 474 l 1,26,-1
 102 540 l 1,27,28
 115 536 115 536 177 536 c 1,0,-1
248 68 m 0,29,30
 293 68 293 68 322.5 97.5 c 128,-1,31
 352 127 352 127 352 173 c 0,32,33
 352 236 352 236 279 236 c 2,34,-1
 273 236 l 1,35,-1
 289 315 l 1,36,-1
 293 315 l 2,37,38
 328 315 328 315 349.5 340.5 c 128,-1,39
 371 366 371 366 371 411 c 0,40,41
 371 435 371 435 352.5 452.5 c 128,-1,42
 334 470 334 470 305 470 c 0,43,44
 294 470 294 470 280 467 c 1,45,-1
 231 157 l 2,46,47
 221 89 221 89 219 69 c 1,48,49
 231 68 231 68 248 68 c 0,29,30
EndSplineSet
EndChar

StartChar: c
Encoding: 99 99 70
Width: 496
GlyphClass: 2
Flags: W
LayerCount: 2
Fore
SplineSet
264 -11 m 0,0,1
 146 -11 146 -11 85 51.5 c 128,-1,2
 24 114 24 114 24 221 c 0,3,4
 24 365 24 365 108 456 c 128,-1,5
 192 547 192 547 343 547 c 0,6,7
 412 547 412 547 508 521 c 1,8,-1
 476 373 l 1,9,-1
 412 376 l 1,10,-1
 416 428 l 2,11,12
 417 432 417 432 411 455 c 1,13,14
 374 462 374 462 334 462 c 128,-1,15
 294 462 294 462 264.5 439 c 128,-1,16
 235 416 235 416 220 376 c 0,17,18
 192 303 192 303 192 208 c 0,19,20
 192 73 192 73 272 73 c 0,21,22
 312 73 312 73 364 82 c 1,23,24
 368 88 368 88 370.5 92.5 c 128,-1,25
 373 97 373 97 376 102 c 0,26,27
 383 112 383 112 383 116 c 2,28,-1
 391 152 l 1,29,-1
 454 154 l 1,30,-1
 440 14 l 1,31,32
 334 -11 334 -11 264 -11 c 0,0,1
EndSplineSet
EndChar

StartChar: d
Encoding: 100 100 71
Width: 568
GlyphClass: 2
Flags: W
LayerCount: 2
Fore
SplineSet
179 536 m 2,0,-1
 337 543 l 1,1,2
 450 543 450 543 508.5 481 c 128,-1,3
 567 419 567 419 567 314 c 0,4,5
 567 173 567 173 486 84 c 128,-1,6
 405 -5 405 -5 255 -5 c 1,7,-1
 81 0 l 1,8,-1
 14 -4 l 1,9,-1
 19 58 l 1,10,-1
 64 65 l 2,11,12
 64 66 64 66 68 80 c 0,13,14
 78 114 78 114 81 134 c 2,15,-1
 115 366 l 2,16,17
 116 374 116 374 117.5 382 c 128,-1,18
 119 390 119 390 119.5 397.5 c 128,-1,19
 120 405 120 405 121 412 c 0,20,21
 123 426 123 426 123 438 c 2,22,23
 123 438 123 438 124 456 c 1,24,25
 124 456 124 456 124 462 c 0,26,27
 124 465 124 465 124 465 c 1,28,-1
 81 474 l 1,29,-1
 95 540 l 1,30,-1
 170 536 l 2,31,32
 173 536 173 536 179 536 c 2,0,-1
218 70 m 1,33,34
 234 68 234 68 244 68 c 0,35,36
 413 68 413 68 413 326 c 0,37,38
 413 471 413 471 310 471 c 0,39,40
 307 471 307 471 295 468 c 128,-1,41
 283 465 283 465 276 464 c 1,42,43
 275 459 275 459 273 446.5 c 128,-1,44
 271 434 271 434 269 424.5 c 128,-1,45
 267 415 267 415 267 414 c 2,46,-1
 229 157 l 2,47,48
 221 103 221 103 218 70 c 1,33,34
EndSplineSet
EndChar

StartChar: e
Encoding: 101 101 72
Width: 481
GlyphClass: 2
Flags: W
LayerCount: 2
Fore
SplineSet
276 463 m 1,0,1
 267 418 267 418 267 414 c 2,2,-1
 251 304 l 1,3,-1
 297 304 l 2,4,5
 308 304 308 304 324 311 c 1,6,-1
 338 359 l 1,7,-1
 390 355 l 1,8,9
 382 307 382 307 380 292 c 2,10,-1
 368 188 l 1,11,-1
 311 184 l 1,12,-1
 310 227 l 1,13,14
 286 231 286 231 270 231 c 2,15,-1
 258 231 l 1,16,17
 241 232 241 232 241 231 c 2,18,-1
 229 157 l 1,19,-1
 218 78 l 1,20,-1
 303 78 l 2,21,22
 328 78 328 78 356 84 c 1,23,24
 366 99 366 99 376 119 c 1,25,26
 383 139 383 139 388 158 c 1,27,-1
 446 155 l 1,28,-1
 414 11 l 1,29,-1
 398 -3 l 1,30,31
 329 0 329 0 313 0 c 2,32,-1
 82 0 l 1,33,-1
 14 -4 l 1,34,-1
 19 58 l 1,35,-1
 64 65 l 1,36,37
 74 80 74 80 81 134 c 2,38,-1
 115 366 l 1,39,40
 125 422 125 422 125 440.5 c 128,-1,41
 125 459 125 459 124 465 c 1,42,-1
 81 474 l 1,43,-1
 95 540 l 1,44,45
 128 536 128 536 162 536 c 2,46,-1
 381 536 l 1,47,-1
 468 543 l 1,48,-1
 480 530 l 1,49,-1
 467 403 l 1,50,-1
 406 399 l 1,51,-1
 408 446 l 1,52,53
 407 447 407 447 407 452.5 c 128,-1,54
 407 458 407 458 406 460 c 1,55,56
 385 463 385 463 348 463 c 2,57,-1
 276 463 l 1,0,1
EndSplineSet
EndChar

StartChar: f
Encoding: 102 102 73
Width: 440
GlyphClass: 2
Flags: W
LayerCount: 2
Fore
SplineSet
406 399 m 1,0,-1
 408 446 l 1,1,2
 405 449 405 449 407 459 c 1,3,4
 379 463 379 463 348 463 c 2,5,-1
 276 463 l 1,6,7
 267 418 267 418 267 414 c 2,8,-1
 249 295 l 1,9,-1
 295 295 l 2,10,11
 310 295 310 295 322 301 c 1,12,-1
 336 349 l 1,13,-1
 389 345 l 1,14,15
 381 298 381 298 379 283 c 2,16,-1
 366 179 l 1,17,-1
 310 174 l 1,18,-1
 310 217 l 1,19,20
 284 222 284 222 270 222 c 2,21,-1
 239 222 l 1,22,-1
 228 154 l 2,23,24
 222 111 222 111 222 92 c 128,-1,25
 222 73 222 73 223 65 c 1,26,-1
 291 61 l 1,27,-1
 279 -4 l 1,28,29
 180 0 180 0 81 0 c 1,30,-1
 14 -4 l 1,31,-1
 19 58 l 1,32,-1
 64 65 l 1,33,34
 74 80 74 80 81 134 c 2,35,-1
 115 366 l 1,36,37
 125 424 125 424 125 442 c 128,-1,38
 125 460 125 460 124 465 c 1,39,-1
 81 474 l 1,40,-1
 95 540 l 1,41,42
 115 536 115 536 162 536 c 2,43,-1
 381 536 l 1,44,-1
 468 543 l 1,45,-1
 480 530 l 1,46,-1
 467 403 l 1,47,-1
 406 399 l 1,0,-1
EndSplineSet
EndChar

StartChar: g
Encoding: 103 103 74
Width: 546
GlyphClass: 2
Flags: W
LayerCount: 2
Fore
SplineSet
356 547 m 0,0,1
 430 547 430 547 530 521 c 1,2,-1
 500 389 l 1,3,-1
 433 391 l 1,4,-1
 435 428 l 1,5,6
 437 437 437 437 429 456 c 1,7,8
 392 462 392 462 342 462 c 128,-1,9
 292 462 292 462 255.5 423 c 128,-1,10
 219 384 219 384 206 331 c 128,-1,11
 193 278 193 278 193 213 c 0,12,13
 193 73 193 73 286 73 c 0,14,15
 304 73 304 73 344 75 c 1,16,17
 349 88 349 88 351 97 c 2,18,-1
 358 149 l 1,19,-1
 357 191 l 1,20,-1
 278 197 l 1,21,-1
 295 288 l 1,22,-1
 378 288 l 1,23,-1
 484 290 l 1,24,-1
 506 268 l 1,25,26
 490 199 490 199 485 161 c 2,27,-1
 463 14 l 1,28,29
 367 -11 367 -11 276 -11 c 0,30,31
 153 -11 153 -11 89 52 c 128,-1,32
 25 115 25 115 25 223 c 0,33,34
 25 367 25 367 111.5 457 c 128,-1,35
 198 547 198 547 356 547 c 0,0,1
EndSplineSet
EndChar

StartChar: h
Encoding: 104 104 75
Width: 650
GlyphClass: 2
Flags: W
LayerCount: 2
Fore
SplineSet
660 540 m 1,0,-1
 654 469 l 1,1,-1
 609 465 l 1,2,-1
 593 414 l 1,3,-1
 556 157 l 2,4,5
 549 115 549 115 549 65 c 1,6,-1
 587 61 l 1,7,-1
 574 -4 l 1,8,9
 508 0 508 0 409 0 c 1,10,-1
 342 -4 l 1,11,-1
 347 58 l 1,12,-1
 391 65 l 2,13,14
 391 66 391 66 399 95.5 c 128,-1,15
 407 125 407 125 408 134 c 2,16,-1
 421 219 l 1,17,-1
 239 219 l 1,18,-1
 229 157 l 2,19,20
 223 122 223 122 223 65 c 1,21,-1
 259 61 l 1,22,-1
 247 -4 l 1,23,24
 180 0 180 0 81 0 c 1,25,-1
 14 -4 l 1,26,-1
 19 58 l 1,27,-1
 64 65 l 1,28,29
 77 105 77 105 81 134 c 2,30,-1
 115 366 l 1,31,32
 124 418 124 418 124 465 c 1,33,-1
 81 474 l 1,34,-1
 95 540 l 1,35,36
 115 536 115 536 162 536 c 1,37,-1
 333 540 l 1,38,-1
 326 469 l 1,39,-1
 282 465 l 1,40,41
 269 426 269 426 267 414 c 2,42,-1
 250 300 l 1,43,-1
 434 303 l 1,44,-1
 443 366 l 2,45,46
 444 373 444 373 451 465 c 1,47,-1
 409 474 l 1,48,-1
 422 540 l 1,49,50
 442 536 442 536 489 536 c 1,51,-1
 660 540 l 1,0,-1
EndSplineSet
EndChar

StartChar: i
Encoding: 105 105 76
Width: 329
GlyphClass: 2
Flags: W
LayerCount: 2
Fore
SplineSet
336 540 m 1,0,-1
 330 469 l 1,1,-1
 285 465 l 1,2,3
 272 426 272 426 270 414 c 2,4,-1
 233 157 l 2,5,6
 226 115 226 115 226 65 c 1,7,-1
 263 61 l 1,8,-1
 251 -4 l 1,9,10
 184 0 184 0 85 0 c 1,11,-1
 18 -4 l 1,12,-1
 23 58 l 1,13,-1
 67 65 l 1,14,15
 80 105 80 105 84 134 c 2,16,-1
 119 366 l 2,17,18
 120 373 120 373 127 465 c 1,19,-1
 85 474 l 1,20,-1
 98 540 l 1,21,22
 119 536 119 536 165 536 c 1,23,-1
 336 540 l 1,0,-1
EndSplineSet
EndChar

StartChar: j
Encoding: 106 106 77
Width: 303
GlyphClass: 2
Flags: W
LayerCount: 2
Fore
SplineSet
314 469 m 1,0,-1
 269 465 l 1,1,2
 269 459 269 459 254 414 c 1,3,-1
 196 16 l 1,4,5
 189 -22 189 -22 21 -152 c 1,6,-1
 -25 -125 l 1,7,8
 48 -7 48 -7 50 8 c 2,9,-1
 103 366 l 2,10,11
 111 425 111 425 111 465 c 1,12,-1
 69 474 l 1,13,-1
 83 540 l 1,14,15
 103 536 103 536 149 536 c 1,16,-1
 320 540 l 1,17,-1
 314 469 l 1,0,-1
EndSplineSet
EndChar

StartChar: k
Encoding: 107 107 78
Width: 592
GlyphClass: 2
Flags: W
LayerCount: 2
Fore
SplineSet
568 -4 m 1,0,1
 488 0 488 0 418 0 c 128,-1,2
 348 0 348 0 334 -4 c 1,3,-1
 339 58 l 1,4,-1
 360 61 l 1,5,6
 354 72 354 72 343.5 95 c 128,-1,7
 333 118 333 118 329 125 c 2,8,-1
 246 268 l 1,9,-1
 383 439 l 1,10,-1
 404 472 l 1,11,-1
 391 474 l 1,12,-1
 405 540 l 1,13,14
 424 536 424 536 473 536 c 1,15,-1
 614 540 l 1,16,-1
 608 469 l 1,17,-1
 573 465 l 1,18,19
 541 438 541 438 520 415 c 2,20,-1
 405 281 l 1,21,22
 419 261 419 261 444 223.5 c 128,-1,23
 469 186 469 186 489.5 155.5 c 128,-1,24
 510 125 510 125 524 104 c 128,-1,25
 538 83 538 83 554 65 c 1,26,-1
 581 61 l 1,27,-1
 568 -4 l 1,0,1
329 540 m 1,28,-1
 323 469 l 1,29,-1
 282 465 l 1,30,31
 269 426 269 426 267 414 c 2,32,-1
 229 157 l 2,33,34
 223 122 223 122 223 65 c 1,35,-1
 255 61 l 1,36,-1
 242 -4 l 1,37,38
 178 0 178 0 80 0 c 1,39,-1
 18 -4 l 1,40,-1
 23 58 l 1,41,-1
 64 65 l 1,42,43
 77 105 77 105 81 134 c 2,44,-1
 115 366 l 1,45,46
 124 418 124 418 124 465 c 1,47,-1
 86 474 l 1,48,-1
 98 540 l 1,49,50
 113 536 113 536 161 536 c 1,51,-1
 329 540 l 1,28,-1
EndSplineSet
EndChar

StartChar: l
Encoding: 108 108 79
Width: 444
GlyphClass: 2
Flags: W
LayerCount: 2
Fore
SplineSet
223 78 m 1,0,-1
 284 78 l 2,1,2
 311 78 311 78 337 84 c 1,3,4
 354 114 354 114 359 127 c 128,-1,5
 364 140 364 140 369 158 c 1,6,-1
 427 155 l 1,7,-1
 395 11 l 1,8,-1
 379 -3 l 1,9,10
 309 0 309 0 294 0 c 2,11,-1
 81 0 l 1,12,-1
 14 -4 l 1,13,-1
 19 58 l 1,14,-1
 64 65 l 1,15,16
 77 105 77 105 81 134 c 2,17,-1
 115 366 l 1,18,19
 124 418 124 418 124 465 c 1,20,-1
 81 474 l 1,21,-1
 95 540 l 1,22,23
 115 536 115 536 162 536 c 1,24,-1
 333 540 l 1,25,-1
 326 469 l 1,26,-1
 282 465 l 1,27,28
 269 426 269 426 267 414 c 2,29,-1
 229 157 l 1,30,31
 223 109 223 109 223 78 c 1,0,-1
EndSplineSet
EndChar

StartChar: m
Encoding: 109 109 80
Width: 762
GlyphClass: 2
Flags: W
LayerCount: 2
Fore
SplineSet
659 100 m 1,0,-1
 662 62 l 1,1,-1
 705 57 l 1,2,-1
 693 -4 l 1,3,4
 637 0 637 0 543 0 c 1,5,-1
 473 -4 l 1,6,-1
 478 54 l 1,7,-1
 525 62 l 1,8,9
 533 102 533 102 536 123 c 2,10,-1
 566 367 l 1,11,-1
 389 0 l 1,12,-1
 295 0 l 1,13,-1
 234 367 l 1,14,-1
 186 123 l 2,15,16
 181 99 181 99 179 62 c 1,17,-1
 224 57 l 1,18,-1
 210 -4 l 1,19,20
 179 0 179 0 85 0 c 1,21,-1
 12 -4 l 1,22,-1
 17 54 l 1,23,-1
 64 62 l 1,24,25
 76 92 76 92 78 100 c 2,26,-1
 150 432 l 1,27,-1
 150 468 l 1,28,-1
 108 478 l 1,29,-1
 120 540 l 1,30,31
 143 536 143 536 185 535 c 1,32,-1
 328 535 l 1,33,-1
 341 521 l 1,34,35
 347 441 347 441 352 408 c 2,36,-1
 383 187 l 1,37,-1
 491 422 l 1,38,-1
 531 521 l 1,39,-1
 548 536 l 1,40,-1
 652 536 l 1,41,-1
 741 540 l 1,42,-1
 735 480 l 1,43,-1
 693 470 l 1,44,-1
 685 432 l 1,45,-1
 659 100 l 1,0,-1
EndSplineSet
EndChar

StartChar: n
Encoding: 110 110 81
Width: 625
GlyphClass: 2
Flags: W
LayerCount: 2
Fore
SplineSet
653 540 m 1,0,-1
 646 467 l 1,1,-1
 602 466 l 1,2,3
 595 444 595 444 591 418 c 2,4,-1
 530 3 l 1,5,-1
 395 3 l 1,6,-1
 228 299 l 1,7,-1
 206 157 l 2,8,9
 200 121 200 121 200 65 c 1,10,-1
 241 61 l 1,11,-1
 228 -4 l 1,12,13
 185 0 185 0 86 0 c 1,14,-1
 14 -4 l 1,15,-1
 19 58 l 1,16,-1
 64 65 l 1,17,18
 77 98 77 98 81 134 c 1,19,-1
 115 366 l 1,20,21
 124 418 124 418 124 465 c 1,22,-1
 83 474 l 1,23,-1
 96 540 l 1,24,25
 116 536 116 536 164 536 c 2,26,-1
 266 535 l 1,27,-1
 277 521 l 1,28,29
 314 428 314 428 322 411 c 1,30,-1
 437 202 l 1,31,-1
 462 370 l 2,32,33
 469 422 469 422 469 466 c 1,34,-1
 429 478 l 1,35,-1
 442 541 l 1,36,-1
 523 536 l 1,37,-1
 653 540 l 1,0,-1
EndSplineSet
EndChar

StartChar: o
Encoding: 111 111 82
Width: 594
GlyphClass: 2
Flags: W
LayerCount: 2
Fore
SplineSet
592 310 m 0,0,1
 592 164 592 164 499.5 74 c 128,-1,2
 407 -16 407 -16 270 -16 c 0,3,4
 160 -16 160 -16 92.5 49.5 c 128,-1,5
 25 115 25 115 25 225 c 0,6,7
 25 371 25 371 117.5 461.5 c 128,-1,8
 210 552 210 552 348 552 c 0,9,10
 458 552 458 552 525 486.5 c 128,-1,11
 592 421 592 421 592 310 c 0,0,1
189 201 m 0,12,13
 189 133 189 133 211.5 104.5 c 128,-1,14
 234 76 234 76 281 76 c 0,15,16
 361 76 361 76 394.5 139.5 c 128,-1,17
 428 203 428 203 428 334 c 0,18,19
 428 403 428 403 406 431.5 c 128,-1,20
 384 460 384 460 337 460 c 0,21,22
 256 460 256 460 222.5 396 c 128,-1,23
 189 332 189 332 189 201 c 0,12,13
EndSplineSet
EndChar

StartChar: p
Encoding: 112 112 83
Width: 487
GlyphClass: 2
Flags: W
LayerCount: 2
Fore
SplineSet
177 536 m 1,0,-1
 348 543 l 1,1,2
 420 543 420 543 461.5 504.5 c 128,-1,3
 503 466 503 466 503 398 c 0,4,5
 503 308 503 308 427.5 253 c 128,-1,6
 352 198 352 198 257 198 c 2,7,-1
 235 198 l 1,8,-1
 229 157 l 2,9,10
 223 122 223 122 223 65 c 1,11,-1
 269 61 l 1,12,-1
 257 -4 l 1,13,14
 180 0 180 0 81 0 c 1,15,-1
 14 -4 l 1,16,-1
 19 58 l 1,17,-1
 64 65 l 1,18,19
 77 105 77 105 81 134 c 2,20,-1
 115 366 l 1,21,22
 124 418 124 418 124 465 c 1,23,-1
 81 474 l 1,24,-1
 95 540 l 1,25,26
 115 536 115 536 162 536 c 2,27,-1
 177 536 l 1,0,-1
353 402 m 0,28,29
 353 437 353 437 337 452.5 c 128,-1,30
 321 468 321 468 282 468 c 2,31,-1
 276 468 l 1,32,33
 274 460 274 460 272 447 c 128,-1,34
 270 434 270 434 268.5 424.5 c 128,-1,35
 267 415 267 415 267 414 c 2,36,-1
 246 273 l 1,37,38
 295 277 295 277 324 311 c 128,-1,39
 353 345 353 345 353 402 c 0,28,29
EndSplineSet
EndChar

StartChar: q
Encoding: 113 113 84
Width: 597
GlyphClass: 2
Flags: W
LayerCount: 2
Fore
SplineSet
270 -16 m 0,0,1
 160 -16 160 -16 92.5 49.5 c 128,-1,2
 25 115 25 115 25 225 c 0,3,4
 25 371 25 371 117.5 461.5 c 128,-1,5
 210 552 210 552 348 552 c 0,6,7
 458 552 458 552 525 486.5 c 128,-1,8
 592 421 592 421 592 315.5 c 128,-1,9
 592 210 592 210 544.5 134 c 128,-1,10
 497 58 497 58 417 16 c 1,11,-1
 456 -13 l 1,12,-1
 566 -63 l 1,13,-1
 470 -170 l 1,14,-1
 278 -17 l 2,15,16
 276 -16 276 -16 270 -16 c 0,0,1
189 201 m 0,17,18
 189 132 189 132 211 104 c 128,-1,19
 233 76 233 76 280 76 c 0,20,21
 361 76 361 76 394.5 139.5 c 128,-1,22
 428 203 428 203 428 334 c 0,23,24
 428 403 428 403 406 431.5 c 128,-1,25
 384 460 384 460 337 460 c 0,26,27
 256 460 256 460 222.5 396 c 128,-1,28
 189 332 189 332 189 201 c 0,17,18
EndSplineSet
EndChar

StartChar: r
Encoding: 114 114 85
Width: 525
GlyphClass: 2
Flags: W
LayerCount: 2
Fore
SplineSet
190 536 m 2,0,-1
 353 543 l 1,1,2
 426 543 426 543 469 505 c 128,-1,3
 512 467 512 467 512 409 c 0,4,5
 512 301 512 301 402 239 c 1,6,7
 431 157 431 157 465 100 c 1,8,-1
 481 63 l 1,9,-1
 508 61 l 1,10,-1
 497 -4 l 1,11,12
 437 0 437 0 337 0 c 1,13,14
 321 70 321 70 314 88 c 2,15,-1
 272 201 l 1,16,-1
 256 201 l 2,17,18
 247 201 247 201 240 202 c 1,19,-1
 233 157 l 2,20,21
 226 116 226 116 226 65 c 1,22,-1
 267 61 l 1,23,-1
 253 -4 l 1,24,25
 185 0 185 0 86 0 c 1,26,-1
 14 -4 l 1,27,-1
 19 58 l 1,28,-1
 67 65 l 1,29,30
 83 112 83 112 84 134 c 1,31,-1
 121 366 l 2,32,33
 130 423 130 423 130 465 c 1,34,-1
 84 474 l 1,35,-1
 98 540 l 1,36,-1
 179 536 l 2,37,38
 184 536 184 536 190 536 c 2,0,-1
287 468 m 2,39,-1
 284 468 l 1,40,41
 273 415 273 415 272 414 c 2,42,-1
 251 278 l 1,43,44
 363 278 363 278 363 401 c 0,45,46
 363 436 363 436 345 452 c 128,-1,47
 327 468 327 468 287 468 c 2,39,-1
EndSplineSet
EndChar

StartChar: s
Encoding: 115 115 86
Width: 443
GlyphClass: 2
Flags: W
LayerCount: 2
Fore
SplineSet
120 182 m 1,0,-1
 111 124 l 2,1,2
 111 121 111 121 120 99 c 1,3,4
 145 77 145 77 181 77 c 128,-1,5
 217 77 217 77 239 91 c 128,-1,6
 261 105 261 105 261 131 c 128,-1,7
 261 157 261 157 240.5 175.5 c 128,-1,8
 220 194 220 194 190.5 208.5 c 128,-1,9
 161 223 161 223 131.5 240.5 c 128,-1,10
 102 258 102 258 81.5 290 c 128,-1,11
 61 322 61 322 61 366 c 0,12,13
 61 447 61 447 119.5 497 c 128,-1,14
 178 547 178 547 266 547 c 128,-1,15
 354 547 354 547 438 518 c 1,16,-1
 404 354 l 1,17,-1
 331 358 l 1,18,19
 341 424 341 424 341 426 c 2,20,-1
 335 443 l 1,21,22
 320 461 320 461 289.5 461 c 128,-1,23
 259 461 259 461 238.5 445.5 c 128,-1,24
 218 430 218 430 218 406.5 c 128,-1,25
 218 383 218 383 238.5 366 c 128,-1,26
 259 349 259 349 288.5 335.5 c 128,-1,27
 318 322 318 322 347.5 305 c 128,-1,28
 377 288 377 288 397.5 257.5 c 128,-1,29
 418 227 418 227 418 186 c 0,30,31
 418 99 418 99 352.5 44 c 128,-1,32
 287 -11 287 -11 192 -11 c 0,33,34
 147 -11 147 -11 103 -2.5 c 128,-1,35
 59 6 59 6 37 14 c 2,36,-1
 15 23 l 1,37,-1
 51 186 l 1,38,-1
 120 182 l 1,0,-1
EndSplineSet
EndChar

StartChar: t
Encoding: 116 116 87
Width: 489
GlyphClass: 2
Flags: W
LayerCount: 2
Fore
SplineSet
365 463 m 1,0,-1
 351 414 l 1,1,-1
 313 157 l 2,2,3
 307 116 307 116 307 65 c 1,4,-1
 343 61 l 1,5,-1
 331 -4 l 1,6,7
 264 0 264 0 166 0 c 1,8,-1
 98 -4 l 1,9,-1
 103 58 l 1,10,-1
 148 65 l 1,11,12
 160 100 160 100 166 134 c 1,13,-1
 199 366 l 1,14,15
 207 412 207 412 207 463 c 1,16,-1
 179 463 l 2,17,18
 149 463 149 463 119 459 c 1,19,20
 116 450 116 450 116 446 c 1,21,22
 108 428 108 428 101 391 c 1,23,-1
 42 395 l 1,24,-1
 67 530 l 1,25,-1
 83 543 l 1,26,27
 153 536 153 536 167 536 c 2,28,-1
 425 536 l 1,29,-1
 511 543 l 1,30,-1
 524 530 l 1,31,-1
 510 395 l 1,32,-1
 450 391 l 1,33,34
 452 414 452 414 452 427 c 128,-1,35
 452 440 452 440 451.5 446.5 c 128,-1,36
 451 453 451 453 452 459 c 1,37,38
 430 463 430 463 398 463 c 2,39,-1
 365 463 l 1,0,-1
EndSplineSet
EndChar

StartChar: u
Encoding: 117 117 88
Width: 613
GlyphClass: 2
Flags: W
LayerCount: 2
Fore
SplineSet
275 -11 m 128,-1,1
 164 -11 164 -11 114 47 c 0,2,3
 76 92 76 92 76 160 c 0,4,5
 76 181 76 181 79 204 c 2,6,-1
 103 368 l 2,7,8
 112 423 112 423 112 441 c 128,-1,9
 112 459 112 459 111 465 c 1,10,-1
 69 474 l 1,11,-1
 83 540 l 1,12,13
 103 536 103 536 150 536 c 1,14,-1
 324 540 l 1,15,-1
 318 469 l 1,16,-1
 273 465 l 1,17,18
 259 432 259 432 259 416 c 1,19,-1
 226 195 l 2,20,21
 225 186 225 186 225 178 c 0,22,23
 225 147 225 147 244.5 121.5 c 128,-1,24
 264 96 264 96 312 96 c 128,-1,25
 360 96 360 96 382.5 119.5 c 128,-1,26
 405 143 405 143 412 195 c 2,27,-1
 438 368 l 1,28,29
 446 429 446 429 446 465 c 1,30,-1
 404 474 l 1,31,-1
 418 540 l 1,32,33
 442 536 442 536 490 536 c 1,34,-1
 635 540 l 1,35,-1
 629 469 l 1,36,-1
 584 465 l 1,37,38
 571 422 571 422 571 416 c 2,39,-1
 539 204 l 2,40,41
 524 105 524 105 455 47 c 128,-1,0
 386 -11 386 -11 275 -11 c 128,-1,1
EndSplineSet
EndChar

StartChar: v
Encoding: 118 118 89
Width: 542
GlyphClass: 2
Flags: W
LayerCount: 2
Fore
SplineSet
184 0 m 1,0,-1
 97 447 l 1,1,-1
 88 475 l 1,2,-1
 46 482 l 1,3,-1
 59 542 l 1,4,5
 91 536 91 536 120 536 c 2,6,-1
 303 540 l 1,7,-1
 298 474 l 1,8,-1
 254 472 l 2,9,10
 253 472 253 472 248 455 c 1,11,-1
 281 181 l 1,12,-1
 406 453 l 1,13,-1
 412 472 l 1,14,-1
 372 482 l 1,15,-1
 384 542 l 1,16,17
 431 536 431 536 474 536 c 1,18,-1
 586 540 l 1,19,-1
 581 474 l 1,20,-1
 551 473 l 1,21,22
 515 426 515 426 509 413 c 2,23,-1
 295 0 l 1,24,-1
 184 0 l 1,0,-1
EndSplineSet
EndChar

StartChar: w
Encoding: 119 119 90
Width: 784
GlyphClass: 2
Flags: W
LayerCount: 2
Fore
SplineSet
818 474 m 1,0,-1
 788 473 l 1,1,2
 767 444 767 444 752 413 c 2,3,-1
 559 0 l 1,4,-1
 450 0 l 1,5,-1
 411 288 l 1,6,-1
 279 0 l 1,7,-1
 169 0 l 1,8,-1
 96 447 l 1,9,-1
 91 475 l 1,10,-1
 49 482 l 1,11,-1
 61 542 l 1,12,13
 94 536 94 536 123 536 c 2,14,-1
 306 540 l 1,15,-1
 300 474 l 1,16,-1
 257 472 l 1,17,18
 249 465 249 465 247 455 c 1,19,-1
 263 181 l 1,20,-1
 399 509 l 1,21,-1
 510 509 l 1,22,-1
 543 181 l 1,23,-1
 650 453 l 2,24,25
 655 466 655 466 649 472 c 1,26,-1
 608 482 l 1,27,-1
 621 542 l 1,28,29
 669 536 669 536 711 536 c 1,30,-1
 823 540 l 1,31,-1
 818 474 l 1,0,-1
EndSplineSet
EndChar

StartChar: x
Encoding: 120 120 91
Width: 520
GlyphClass: 2
Flags: W
LayerCount: 2
Fore
SplineSet
488 -5 m 1,0,1
 420 0 420 0 345 0 c 128,-1,2
 270 0 270 0 268 -2 c 1,3,-1
 275 59 l 1,4,-1
 290 60 l 1,5,6
 272 106 272 106 271 108 c 2,7,-1
 238 173 l 1,8,-1
 180 100 l 1,9,10
 168 88 168 88 153 61 c 1,11,-1
 176 61 l 1,12,-1
 162 -5 l 1,13,14
 112 0 112 0 45.5 0 c 128,-1,15
 -21 0 -21 0 -24 -3 c 1,16,-1
 -18 59 l 1,17,-1
 19 62 l 1,18,19
 76 117 76 117 82 125 c 2,20,-1
 191 256 l 1,21,-1
 74 477 l 1,22,-1
 47 482 l 1,23,-1
 60 541 l 1,24,25
 97 536 97 536 132 536 c 2,26,-1
 282 540 l 1,27,-1
 273 472 l 1,28,-1
 259 475 l 1,29,30
 271 439 271 439 281 422 c 1,31,-1
 299 376 l 1,32,-1
 347 439 l 1,33,34
 359 451 359 451 373 477 c 1,35,-1
 359 482 l 1,36,-1
 372 541 l 1,37,38
 412 536 412 536 455 536 c 1,39,-1
 554 540 l 1,40,-1
 547 472 l 1,41,-1
 499 470 l 1,42,43
 460 434 460 434 459 432 c 2,44,-1
 346 291 l 1,45,-1
 450 100 l 2,46,47
 453 96 453 96 461.5 83 c 128,-1,48
 470 70 470 70 476 63 c 1,49,-1
 501 61 l 1,50,-1
 488 -5 l 1,0,1
268 -2 m 1,51,-1
 268 -4 l 1,52,-1
 268 -2 l 1,51,-1
EndSplineSet
EndChar

StartChar: y
Encoding: 121 121 92
Width: 561
GlyphClass: 2
Flags: W
LayerCount: 2
Fore
SplineSet
605 474 m 1,0,-1
 565 473 l 1,1,2
 520 429 520 429 509 413 c 2,3,-1
 353 173 l 1,4,-1
 351 157 l 1,5,6
 345 121 345 121 345 65 c 1,7,-1
 383 61 l 1,8,-1
 370 -4 l 1,9,10
 303 0 303 0 204 0 c 1,11,-1
 137 -4 l 1,12,-1
 142 58 l 1,13,-1
 187 65 l 1,14,15
 187 67 187 67 194.5 96 c 128,-1,16
 202 125 202 125 204 134 c 2,17,-1
 212 190 l 1,18,-1
 107 447 l 2,19,20
 103 457 103 457 79 475 c 1,21,-1
 38 482 l 1,22,-1
 51 542 l 1,23,24
 82 536 82 536 111 536 c 2,25,-1
 294 540 l 1,26,-1
 288 474 l 1,27,-1
 260 472 l 1,28,-1
 258 455 l 1,29,-1
 314 291 l 1,30,-1
 418 453 l 1,31,-1
 414 472 l 1,32,-1
 396 482 l 1,33,-1
 409 542 l 1,34,35
 457 536 457 536 499 536 c 1,36,-1
 611 540 l 1,37,-1
 605 474 l 1,0,-1
EndSplineSet
EndChar

StartChar: z
Encoding: 122 122 93
Width: 489
GlyphClass: 2
Flags: W
LayerCount: 2
Fore
SplineSet
202 456 m 2,0,1
 172 456 172 456 142 452 c 1,2,-1
 131 433 l 1,3,4
 123 416 123 416 111 379 c 1,5,-1
 52 383 l 1,6,-1
 77 530 l 1,7,-1
 94 543 l 1,8,9
 165 536 165 536 179 536 c 2,10,-1
 484 536 l 1,11,-1
 482 465 l 1,12,-1
 387 340 l 1,13,-1
 261 170 l 1,14,-1
 205 80 l 1,15,-1
 302 80 l 2,16,17
 339 80 339 80 364 85 c 1,18,-1
 385 126 l 2,19,20
 386 129 386 129 392 142.5 c 128,-1,21
 398 156 398 156 400 164 c 1,22,-1
 455 160 l 1,23,-1
 424 11 l 1,24,-1
 405 -3 l 1,25,26
 335 0 335 0 320 0 c 2,27,-1
 14 0 l 1,28,-1
 15 70 l 1,29,30
 96 159 96 159 115 187 c 1,31,-1
 267 391 l 1,32,-1
 304 456 l 1,33,-1
 202 456 l 2,0,1
EndSplineSet
EndChar

StartChar: braceleft
Encoding: 123 123 94
Width: 289
GlyphClass: 2
Flags: W
LayerCount: 2
Fore
SplineSet
194 274 m 1,0,-1
 150 40 l 1,1,2
 145 5 145 5 145 -50 c 1,3,-1
 213 -59 l 1,4,-1
 201 -125 l 1,5,6
 102 -121 102 -121 33 -121 c 1,7,-1
 13 -92 l 1,8,-1
 93 258 l 1,9,10
 83 271 83 271 59.5 283.5 c 128,-1,11
 36 296 36 296 26 296 c 1,12,-1
 37 345 l 1,13,14
 45 345 45 345 71.5 357.5 c 128,-1,15
 98 370 98 370 112 382 c 1,16,-1
 134 733 l 1,17,-1
 162 762 l 1,18,-1
 330 766 l 1,19,-1
 324 700 l 1,20,-1
 254 691 l 1,21,22
 237 641 237 641 231 601 c 1,23,-1
 207 367 l 1,24,25
 178 344 178 344 143 330 c 1,26,-1
 132 325 l 1,27,-1
 131 316 l 1,28,29
 168 302 168 302 194 274 c 1,0,-1
EndSplineSet
EndChar

StartChar: bar
Encoding: 124 124 95
Width: 279
GlyphClass: 2
Flags: W
LayerCount: 2
Fore
SplineSet
122 -122 m 1,0,-1
 28 -113 l 1,1,-1
 156 760 l 1,2,-1
 250 752 l 1,3,-1
 122 -122 l 1,0,-1
EndSplineSet
EndChar

StartChar: braceright
Encoding: 125 125 96
Width: 289
GlyphClass: 2
Flags: W
LayerCount: 2
Fore
SplineSet
94 367 m 1,0,-1
 138 601 l 1,1,2
 143 638 143 638 143 691 c 1,3,-1
 75 700 l 1,4,-1
 87 766 l 1,5,6
 186 762 186 762 255 762 c 1,7,-1
 275 733 l 1,8,-1
 194 383 l 1,9,10
 205 370 205 370 228 357.5 c 128,-1,11
 251 345 251 345 262 345 c 1,12,-1
 251 296 l 1,13,14
 243 296 243 296 216 283.5 c 128,-1,15
 189 271 189 271 175 258 c 1,16,-1
 154 -92 l 1,17,-1
 126 -121 l 1,18,-1
 -41 -125 l 1,19,-1
 -35 -59 l 1,20,-1
 34 -50 l 1,21,22
 51 0 51 0 57 40 c 1,23,-1
 81 274 l 1,24,25
 110 297 110 297 145 312 c 1,26,-1
 156 316 l 1,27,-1
 157 325 l 1,28,29
 120 339 120 339 94 367 c 1,0,-1
EndSplineSet
EndChar

StartChar: asciitilde
Encoding: 126 126 97
Width: 604
GlyphClass: 2
Flags: W
LayerCount: 2
Fore
SplineSet
461 192 m 128,-1,1
 425 160 425 160 398.5 160 c 128,-1,2
 372 160 372 160 282.5 190 c 128,-1,3
 193 220 193 220 174 220 c 0,4,5
 140 220 140 220 105 184 c 1,6,-1
 93 171 l 1,7,-1
 45 216 l 1,8,9
 55 229 55 229 70.5 248.5 c 128,-1,10
 86 268 86 268 122 300 c 128,-1,11
 158 332 158 332 180 332 c 0,12,13
 217 332 217 332 304 302 c 128,-1,14
 391 272 391 272 410 272 c 0,15,16
 443 272 443 272 478 308 c 1,17,-1
 490 321 l 1,18,-1
 538 276 l 1,19,20
 528 263 528 263 512.5 243.5 c 128,-1,0
 497 224 497 224 461 192 c 128,-1,1
EndSplineSet
EndChar

StartChar: exclamdown
Encoding: 161 161 99
Width: 239
GlyphClass: 2
Flags: W
LayerCount: 2
Fore
SplineSet
68 252 m 1,0,-1
 86 268 l 1,1,2
 111 263 111 263 180 263 c 1,3,4
 174 227 174 227 170 197 c 2,5,-1
 117 -219 l 1,6,-1
 4 -228 l 1,7,-1
 -17 -200 l 1,8,9
 37 18 37 18 60 175 c 1,10,-1
 68 252 l 1,0,-1
105 477.5 m 128,-1,12
 128 508 128 508 159 508 c 128,-1,13
 190 508 190 508 205.5 489.5 c 128,-1,14
 221 471 221 471 221 435.5 c 128,-1,15
 221 400 221 400 198 369.5 c 128,-1,16
 175 339 175 339 144 339 c 128,-1,17
 113 339 113 339 97.5 358 c 128,-1,18
 82 377 82 377 82 412 c 128,-1,11
 82 447 82 447 105 477.5 c 128,-1,12
EndSplineSet
EndChar

StartChar: cent
Encoding: 162 162 100
Width: 505
GlyphClass: 2
Flags: W
LayerCount: 2
Fore
SplineSet
326 504 m 0,0,1
 255 504 255 504 223 437.5 c 128,-1,2
 191 371 191 371 191 274 c 0,3,4
 191 162 191 162 291 162 c 0,5,6
 322 162 322 162 352.5 170 c 128,-1,7
 383 178 383 178 398 186 c 2,8,-1
 413 194 l 1,9,-1
 439 136 l 1,10,11
 357 71 357 71 265 65 c 1,12,-1
 245 -39 l 1,13,-1
 181 -39 l 1,14,-1
 201 67 l 1,15,16
 31 88 31 88 31 265 c 0,17,18
 31 397 31 397 102 485.5 c 128,-1,19
 173 574 173 574 296 582 c 1,20,-1
 317 686 l 1,21,-1
 380 686 l 1,22,-1
 361 581 l 1,23,24
 423 575 423 575 475 563 c 2,25,-1
 492 559 l 1,26,-1
 451 385 l 1,27,-1
 376 385 l 1,28,-1
 385 439 l 1,29,-1
 387 478 l 1,30,31
 361 504 361 504 326 504 c 0,0,1
EndSplineSet
EndChar

StartChar: sterling
Encoding: 163 163 101
Width: 598
GlyphClass: 2
Flags: W
LayerCount: 2
Fore
SplineSet
239 614.5 m 128,-1,1
 311 667 311 667 411 667 c 128,-1,2
 511 667 511 667 617 645 c 1,3,-1
 563 453 l 1,4,-1
 504 456 l 1,5,-1
 507 574 l 1,6,7
 449 586 449 586 408.5 586 c 128,-1,8
 368 586 368 586 337.5 558.5 c 128,-1,9
 307 531 307 531 301 488 c 2,10,-1
 289 408 l 1,11,-1
 481 416 l 1,12,-1
 473 352 l 1,13,-1
 280 343 l 1,14,-1
 272 291 l 1,15,-1
 471 300 l 1,16,-1
 463 236 l 1,17,-1
 263 226 l 1,18,-1
 258 193 l 2,19,20
 250 142 250 142 250 87 c 1,21,-1
 372 87 l 2,22,23
 411 87 411 87 456 96 c 1,24,-1
 504 192 l 1,25,-1
 562 187 l 1,26,-1
 526 22 l 1,27,-1
 493 -7 l 1,28,29
 409 0 409 0 389 0 c 2,30,-1
 107 0 l 1,31,-1
 24 -3 l 1,32,-1
 20 62 l 1,33,-1
 87 73 l 1,34,35
 106 143 106 143 109 163 c 2,36,-1
 117 220 l 1,37,-1
 50 217 l 1,38,-1
 58 282 l 1,39,-1
 127 285 l 1,40,-1
 134 336 l 1,41,-1
 60 333 l 1,42,-1
 68 398 l 1,43,-1
 143 401 l 1,44,-1
 153 467 l 2,45,0
 167 562 167 562 239 614.5 c 128,-1,1
EndSplineSet
EndChar

StartChar: yen
Encoding: 165 165 102
Width: 587
GlyphClass: 2
Flags: W
LayerCount: 2
Fore
SplineSet
92 333 m 1,0,-1
 100 398 l 1,1,-1
 162 400 l 1,2,-1
 111 532 l 1,3,-1
 73 582 l 1,4,-1
 26 590 l 1,5,-1
 34 657 l 1,6,7
 83 652 83 652 118 652 c 2,8,-1
 315 657 l 1,9,-1
 305 588 l 1,10,-1
 258 579 l 1,11,12
 264 541 264 541 267 531 c 2,13,-1
 328 356 l 1,14,-1
 451 544 l 1,15,-1
 460 579 l 1,16,-1
 421 591 l 1,17,-1
 431 657 l 1,18,19
 493 652 493 652 537 652 c 1,20,-1
 676 657 l 1,21,-1
 665 588 l 1,22,-1
 613 581 l 1,23,24
 553 516 553 516 543 501 c 2,25,-1
 484 413 l 1,26,-1
 543 416 l 1,27,-1
 535 352 l 1,28,-1
 439 348 l 1,29,-1
 404 295 l 1,30,-1
 533 300 l 1,31,-1
 525 236 l 1,32,-1
 368 229 l 1,33,-1
 360 172 l 2,34,35
 359 165 359 165 352 73 c 1,36,-1
 409 67 l 1,37,-1
 398 -5 l 1,38,39
 329 0 329 0 222 0 c 1,40,-1
 125 -5 l 1,41,-1
 122 61 l 1,42,-1
 193 73 l 1,43,44
 194 76 194 76 198 93 c 128,-1,45
 202 110 202 110 206.5 127.5 c 128,-1,46
 211 145 211 145 212 153 c 2,47,-1
 221 223 l 1,48,-1
 82 217 l 1,49,-1
 90 282 l 1,50,-1
 207 287 l 1,51,-1
 187 337 l 1,52,-1
 92 333 l 1,0,-1
EndSplineSet
EndChar

StartChar: brokenbar
Encoding: 166 166 103
Width: 279
GlyphClass: 2
Flags: W
LayerCount: 2
Fore
SplineSet
197 392 m 1,0,-1
 103 400 l 1,1,-1
 156 760 l 1,2,-1
 250 752 l 1,3,-1
 197 392 l 1,0,-1
76 212 m 1,4,-1
 170 205 l 1,5,-1
 122 -122 l 1,6,-1
 28 -113 l 1,7,-1
 76 212 l 1,4,-1
EndSplineSet
EndChar

StartChar: section
Encoding: 167 167 104
Width: 441
GlyphClass: 2
Flags: W
LayerCount: 2
Fore
SplineSet
354 543 m 1,0,-1
 353 583 l 1,1,-1
 353 624 l 1,2,3
 311 646 311 646 267 646 c 0,4,5
 246 646 246 646 231.5 630 c 128,-1,6
 217 614 217 614 217 593 c 128,-1,7
 217 572 217 572 250.5 544 c 128,-1,8
 284 516 284 516 323.5 491 c 128,-1,9
 363 466 363 466 396.5 427 c 128,-1,10
 430 388 430 388 430 352 c 128,-1,11
 430 316 430 316 420 288.5 c 128,-1,12
 410 261 410 261 396 243 c 0,13,14
 369 208 369 208 344 193 c 2,15,-1
 334 187 l 1,16,-1
 302 215 l 1,17,18
 324 246 324 246 324 268.5 c 128,-1,19
 324 291 324 291 299 315.5 c 128,-1,20
 274 340 274 340 238.5 363 c 128,-1,21
 203 386 203 386 167 412.5 c 128,-1,22
 131 439 131 439 106 478.5 c 128,-1,23
 81 518 81 518 81 564 c 0,24,25
 81 637 81 637 138 678.5 c 128,-1,26
 195 720 195 720 277 720 c 0,27,28
 347 720 347 720 404 708 c 2,29,-1
 423 704 l 1,30,-1
 445 665 l 1,31,-1
 406 539 l 1,32,-1
 354 543 l 1,0,-1
153 387 m 1,33,34
 134 365 134 365 134 340 c 128,-1,35
 134 315 134 315 158 290 c 128,-1,36
 182 265 182 265 216.5 242 c 128,-1,37
 251 219 251 219 285.5 192.5 c 128,-1,38
 320 166 320 166 344 128 c 128,-1,39
 368 90 368 90 368 45 c 0,40,41
 368 -29 368 -29 301 -71.5 c 128,-1,42
 234 -114 234 -114 148 -114 c 0,43,44
 108 -114 108 -114 68 -105 c 128,-1,45
 28 -96 28 -96 8 -88 c 2,46,-1
 -13 -79 l 1,47,-1
 24 67 l 1,48,-1
 76 63 l 1,49,-1
 79 21 l 1,50,-1
 83 -21 l 1,51,52
 119 -40 119 -40 155 -40 c 128,-1,53
 191 -40 191 -40 210.5 -26 c 128,-1,54
 230 -12 230 -12 230 9.5 c 128,-1,55
 230 31 230 31 209 51.5 c 128,-1,56
 188 72 188 72 157.5 92.5 c 128,-1,57
 127 113 127 113 96.5 136.5 c 128,-1,58
 66 160 66 160 45 191 c 128,-1,59
 24 222 24 222 24 254 c 128,-1,60
 24 286 24 286 34.5 315.5 c 128,-1,61
 45 345 45 345 67 370.5 c 128,-1,62
 89 396 89 396 106 406 c 2,63,-1
 122 416 l 1,64,-1
 153 387 l 1,33,34
EndSplineSet
EndChar

StartChar: dieresis
Encoding: 168 168 105
Width: 349
GlyphClass: 2
Flags: W
LayerCount: 2
Fore
SplineSet
130 725 m 0,0,1
 186 725 186 725 186 668 c 0,2,3
 186 632 186 632 165.5 609 c 128,-1,4
 145 586 145 586 113.5 586 c 128,-1,5
 82 586 82 586 67 601.5 c 128,-1,6
 52 617 52 617 52 648 c 128,-1,7
 52 679 52 679 73 702 c 128,-1,8
 94 725 94 725 130 725 c 0,0,1
360 725 m 0,9,10
 416 725 416 725 416 668 c 0,11,12
 416 632 416 632 395.5 609 c 128,-1,13
 375 586 375 586 343.5 586 c 128,-1,14
 312 586 312 586 297.5 601.5 c 128,-1,15
 283 617 283 617 283 648 c 128,-1,16
 283 679 283 679 303.5 702 c 128,-1,17
 324 725 324 725 360 725 c 0,9,10
EndSplineSet
EndChar

StartChar: copyright
Encoding: 169 169 106
Width: 845
GlyphClass: 2
Flags: W
LayerCount: 2
Fore
SplineSet
681.5 509 m 128,-1,1
 788 403 788 403 788 252 c 128,-1,2
 788 101 788 101 680.5 -7 c 128,-1,3
 573 -115 573 -115 422.5 -115 c 128,-1,4
 272 -115 272 -115 164.5 -9 c 128,-1,5
 57 97 57 97 57 249 c 128,-1,6
 57 401 57 401 164.5 508 c 128,-1,7
 272 615 272 615 423.5 615 c 128,-1,0
 575 615 575 615 681.5 509 c 128,-1,1
631.5 41 m 128,-1,9
 718 128 718 128 718 249.5 c 128,-1,10
 718 371 718 371 631 458.5 c 128,-1,11
 544 546 544 546 422 546 c 128,-1,12
 300 546 300 546 213 460 c 128,-1,13
 126 374 126 374 126 251 c 128,-1,14
 126 128 126 128 213 41 c 128,-1,15
 300 -46 300 -46 422.5 -46 c 128,-1,8
 545 -46 545 -46 631.5 41 c 128,-1,9
435 44 m 0,16,17
 331 44 331 44 276.5 101 c 128,-1,18
 222 158 222 158 222 253.5 c 128,-1,19
 222 349 222 349 276.5 406 c 128,-1,20
 331 463 331 463 435 463 c 0,21,22
 478 463 478 463 565 443 c 1,23,-1
 556 334 l 1,24,-1
 507 336 l 1,25,-1
 504 375 l 2,26,27
 504 382 504 382 497 396 c 1,28,29
 461 402 461 402 435 402 c 0,30,31
 345 402 345 402 345 253.5 c 128,-1,32
 345 105 345 105 434 105 c 0,33,34
 468 105 468 105 505 113 c 1,35,36
 514 135 514 135 514 138 c 2,37,-1
 517 166 l 1,38,-1
 564 167 l 1,39,-1
 569 64 l 1,40,41
 482 44 482 44 435 44 c 0,16,17
EndSplineSet
EndChar

StartChar: ordfeminine
Encoding: 170 170 107
Width: 376
GlyphClass: 2
Flags: W
LayerCount: 2
Fore
SplineSet
220 782 m 0,0,1
 231 782 231 782 309 769 c 1,2,-1
 364 782 l 1,3,-1
 392 763 l 1,4,5
 356 624 356 624 350 506 c 1,6,-1
 401 502 l 1,7,-1
 398 465 l 1,8,-1
 260 438 l 1,9,-1
 236 450 l 1,10,11
 275 547 275 547 282 594 c 1,12,13
 251 524 251 524 207.5 480.5 c 128,-1,14
 164 437 164 437 116 437 c 0,15,16
 90 437 90 437 77.5 467 c 128,-1,17
 65 497 65 497 65 539 c 0,18,19
 65 626 65 626 113.5 704 c 128,-1,20
 162 782 162 782 220 782 c 0,0,1
179 529 m 0,21,22
 202 529 202 529 233.5 578 c 128,-1,23
 265 627 265 627 276 692 c 1,24,25
 233 708 233 708 208 708 c 0,26,27
 192 708 192 708 177.5 663.5 c 128,-1,28
 163 619 163 619 163 564 c 0,29,30
 163 529 163 529 179 529 c 0,21,22
EndSplineSet
EndChar

StartChar: guillemotleft
Encoding: 171 171 108
Width: 436
GlyphClass: 2
Flags: W
LayerCount: 2
Fore
SplineSet
382 55 m 1,0,-1
 309 10 l 1,1,-1
 190 242 l 1,2,-1
 376 474 l 1,3,-1
 437 429 l 1,4,-1
 304 242 l 1,5,-1
 382 55 l 1,0,-1
202 474 m 1,6,-1
 263 429 l 1,7,-1
 130 242 l 1,8,-1
 208 55 l 1,9,-1
 135 10 l 1,10,-1
 16 242 l 1,11,-1
 202 474 l 1,6,-1
EndSplineSet
EndChar

StartChar: logicalnot
Encoding: 172 172 109
Width: 585
GlyphClass: 2
Flags: W
LayerCount: 2
Fore
SplineSet
82 308 m 1,0,-1
 537 308 l 1,1,-1
 502 65 l 1,2,-1
 406 65 l 1,3,-1
 429 211 l 1,4,-1
 67 207 l 1,5,-1
 82 308 l 1,0,-1
EndSplineSet
EndChar

StartChar: registered
Encoding: 174 174 110
Width: 845
GlyphClass: 2
Flags: W
LayerCount: 2
Fore
SplineSet
681.5 509 m 128,-1,1
 788 403 788 403 788 252 c 128,-1,2
 788 101 788 101 680.5 -7 c 128,-1,3
 573 -115 573 -115 422.5 -115 c 128,-1,4
 272 -115 272 -115 164.5 -9 c 128,-1,5
 57 97 57 97 57 249 c 128,-1,6
 57 401 57 401 164.5 508 c 128,-1,7
 272 615 272 615 423.5 615 c 128,-1,0
 575 615 575 615 681.5 509 c 128,-1,1
631.5 41 m 128,-1,9
 718 128 718 128 718 249.5 c 128,-1,10
 718 371 718 371 631 458.5 c 128,-1,11
 544 546 544 546 422 546 c 128,-1,12
 300 546 300 546 213 460 c 128,-1,13
 126 374 126 374 126 251 c 128,-1,14
 126 128 126 128 213 41 c 128,-1,15
 300 -46 300 -46 422.5 -46 c 128,-1,8
 545 -46 545 -46 631.5 41 c 128,-1,9
312 465 m 1,16,-1
 438 471 l 1,17,18
 501 471 501 471 540.5 438 c 128,-1,19
 580 405 580 405 580 343.5 c 128,-1,20
 580 282 580 282 513 243 c 1,21,22
 537 195 537 195 556 168 c 128,-1,23
 575 141 575 141 577 138.5 c 128,-1,24
 579 136 579 136 585 126 c 2,25,-1
 594 111 l 1,26,-1
 616 108 l 1,27,-1
 614 61 l 1,28,29
 568 64 568 64 494 64 c 1,30,31
 473 116 473 116 466 130 c 2,32,-1
 420 217 l 1,33,-1
 394 217 l 1,34,-1
 394 180 l 2,35,36
 394 168 394 168 401 112 c 1,37,-1
 433 108 l 1,38,-1
 431 61 l 1,39,40
 379 64 379 64 305 64 c 1,41,-1
 250 61 l 1,42,-1
 247 106 l 1,43,-1
 283 112 l 1,44,45
 288 142 288 142 288 163 c 2,46,-1
 288 342 l 2,47,48
 288 353 288 353 283 413 c 1,49,-1
 248 420 l 1,50,-1
 251 468 l 1,51,52
 279 465 279 465 312 465 c 1,16,-1
402 417 m 2,53,-1
 397 417 l 1,54,55
 394 390 394 390 394 373 c 2,56,-1
 394 271 l 1,57,-1
 399 271 l 2,58,59
 438 271 438 271 453 290 c 128,-1,60
 468 309 468 309 468 346.5 c 128,-1,61
 468 384 468 384 453 400.5 c 128,-1,62
 438 417 438 417 402 417 c 2,53,-1
EndSplineSet
EndChar

StartChar: macron
Encoding: 175 175 111
Width: 349
GlyphClass: 2
Flags: W
LayerCount: 2
Fore
SplineSet
398 596 m 1,0,-1
 72 596 l 1,1,-1
 83 669 l 1,2,-1
 416 669 l 1,3,-1
 398 596 l 1,0,-1
EndSplineSet
EndChar

StartChar: degree
Encoding: 176 176 112
Width: 381
GlyphClass: 2
Flags: W
LayerCount: 2
Fore
SplineSet
383 543 m 0,0,1
 383 465 383 465 330.5 416.5 c 128,-1,2
 278 368 278 368 207 368 c 128,-1,3
 136 368 136 368 97 399.5 c 128,-1,4
 58 431 58 431 58 489 c 0,5,6
 58 567 58 567 110 616.5 c 128,-1,7
 162 666 162 666 232.5 666 c 128,-1,8
 303 666 303 666 343 633.5 c 128,-1,9
 383 601 383 601 383 543 c 0,0,1
233 605 m 0,10,11
 195 605 195 605 175 571.5 c 128,-1,12
 155 538 155 538 155 493 c 0,13,14
 155 429 155 429 208 429 c 0,15,16
 246 429 246 429 265.5 461 c 128,-1,17
 285 493 285 493 285 538 c 0,18,19
 285 605 285 605 233 605 c 0,10,11
EndSplineSet
EndChar

StartChar: plusminus
Encoding: 177 177 113
Width: 601
GlyphClass: 2
Flags: W
LayerCount: 2
Fore
SplineSet
350 303 m 1,0,-1
 328 137 l 1,1,-1
 228 137 l 1,2,-1
 252 302 l 1,3,-1
 75 300 l 1,4,-1
 90 400 l 1,5,-1
 266 400 l 1,6,-1
 290 562 l 1,7,-1
 385 562 l 1,8,-1
 363 400 l 1,9,-1
 545 400 l 1,10,-1
 531 305 l 1,11,-1
 350 303 l 1,0,-1
45 91 m 1,12,-1
 501 96 l 1,13,-1
 487 0 l 1,14,-1
 32 0 l 1,15,-1
 45 91 l 1,12,-1
EndSplineSet
EndChar

StartChar: two.sups
Encoding: 178 178 114
Width: 364
GlyphClass: 2
Flags: W
LayerCount: 2
Fore
SplineSet
115 858 m 1,0,1
 181 880 181 880 249 880 c 128,-1,2
 317 880 317 880 352.5 854.5 c 128,-1,3
 388 829 388 829 388 781.5 c 128,-1,4
 388 734 388 734 342.5 677.5 c 128,-1,5
 297 621 297 621 191 540 c 1,6,-1
 247 540 l 2,7,8
 281 540 281 540 307 547 c 1,9,10
 306 547 306 547 312.5 560.5 c 128,-1,11
 319 574 319 574 319 575 c 2,12,-1
 327 597 l 1,13,-1
 381 593 l 1,14,-1
 356 461 l 1,15,-1
 333 448 l 1,16,17
 277 450 277 450 266 450 c 2,18,-1
 49 450 l 1,19,-1
 50 518 l 1,20,21
 187 628 187 628 229 675.5 c 128,-1,22
 271 723 271 723 271 768 c 0,23,24
 271 811 271 811 225 811 c 0,25,26
 198 811 198 811 169 796 c 1,27,28
 164 785 164 785 161 773 c 2,29,-1
 156 745 l 1,30,-1
 101 742 l 1,31,-1
 115 858 l 1,0,1
EndSplineSet
EndChar

StartChar: three.sups
Encoding: 179 179 115
Width: 326
GlyphClass: 2
Flags: W
LayerCount: 2
Fore
SplineSet
223 880 m 0,0,1
 356 880 356 880 356 783 c 0,2,3
 356 708 356 708 270 665 c 1,4,5
 302 659 302 659 323 632.5 c 128,-1,6
 344 606 344 606 344 574 c 0,7,8
 344 502 344 502 257.5 446 c 128,-1,9
 171 390 171 390 48 382 c 1,10,-1
 41 435 l 1,11,12
 124 443 124 443 175 479.5 c 128,-1,13
 226 516 226 516 226 569.5 c 128,-1,14
 226 623 226 623 175 623 c 1,15,-1
 137 620 l 1,16,-1
 135 671 l 1,17,18
 189 681 189 681 219 710 c 128,-1,19
 249 739 249 739 249 779 c 128,-1,20
 249 819 249 819 210 819 c 0,21,22
 186 819 186 819 163 812 c 1,23,-1
 157 794 l 1,24,-1
 151 753 l 1,25,-1
 94 749 l 1,26,-1
 101 861 l 1,27,28
 157 880 157 880 223 880 c 0,0,1
EndSplineSet
EndChar

StartChar: acute
Encoding: 180 180 116
Width: 349
GlyphClass: 2
Flags: W
LayerCount: 2
Fore
SplineSet
313 755 m 1,0,-1
 359 679 l 1,1,2
 240 623 240 623 223 614 c 1,3,-1
 158 565 l 1,4,-1
 112 623 l 1,5,-1
 313 755 l 1,0,-1
EndSplineSet
EndChar

StartChar: mu
Encoding: 181 181 117
AltUni2: 0003bc.ffffffff.0
Width: 574
GlyphClass: 2
Flags: W
LayerCount: 2
Fore
SplineSet
178 154 m 0,0,1
 178 109 178 109 200 109 c 0,2,3
 255 109 255 109 318.5 240.5 c 128,-1,4
 382 372 382 372 397 492 c 1,5,-1
 511 510 l 1,6,-1
 545 492 l 1,7,8
 472 216 472 216 461 83 c 1,9,-1
 540 77 l 1,10,-1
 536 24 l 1,11,-1
 336 -18 l 1,12,-1
 302 0 l 1,13,14
 355 147 355 147 365 213 c 1,15,16
 271 0 271 0 131 -17 c 1,17,-1
 124 -60 l 1,18,19
 113 -121 113 -121 108 -210 c 1,20,-1
 97 -218 l 1,21,22
 60 -218 60 -218 22 -212 c 2,23,-1
 3 -209 l 2,24,25
 -17 -206 -17 -206 -25 -198 c 1,26,27
 -23 -189 -23 -189 -21 -180.5 c 128,-1,28
 -19 -172 -19 -172 -17 -161.5 c 128,-1,29
 -15 -151 -15 -151 -12.5 -139 c 128,-1,30
 -10 -127 -10 -127 -7.5 -114.5 c 128,-1,31
 -5 -102 -5 -102 22 26 c 0,32,33
 76 275 76 275 92 411 c 1,34,-1
 23 415 l 1,35,-1
 23 467 l 1,36,-1
 213 510 l 1,37,-1
 252 482 l 1,38,39
 178 224 178 224 178 154 c 0,0,1
EndSplineSet
EndChar

StartChar: paragraph
Encoding: 182 182 118
Width: 533
GlyphClass: 2
Flags: W
LayerCount: 2
Fore
SplineSet
393 705 m 1,0,-1
 566 712 l 1,1,-1
 559 642 l 1,2,-1
 498 629 l 1,3,4
 437 361 437 361 423 190 c 0,5,6
 415 90 415 90 392 57 c 0,7,8
 368 22 368 22 328 -18 c 128,-1,9
 288 -58 288 -58 255 -90.5 c 128,-1,10
 222 -123 222 -123 215 -130 c 1,11,-1
 168 -96 l 1,12,13
 200 -40 200 -40 232.5 32.5 c 128,-1,14
 265 105 265 105 268 119 c 0,15,16
 306 277 306 277 360 705 c 1,17,-1
 393 705 l 1,0,-1
273 715 m 0,18,19
 293 715 293 715 321 710 c 1,20,-1
 265 316 l 1,21,-1
 235 291 l 1,22,23
 144 291 144 291 84.5 337.5 c 128,-1,24
 25 384 25 384 25 470 c 0,25,26
 25 581 25 581 94 648 c 128,-1,27
 163 715 163 715 273 715 c 0,18,19
EndSplineSet
EndChar

StartChar: periodcentered
Encoding: 183 183 119
Width: 194
GlyphClass: 2
Flags: W
LayerCount: 2
Fore
SplineSet
58 420.5 m 128,-1,1
 81 451 81 451 112 451 c 128,-1,2
 143 451 143 451 158.5 432.5 c 128,-1,3
 174 414 174 414 174 379 c 128,-1,4
 174 344 174 344 151 313 c 128,-1,5
 128 282 128 282 97 282 c 128,-1,6
 66 282 66 282 50.5 301 c 128,-1,7
 35 320 35 320 35 355 c 128,-1,0
 35 390 35 390 58 420.5 c 128,-1,1
EndSplineSet
EndChar

StartChar: cedilla
Encoding: 184 184 120
Width: 349
GlyphClass: 2
Flags: W
LayerCount: 2
Fore
SplineSet
237 -134 m 0,0,1
 237 -184 237 -184 201.5 -209.5 c 128,-1,2
 166 -235 166 -235 111.5 -235 c 128,-1,3
 57 -235 57 -235 21 -217 c 1,4,-1
 46 -168 l 1,5,6
 79 -179 79 -179 98 -179 c 0,7,8
 149 -179 149 -179 149 -141 c 0,9,10
 149 -115 149 -115 112 -115 c 1,11,-1
 92 -116 l 1,12,-1
 83 -102 l 1,13,-1
 110 10 l 1,14,-1
 174 10 l 1,15,-1
 150 -59 l 1,16,17
 189 -60 189 -60 213 -80 c 128,-1,18
 237 -100 237 -100 237 -134 c 0,0,1
EndSplineSet
EndChar

StartChar: one.sups
Encoding: 185 185 121
Width: 288
GlyphClass: 2
Flags: W
LayerCount: 2
Fore
SplineSet
312 498 m 1,0,-1
 300 447 l 1,1,2
 248 450 248 450 169 450 c 1,3,-1
 85 447 l 1,4,-1
 89 495 l 1,5,-1
 147 502 l 1,6,7
 147 502 147 502 150 512 c 0,8,9
 159 547 159 547 161 559 c 2,10,-1
 191 759 l 1,11,-1
 123 737 l 1,12,-1
 104 780 l 1,13,14
 191 839 191 839 206 850 c 1,15,-1
 243 887 l 1,16,-1
 318 879 l 1,17,18
 294 759 294 759 290 727 c 2,19,-1
 268 579 l 2,20,21
 263 551 263 551 263 502 c 1,22,-1
 312 498 l 1,0,-1
EndSplineSet
EndChar

StartChar: ordmasculine
Encoding: 186 186 122
Width: 330
GlyphClass: 2
Flags: W
LayerCount: 2
Fore
SplineSet
257 782 m 0,0,1
 310 782 310 782 338.5 751 c 128,-1,2
 367 720 367 720 367 660 c 0,3,4
 367 567 367 567 310 502 c 128,-1,5
 253 437 253 437 172 437 c 0,6,7
 119 437 119 437 90.5 468 c 128,-1,8
 62 499 62 499 62 559 c 0,9,10
 62 652 62 652 119 717 c 128,-1,11
 176 782 176 782 257 782 c 0,0,1
234 718 m 0,12,13
 164 718 164 718 164 563 c 0,14,15
 164 502 164 502 196 502 c 0,16,17
 265 502 265 502 265 657 c 0,18,19
 265 685 265 685 256.5 701.5 c 128,-1,20
 248 718 248 718 234 718 c 0,12,13
EndSplineSet
EndChar

StartChar: guillemotright
Encoding: 187 187 123
Width: 436
GlyphClass: 2
Flags: W
LayerCount: 2
Fore
SplineSet
227 429 m 1,0,-1
 300 474 l 1,1,-1
 420 242 l 1,2,-1
 233 10 l 1,3,-1
 172 55 l 1,4,-1
 304 242 l 1,5,-1
 227 429 l 1,0,-1
53 429 m 1,6,-1
 126 474 l 1,7,-1
 246 242 l 1,8,-1
 59 10 l 1,9,-1
 -1 55 l 1,10,-1
 131 242 l 1,11,-1
 53 429 l 1,6,-1
EndSplineSet
EndChar

StartChar: onequarter
Encoding: 188 188 124
Width: 780
GlyphClass: 2
Flags: W
LayerCount: 2
Fore
SplineSet
282 348 m 1,0,-1
 270 297 l 1,1,2
 218 300 218 300 139 300 c 1,3,-1
 55 297 l 1,4,-1
 59 345 l 1,5,-1
 117 352 l 1,6,7
 117 352 117 352 120 362 c 0,8,9
 129 397 129 397 131 409 c 2,10,-1
 161 609 l 1,11,-1
 93 587 l 1,12,-1
 74 630 l 1,13,14
 161 689 161 689 176 700 c 1,15,-1
 213 737 l 1,16,-1
 288 729 l 1,17,18
 264 609 264 609 260 577 c 2,19,-1
 238 429 l 2,20,21
 233 401 233 401 233 352 c 1,22,-1
 282 348 l 1,0,-1
602 720 m 1,23,-1
 663 675 l 1,24,-1
 146 -49 l 1,25,-1
 84 -4 l 1,26,-1
 602 720 l 1,23,-1
670 480 m 1,27,-1
 731 421 l 1,28,29
 658 359 658 359 647 344 c 1,30,-1
 501 180 l 1,31,-1
 579 180 l 1,32,-1
 587 237 l 1,33,-1
 692 271 l 1,34,-1
 680 186 l 1,35,-1
 741 189 l 1,36,-1
 730 116 l 1,37,-1
 670 116 l 1,38,-1
 668 103 l 2,39,40
 667 96 667 96 666 51 c 1,41,-1
 705 48 l 1,42,-1
 696 -3 l 1,43,44
 636 0 636 0 561 0 c 1,45,-1
 489 -3 l 1,46,-1
 492 44 l 1,47,-1
 554 51 l 1,48,49
 556 60 556 60 558 67 c 128,-1,50
 560 74 560 74 562 82 c 128,-1,51
 564 90 564 90 566 97 c 0,52,53
 568 110 568 110 569 116 c 1,54,-1
 444 116 l 1,55,-1
 400 181 l 1,56,-1
 670 480 l 1,27,-1
EndSplineSet
EndChar

StartChar: onehalf
Encoding: 189 189 125
Width: 828
GlyphClass: 2
Flags: W
LayerCount: 2
Fore
SplineSet
282 348 m 1,0,-1
 270 297 l 1,1,2
 218 300 218 300 139 300 c 1,3,-1
 55 297 l 1,4,-1
 59 345 l 1,5,-1
 117 352 l 1,6,7
 117 352 117 352 120 362 c 0,8,9
 129 397 129 397 131 409 c 2,10,-1
 161 609 l 1,11,-1
 93 587 l 1,12,-1
 74 630 l 1,13,14
 161 689 161 689 176 700 c 1,15,-1
 213 737 l 1,16,-1
 288 729 l 1,17,18
 264 609 264 609 260 577 c 2,19,-1
 238 429 l 2,20,21
 233 401 233 401 233 352 c 1,22,-1
 282 348 l 1,0,-1
602 720 m 1,23,-1
 663 675 l 1,24,-1
 146 -49 l 1,25,-1
 84 -4 l 1,26,-1
 602 720 l 1,23,-1
509 408 m 1,27,28
 575 430 575 430 643 430 c 128,-1,29
 711 430 711 430 746.5 404.5 c 128,-1,30
 782 379 782 379 782 331.5 c 128,-1,31
 782 284 782 284 736.5 227.5 c 128,-1,32
 691 171 691 171 585 90 c 1,33,-1
 641 90 l 2,34,35
 675 90 675 90 701 97 c 1,36,37
 700 97 700 97 706.5 110.5 c 128,-1,38
 713 124 713 124 713 125 c 2,39,-1
 721 147 l 1,40,-1
 775 143 l 1,41,-1
 750 11 l 1,42,-1
 727 -2 l 1,43,44
 671 0 671 0 660 0 c 2,45,-1
 443 0 l 1,46,-1
 444 68 l 1,47,48
 581 178 581 178 623 225.5 c 128,-1,49
 665 273 665 273 665 318 c 0,50,51
 665 361 665 361 619 361 c 0,52,53
 592 361 592 361 563 346 c 1,54,55
 558 335 558 335 555 323 c 2,56,-1
 550 295 l 1,57,-1
 495 292 l 1,58,-1
 509 408 l 1,27,28
EndSplineSet
EndChar

StartChar: threequarters
Encoding: 190 190 126
Width: 768
GlyphClass: 2
Flags: W
LayerCount: 2
Fore
SplineSet
193 730 m 0,0,1
 326 730 326 730 326 633 c 0,2,3
 326 558 326 558 240 515 c 1,4,5
 272 509 272 509 293 482.5 c 128,-1,6
 314 456 314 456 314 424 c 0,7,8
 314 352 314 352 227.5 296 c 128,-1,9
 141 240 141 240 18 232 c 1,10,-1
 11 285 l 1,11,12
 94 293 94 293 145 329.5 c 128,-1,13
 196 366 196 366 196 419.5 c 128,-1,14
 196 473 196 473 145 473 c 1,15,-1
 107 470 l 1,16,-1
 105 521 l 1,17,18
 159 531 159 531 189 560 c 128,-1,19
 219 589 219 589 219 629 c 128,-1,20
 219 669 219 669 180 669 c 0,21,22
 156 669 156 669 133 662 c 1,23,-1
 127 644 l 1,24,-1
 121 603 l 1,25,-1
 64 599 l 1,26,-1
 71 711 l 1,27,28
 127 730 127 730 193 730 c 0,0,1
590 720 m 1,29,-1
 651 675 l 1,30,-1
 134 -49 l 1,31,-1
 72 -4 l 1,32,-1
 590 720 l 1,29,-1
658 480 m 1,33,-1
 719 421 l 1,34,35
 646 359 646 359 635 344 c 1,36,-1
 489 180 l 1,37,-1
 567 180 l 1,38,-1
 575 237 l 1,39,-1
 680 271 l 1,40,-1
 668 186 l 1,41,-1
 729 189 l 1,42,-1
 718 116 l 1,43,-1
 658 116 l 1,44,-1
 656 103 l 2,45,46
 655 96 655 96 654 51 c 1,47,-1
 693 48 l 1,48,-1
 684 -3 l 1,49,50
 624 0 624 0 549 0 c 1,51,-1
 477 -3 l 1,52,-1
 480 44 l 1,53,-1
 542 51 l 1,54,55
 544 60 544 60 546 67 c 128,-1,56
 548 74 548 74 550 82 c 128,-1,57
 552 90 552 90 554 97 c 0,58,59
 556 110 556 110 557 116 c 1,60,-1
 432 116 l 1,61,-1
 388 181 l 1,62,-1
 658 480 l 1,33,-1
EndSplineSet
EndChar

StartChar: questiondown
Encoding: 191 191 127
Width: 422
GlyphClass: 2
Flags: W
LayerCount: 2
Fore
SplineSet
143 50.5 m 128,-1,1
 111 1 111 1 111 -52 c 0,2,3
 111 -160 111 -160 194 -160 c 0,4,5
 233 -160 233 -160 259 -144 c 1,6,-1
 284 -52 l 1,7,-1
 340 -47 l 1,8,-1
 329 -195 l 1,9,10
 245 -234 245 -234 165 -234 c 128,-1,11
 85 -234 85 -234 36 -191.5 c 128,-1,12
 -13 -149 -13 -149 -13 -69 c 0,13,14
 -13 39 -13 39 51 104 c 128,-1,15
 115 169 115 169 214 172 c 1,16,-1
 222 252 l 1,17,-1
 241 268 l 1,18,19
 269 264 269 264 333 264 c 1,20,-1
 336 261 l 1,21,-1
 317 131 l 1,22,-1
 283 97 l 1,23,24
 259 100 259 100 228 100 c 0,25,0
 175 100 175 100 143 50.5 c 128,-1,1
260 477.5 m 128,-1,27
 283 508 283 508 314 508 c 128,-1,28
 345 508 345 508 360.5 489.5 c 128,-1,29
 376 471 376 471 376 435.5 c 128,-1,30
 376 400 376 400 353 369.5 c 128,-1,31
 330 339 330 339 299 339 c 128,-1,32
 268 339 268 339 252.5 358 c 128,-1,33
 237 377 237 377 237 412 c 128,-1,26
 237 447 237 447 260 477.5 c 128,-1,27
EndSplineSet
EndChar

StartChar: Agrave
Encoding: 192 192 128
Width: 647
GlyphClass: 2
Flags: W
LayerCount: 2
Fore
SplineSet
622 65 m 1,0,-1
 607 -5 l 1,1,2
 562 0 562 0 527 0 c 2,3,-1
 324 -5 l 1,4,-1
 330 68 l 1,5,-1
 388 77 l 1,6,-1
 392 129 l 1,7,-1
 386 179 l 1,8,-1
 205 179 l 1,9,-1
 180 115 l 1,10,-1
 169 77 l 1,11,-1
 223 65 l 1,12,-1
 208 -5 l 1,13,14
 151 0 151 0 104 0 c 1,15,-1
 -31 -5 l 1,16,-1
 -26 68 l 1,17,-1
 18 75 l 1,18,-1
 71 161 l 1,19,-1
 332 705 l 1,20,-1
 446 716 l 1,21,-1
 556 128 l 1,22,-1
 569 74 l 1,23,-1
 622 65 l 1,0,-1
347 498 m 1,24,-1
 244 261 l 1,25,-1
 373 263 l 1,26,-1
 347 498 l 1,24,-1
510 804 m 1,27,-1
 474 740 l 1,28,-1
 402 778 l 1,29,-1
 245 824 l 1,30,-1
 280 908 l 1,31,-1
 510 804 l 1,27,-1
EndSplineSet
EndChar

StartChar: Aacute
Encoding: 193 193 129
Width: 647
GlyphClass: 2
Flags: W
LayerCount: 2
Fore
SplineSet
622 65 m 1,0,-1
 607 -5 l 1,1,2
 562 0 562 0 527 0 c 2,3,-1
 324 -5 l 1,4,-1
 330 68 l 1,5,-1
 388 77 l 1,6,-1
 392 129 l 1,7,-1
 386 179 l 1,8,-1
 205 179 l 1,9,-1
 180 115 l 1,10,-1
 169 77 l 1,11,-1
 223 65 l 1,12,-1
 208 -5 l 1,13,14
 151 0 151 0 104 0 c 1,15,-1
 -31 -5 l 1,16,-1
 -26 68 l 1,17,-1
 18 75 l 1,18,-1
 71 161 l 1,19,-1
 332 705 l 1,20,-1
 446 716 l 1,21,-1
 556 128 l 1,22,-1
 569 74 l 1,23,-1
 622 65 l 1,0,-1
347 498 m 1,24,-1
 244 261 l 1,25,-1
 373 263 l 1,26,-1
 347 498 l 1,24,-1
512 898 m 1,27,-1
 547 814 l 1,28,29
 408 774 408 774 389 768 c 1,30,-1
 318 730 l 1,31,-1
 282 794 l 1,32,-1
 512 898 l 1,27,-1
EndSplineSet
EndChar

StartChar: Acircumflex
Encoding: 194 194 130
Width: 647
GlyphClass: 2
Flags: W
LayerCount: 2
Fore
SplineSet
622 65 m 1,0,-1
 607 -5 l 1,1,2
 562 0 562 0 527 0 c 2,3,-1
 324 -5 l 1,4,-1
 330 68 l 1,5,-1
 388 77 l 1,6,-1
 392 129 l 1,7,-1
 386 179 l 1,8,-1
 205 179 l 1,9,-1
 180 115 l 1,10,-1
 169 77 l 1,11,-1
 223 65 l 1,12,-1
 208 -5 l 1,13,14
 151 0 151 0 104 0 c 1,15,-1
 -31 -5 l 1,16,-1
 -26 68 l 1,17,-1
 18 75 l 1,18,-1
 71 161 l 1,19,-1
 332 705 l 1,20,-1
 446 716 l 1,21,-1
 556 128 l 1,22,-1
 569 74 l 1,23,-1
 622 65 l 1,0,-1
347 498 m 1,24,-1
 244 261 l 1,25,-1
 373 263 l 1,26,-1
 347 498 l 1,24,-1
409 903 m 1,27,-1
 580 770 l 1,28,-1
 525 712 l 1,29,-1
 468 760 l 1,30,-1
 393 802 l 1,31,-1
 305 760 l 1,32,-1
 232 712 l 1,33,-1
 196 770 l 1,34,-1
 409 903 l 1,27,-1
EndSplineSet
EndChar

StartChar: Atilde
Encoding: 195 195 131
Width: 647
GlyphClass: 2
Flags: W
LayerCount: 2
Fore
SplineSet
622 65 m 1,0,-1
 607 -5 l 1,1,2
 562 0 562 0 527 0 c 2,3,-1
 324 -5 l 1,4,-1
 330 68 l 1,5,-1
 388 77 l 1,6,-1
 392 129 l 1,7,-1
 386 179 l 1,8,-1
 205 179 l 1,9,-1
 180 115 l 1,10,-1
 169 77 l 1,11,-1
 223 65 l 1,12,-1
 208 -5 l 1,13,14
 151 0 151 0 104 0 c 1,15,-1
 -31 -5 l 1,16,-1
 -26 68 l 1,17,-1
 18 75 l 1,18,-1
 71 161 l 1,19,-1
 332 705 l 1,20,-1
 446 716 l 1,21,-1
 556 128 l 1,22,-1
 569 74 l 1,23,-1
 622 65 l 1,0,-1
347 498 m 1,24,-1
 244 261 l 1,25,-1
 373 263 l 1,26,-1
 347 498 l 1,24,-1
530 782 m 128,-1,28
 502 754 502 754 481 754 c 128,-1,29
 460 754 460 754 401 773 c 128,-1,30
 342 792 342 792 325 792 c 0,31,32
 298 792 298 792 271 760 c 1,33,-1
 262 750 l 1,34,-1
 219 778 l 1,35,36
 243 819 243 819 274.5 851 c 128,-1,37
 306 883 306 883 326.5 883 c 128,-1,38
 347 883 347 883 407 864 c 128,-1,39
 467 845 467 845 484 845 c 0,40,41
 511 845 511 845 535 874 c 1,42,-1
 543 883 l 1,43,-1
 588 855 l 1,44,45
 581 844 581 844 569.5 827 c 128,-1,27
 558 810 558 810 530 782 c 128,-1,28
EndSplineSet
EndChar

StartChar: Adieresis
Encoding: 196 196 132
Width: 647
GlyphClass: 2
Flags: W
LayerCount: 2
Fore
SplineSet
622 65 m 1,0,-1
 607 -5 l 1,1,2
 562 0 562 0 527 0 c 2,3,-1
 324 -5 l 1,4,-1
 330 68 l 1,5,-1
 388 77 l 1,6,-1
 392 129 l 1,7,-1
 386 179 l 1,8,-1
 205 179 l 1,9,-1
 180 115 l 1,10,-1
 169 77 l 1,11,-1
 223 65 l 1,12,-1
 208 -5 l 1,13,14
 151 0 151 0 104 0 c 1,15,-1
 -31 -5 l 1,16,-1
 -26 68 l 1,17,-1
 18 75 l 1,18,-1
 71 161 l 1,19,-1
 332 705 l 1,20,-1
 446 716 l 1,21,-1
 556 128 l 1,22,-1
 569 74 l 1,23,-1
 622 65 l 1,0,-1
347 498 m 1,24,-1
 244 261 l 1,25,-1
 373 263 l 1,26,-1
 347 498 l 1,24,-1
293 896 m 0,27,28
 349 896 349 896 349 839 c 0,29,30
 349 803 349 803 329 780 c 128,-1,31
 309 757 309 757 277 757 c 128,-1,32
 245 757 245 757 230.5 772.5 c 128,-1,33
 216 788 216 788 216 819 c 128,-1,34
 216 850 216 850 236.5 873 c 128,-1,35
 257 896 257 896 293 896 c 0,27,28
523 896 m 0,36,37
 579 896 579 896 579 839 c 0,38,39
 579 803 579 803 559 780 c 128,-1,40
 539 757 539 757 503 757 c 0,41,42
 447 757 447 757 447 814 c 0,43,44
 447 850 447 850 467 873 c 128,-1,45
 487 896 487 896 523 896 c 0,36,37
EndSplineSet
EndChar

StartChar: Aring
Encoding: 197 197 133
Width: 647
GlyphClass: 2
Flags: W
LayerCount: 2
Fore
SplineSet
622 65 m 1,0,-1
 607 -5 l 1,1,2
 562 0 562 0 527 0 c 2,3,-1
 324 -5 l 1,4,-1
 330 68 l 1,5,-1
 388 77 l 1,6,-1
 392 129 l 1,7,-1
 386 179 l 1,8,-1
 205 179 l 1,9,-1
 180 115 l 1,10,-1
 169 77 l 1,11,-1
 223 65 l 1,12,-1
 208 -5 l 1,13,14
 151 0 151 0 104 0 c 1,15,-1
 -31 -5 l 1,16,-1
 -26 68 l 1,17,-1
 18 75 l 1,18,-1
 71 161 l 1,19,-1
 332 705 l 1,20,-1
 446 716 l 1,21,-1
 556 128 l 1,22,-1
 569 74 l 1,23,-1
 622 65 l 1,0,-1
347 498 m 1,24,-1
 244 261 l 1,25,-1
 373 263 l 1,26,-1
 347 498 l 1,24,-1
336.5 895 m 128,-1,28
 366 926 366 926 413 926 c 0,29,30
 503 926 503 926 503 846 c 0,31,32
 503 796 503 796 473.5 765.5 c 128,-1,33
 444 735 444 735 397 735 c 128,-1,34
 350 735 350 735 328.5 756.5 c 128,-1,35
 307 778 307 778 307 821 c 128,-1,27
 307 864 307 864 336.5 895 c 128,-1,28
411 868 m 0,36,37
 392 868 392 868 383 854.5 c 128,-1,38
 374 841 374 841 374 823 c 0,39,40
 374 793 374 793 400 793 c 0,41,42
 418 793 418 793 427.5 806.5 c 128,-1,43
 437 820 437 820 437 837 c 0,44,45
 437 868 437 868 411 868 c 0,36,37
EndSplineSet
EndChar

StartChar: AE
Encoding: 198 198 134
Width: 885
GlyphClass: 2
Flags: W
LayerCount: 2
Fore
SplineSet
587 618 m 1,0,-1
 582 542 l 1,1,-1
 583 400 l 1,2,3
 591 398 591 398 608 398 c 2,4,-1
 686 398 l 2,5,6
 707 398 707 398 730 407 c 1,7,-1
 749 471 l 1,8,-1
 808 466 l 1,9,10
 798 406 798 406 795 386 c 2,11,-1
 780 259 l 1,12,-1
 717 253 l 1,13,-1
 717 313 l 1,14,15
 675 319 675 319 656 319 c 2,16,-1
 602 319 l 2,17,18
 589 319 589 319 583 317 c 1,19,-1
 584 193 l 1,20,-1
 588 87 l 1,21,-1
 686 87 l 2,22,23
 720 87 720 87 762 95 c 1,24,25
 794 149 794 149 806 195 c 1,26,-1
 874 190 l 1,27,-1
 833 14 l 1,28,-1
 812 -4 l 1,29,30
 722 0 722 0 702 0 c 2,31,-1
 439 0 l 1,32,-1
 360 -5 l 1,33,-1
 365 65 l 1,34,-1
 432 77 l 1,35,36
 439 117 439 117 438 132 c 1,37,-1
 438 184 l 1,38,-1
 228 184 l 1,39,-1
 180 115 l 2,40,41
 179 114 179 114 171 99 c 128,-1,42
 163 84 163 84 158 77 c 1,43,-1
 224 71 l 1,44,-1
 208 -5 l 1,45,46
 147 0 147 0 67 0 c 1,47,-1
 -31 -5 l 1,48,-1
 -26 65 l 1,49,-1
 25 74 l 1,50,51
 72 128 72 128 96 161 c 2,52,-1
 419 623 l 1,53,-1
 359 635 l 1,54,-1
 375 710 l 1,55,56
 425 705 425 705 471 705 c 2,57,-1
 792 705 l 1,58,-1
 903 715 l 1,59,-1
 920 697 l 1,60,-1
 902 536 l 1,61,-1
 832 531 l 1,62,63
 834 551 834 551 834 566 c 0,64,65
 834 588 834 588 826 613 c 1,66,67
 781 618 781 618 749 618 c 2,68,-1
 587 618 l 1,0,-1
284 266 m 1,69,-1
 438 268 l 1,70,-1
 437 479 l 1,71,-1
 436 487 l 1,72,-1
 284 266 l 1,69,-1
EndSplineSet
EndChar

StartChar: Ccedilla
Encoding: 199 199 135
Width: 620
GlyphClass: 2
Flags: W
LayerCount: 2
Fore
SplineSet
427 -134 m 0,0,1
 427 -184 427 -184 391.5 -209.5 c 128,-1,2
 356 -235 356 -235 301.5 -235 c 128,-1,3
 247 -235 247 -235 211 -217 c 1,4,-1
 236 -168 l 1,5,6
 269 -179 269 -179 288 -179 c 0,7,8
 339 -179 339 -179 339 -141 c 0,9,10
 339 -115 339 -115 302 -115 c 1,11,-1
 282 -116 l 1,12,-1
 273 -102 l 1,13,-1
 294 -13 l 1,14,15
 167 -3 167 -3 100.5 77 c 128,-1,16
 34 157 34 157 34 287 c 0,17,18
 34 478 34 478 139 599 c 128,-1,19
 244 720 244 720 433 720 c 0,20,21
 511 720 511 720 641 686 c 1,22,-1
 603 507 l 1,23,-1
 528 511 l 1,24,-1
 534 572 l 2,25,26
 535 581 535 581 528 613 c 1,27,28
 467 627 467 627 417 627 c 128,-1,29
 367 627 367 627 325 596 c 128,-1,30
 283 565 283 565 260 514 c 0,31,32
 213 412 213 412 213 277 c 0,33,34
 213 187 213 187 244 132.5 c 128,-1,35
 275 78 275 78 335.5 78 c 128,-1,36
 396 78 396 78 463 93 c 1,37,38
 464 95 464 95 470 106 c 0,39,40
 486 137 486 137 486 142 c 1,41,-1
 496 189 l 1,42,-1
 570 191 l 1,43,-1
 553 19 l 1,44,45
 434 -11 434 -11 355 -14 c 1,46,-1
 340 -59 l 1,47,48
 379 -60 379 -60 403 -80 c 128,-1,49
 427 -100 427 -100 427 -134 c 0,0,1
EndSplineSet
EndChar

StartChar: Egrave
Encoding: 200 200 136
Width: 600
GlyphClass: 2
Flags: W
LayerCount: 2
Fore
SplineSet
212 705 m 2,0,-1
 475 705 l 1,1,-1
 587 715 l 1,2,-1
 603 697 l 1,3,-1
 587 541 l 1,4,-1
 516 536 l 1,5,-1
 516 595 l 2,6,7
 516 607 516 607 510 619 c 1,8,9
 472 623 472 623 434 623 c 2,10,-1
 329 623 l 1,11,12
 328 617 328 617 321.5 584 c 128,-1,13
 315 551 315 551 314 542 c 2,14,-1
 293 399 l 1,15,16
 302 398 302 398 317 398 c 2,17,-1
 370 398 l 2,18,19
 390 398 390 398 413 407 c 1,20,-1
 431 471 l 1,21,-1
 491 466 l 1,22,23
 481 403 481 403 478 383 c 2,24,-1
 463 256 l 1,25,-1
 398 250 l 1,26,-1
 398 310 l 1,27,28
 358 316 358 316 338 316 c 2,29,-1
 310 316 l 2,30,31
 287 316 287 316 281 315 c 1,32,-1
 263 193 l 2,33,34
 256 152 256 152 250 87 c 1,35,-1
 370 87 l 2,36,37
 405 87 405 87 445 95 c 1,38,39
 459 116 459 116 470 138 c 1,40,41
 483 170 483 170 489 195 c 1,42,-1
 557 190 l 1,43,-1
 517 14 l 1,44,-1
 496 -4 l 1,45,46
 406 0 406 0 386 0 c 2,47,-1
 109 0 l 1,48,-1
 12 -5 l 1,49,-1
 17 65 l 1,50,-1
 82 77 l 1,51,52
 86 85 86 85 94 116.5 c 128,-1,53
 102 148 102 148 103 163 c 1,54,-1
 154 512 l 2,55,56
 163 567 163 567 163 590.5 c 128,-1,57
 163 614 163 614 162 623 c 1,58,-1
 101 635 l 1,59,-1
 117 710 l 1,60,61
 176 705 176 705 212 705 c 2,0,-1
482 804 m 1,62,-1
 446 740 l 1,63,-1
 374 778 l 1,64,-1
 217 824 l 1,65,-1
 252 908 l 1,66,-1
 482 804 l 1,62,-1
EndSplineSet
EndChar

StartChar: Eacute
Encoding: 201 201 137
Width: 600
GlyphClass: 2
Flags: W
LayerCount: 2
Fore
SplineSet
212 705 m 2,0,-1
 475 705 l 1,1,-1
 587 715 l 1,2,-1
 603 697 l 1,3,-1
 587 541 l 1,4,-1
 516 536 l 1,5,-1
 516 595 l 2,6,7
 516 607 516 607 510 619 c 1,8,9
 472 623 472 623 434 623 c 2,10,-1
 329 623 l 1,11,12
 328 617 328 617 321.5 584 c 128,-1,13
 315 551 315 551 314 542 c 2,14,-1
 293 399 l 1,15,16
 302 398 302 398 317 398 c 2,17,-1
 370 398 l 2,18,19
 390 398 390 398 413 407 c 1,20,-1
 431 471 l 1,21,-1
 491 466 l 1,22,23
 481 403 481 403 478 383 c 2,24,-1
 463 256 l 1,25,-1
 398 250 l 1,26,-1
 398 310 l 1,27,28
 358 316 358 316 338 316 c 2,29,-1
 310 316 l 2,30,31
 287 316 287 316 281 315 c 1,32,-1
 263 193 l 2,33,34
 256 152 256 152 250 87 c 1,35,-1
 370 87 l 2,36,37
 405 87 405 87 445 95 c 1,38,39
 459 116 459 116 470 138 c 1,40,41
 483 170 483 170 489 195 c 1,42,-1
 557 190 l 1,43,-1
 517 14 l 1,44,-1
 496 -4 l 1,45,46
 406 0 406 0 386 0 c 2,47,-1
 109 0 l 1,48,-1
 12 -5 l 1,49,-1
 17 65 l 1,50,-1
 82 77 l 1,51,52
 86 85 86 85 94 116.5 c 128,-1,53
 102 148 102 148 103 163 c 1,54,-1
 154 512 l 2,55,56
 163 567 163 567 163 590.5 c 128,-1,57
 163 614 163 614 162 623 c 1,58,-1
 101 635 l 1,59,-1
 117 710 l 1,60,61
 176 705 176 705 212 705 c 2,0,-1
474 898 m 1,62,-1
 509 814 l 1,63,64
 370 774 370 774 351 768 c 1,65,-1
 280 730 l 1,66,-1
 244 794 l 1,67,-1
 474 898 l 1,62,-1
EndSplineSet
EndChar

StartChar: Ecircumflex
Encoding: 202 202 138
Width: 600
GlyphClass: 2
Flags: W
LayerCount: 2
Fore
SplineSet
212 705 m 2,0,-1
 475 705 l 1,1,-1
 587 715 l 1,2,-1
 603 697 l 1,3,-1
 587 541 l 1,4,-1
 516 536 l 1,5,-1
 516 595 l 2,6,7
 516 607 516 607 510 619 c 1,8,9
 472 623 472 623 434 623 c 2,10,-1
 329 623 l 1,11,12
 328 617 328 617 321.5 584 c 128,-1,13
 315 551 315 551 314 542 c 2,14,-1
 293 399 l 1,15,16
 302 398 302 398 317 398 c 2,17,-1
 370 398 l 2,18,19
 390 398 390 398 413 407 c 1,20,-1
 431 471 l 1,21,-1
 491 466 l 1,22,23
 481 403 481 403 478 383 c 2,24,-1
 463 256 l 1,25,-1
 398 250 l 1,26,-1
 398 310 l 1,27,28
 358 316 358 316 338 316 c 2,29,-1
 310 316 l 2,30,31
 287 316 287 316 281 315 c 1,32,-1
 263 193 l 2,33,34
 256 152 256 152 250 87 c 1,35,-1
 370 87 l 2,36,37
 405 87 405 87 445 95 c 1,38,39
 459 116 459 116 470 138 c 1,40,41
 483 170 483 170 489 195 c 1,42,-1
 557 190 l 1,43,-1
 517 14 l 1,44,-1
 496 -4 l 1,45,46
 406 0 406 0 386 0 c 2,47,-1
 109 0 l 1,48,-1
 12 -5 l 1,49,-1
 17 65 l 1,50,-1
 82 77 l 1,51,52
 86 85 86 85 94 116.5 c 128,-1,53
 102 148 102 148 103 163 c 1,54,-1
 154 512 l 2,55,56
 163 567 163 567 163 590.5 c 128,-1,57
 163 614 163 614 162 623 c 1,58,-1
 101 635 l 1,59,-1
 117 710 l 1,60,61
 176 705 176 705 212 705 c 2,0,-1
381 943 m 1,62,-1
 552 810 l 1,63,-1
 497 752 l 1,64,-1
 440 800 l 1,65,-1
 365 842 l 1,66,-1
 277 800 l 1,67,-1
 204 752 l 1,68,-1
 168 810 l 1,69,-1
 381 943 l 1,62,-1
EndSplineSet
EndChar

StartChar: Edieresis
Encoding: 203 203 139
Width: 600
GlyphClass: 2
Flags: W
LayerCount: 2
Fore
SplineSet
212 705 m 2,0,-1
 475 705 l 1,1,-1
 587 715 l 1,2,-1
 603 697 l 1,3,-1
 587 541 l 1,4,-1
 516 536 l 1,5,-1
 516 595 l 2,6,7
 516 607 516 607 510 619 c 1,8,9
 472 623 472 623 434 623 c 2,10,-1
 329 623 l 1,11,12
 328 617 328 617 321.5 584 c 128,-1,13
 315 551 315 551 314 542 c 2,14,-1
 293 399 l 1,15,16
 302 398 302 398 317 398 c 2,17,-1
 370 398 l 2,18,19
 390 398 390 398 413 407 c 1,20,-1
 431 471 l 1,21,-1
 491 466 l 1,22,23
 481 403 481 403 478 383 c 2,24,-1
 463 256 l 1,25,-1
 398 250 l 1,26,-1
 398 310 l 1,27,28
 358 316 358 316 338 316 c 2,29,-1
 310 316 l 2,30,31
 287 316 287 316 281 315 c 1,32,-1
 263 193 l 2,33,34
 256 152 256 152 250 87 c 1,35,-1
 370 87 l 2,36,37
 405 87 405 87 445 95 c 1,38,39
 459 116 459 116 470 138 c 1,40,41
 483 170 483 170 489 195 c 1,42,-1
 557 190 l 1,43,-1
 517 14 l 1,44,-1
 496 -4 l 1,45,46
 406 0 406 0 386 0 c 2,47,-1
 109 0 l 1,48,-1
 12 -5 l 1,49,-1
 17 65 l 1,50,-1
 82 77 l 1,51,52
 86 85 86 85 94 116.5 c 128,-1,53
 102 148 102 148 103 163 c 1,54,-1
 154 512 l 2,55,56
 163 567 163 567 163 590.5 c 128,-1,57
 163 614 163 614 162 623 c 1,58,-1
 101 635 l 1,59,-1
 117 710 l 1,60,61
 176 705 176 705 212 705 c 2,0,-1
265 896 m 0,62,63
 321 896 321 896 321 839 c 0,64,65
 321 803 321 803 301 780 c 128,-1,66
 281 757 281 757 249 757 c 128,-1,67
 217 757 217 757 202.5 772.5 c 128,-1,68
 188 788 188 788 188 819 c 128,-1,69
 188 850 188 850 208.5 873 c 128,-1,70
 229 896 229 896 265 896 c 0,62,63
495 896 m 0,71,72
 551 896 551 896 551 839 c 0,73,74
 551 803 551 803 531 780 c 128,-1,75
 511 757 511 757 475 757 c 0,76,77
 419 757 419 757 419 814 c 0,78,79
 419 850 419 850 439 873 c 128,-1,80
 459 896 459 896 495 896 c 0,71,72
EndSplineSet
EndChar

StartChar: Igrave
Encoding: 204 204 140
Width: 396
GlyphClass: 2
Flags: W
LayerCount: 2
Fore
SplineSet
410 710 m 1,0,-1
 403 629 l 1,1,-1
 339 623 l 1,2,3
 323 575 323 575 318 542 c 2,4,-1
 268 193 l 1,5,6
 259 144 259 144 259 77 c 1,7,-1
 320 71 l 1,8,-1
 304 -5 l 1,9,10
 225 0 225 0 113 0 c 1,11,-1
 17 -5 l 1,12,-1
 22 65 l 1,13,-1
 87 77 l 1,14,15
 87 79 87 79 96.5 115 c 128,-1,16
 106 151 106 151 108 163 c 2,17,-1
 159 512 l 2,18,19
 161 526 161 526 167 623 c 1,20,-1
 106 635 l 1,21,-1
 122 710 l 1,22,23
 170 705 170 705 217 705 c 1,24,-1
 410 710 l 1,0,-1
383 804 m 1,25,-1
 347 740 l 1,26,-1
 275 778 l 1,27,-1
 118 824 l 1,28,-1
 153 908 l 1,29,-1
 383 804 l 1,25,-1
EndSplineSet
EndChar

StartChar: Iacute
Encoding: 205 205 141
Width: 396
GlyphClass: 2
Flags: W
LayerCount: 2
Fore
SplineSet
410 710 m 1,0,-1
 403 629 l 1,1,-1
 339 623 l 1,2,3
 323 575 323 575 318 542 c 2,4,-1
 268 193 l 1,5,6
 259 144 259 144 259 77 c 1,7,-1
 320 71 l 1,8,-1
 304 -5 l 1,9,10
 225 0 225 0 113 0 c 1,11,-1
 17 -5 l 1,12,-1
 22 65 l 1,13,-1
 87 77 l 1,14,15
 87 79 87 79 96.5 115 c 128,-1,16
 106 151 106 151 108 163 c 2,17,-1
 159 512 l 2,18,19
 161 526 161 526 167 623 c 1,20,-1
 106 635 l 1,21,-1
 122 710 l 1,22,23
 170 705 170 705 217 705 c 1,24,-1
 410 710 l 1,0,-1
392 898 m 1,25,-1
 427 814 l 1,26,27
 288 774 288 774 269 768 c 1,28,-1
 198 730 l 1,29,-1
 162 794 l 1,30,-1
 392 898 l 1,25,-1
EndSplineSet
EndChar

StartChar: Icircumflex
Encoding: 206 206 142
Width: 396
GlyphClass: 2
Flags: W
LayerCount: 2
Fore
SplineSet
410 710 m 1,0,-1
 403 629 l 1,1,-1
 339 623 l 1,2,3
 323 575 323 575 318 542 c 2,4,-1
 268 193 l 1,5,6
 259 144 259 144 259 77 c 1,7,-1
 320 71 l 1,8,-1
 304 -5 l 1,9,10
 225 0 225 0 113 0 c 1,11,-1
 17 -5 l 1,12,-1
 22 65 l 1,13,-1
 87 77 l 1,14,15
 87 79 87 79 96.5 115 c 128,-1,16
 106 151 106 151 108 163 c 2,17,-1
 159 512 l 2,18,19
 161 526 161 526 167 623 c 1,20,-1
 106 635 l 1,21,-1
 122 710 l 1,22,23
 170 705 170 705 217 705 c 1,24,-1
 410 710 l 1,0,-1
296 933 m 1,25,-1
 467 800 l 1,26,-1
 412 742 l 1,27,-1
 355 790 l 1,28,-1
 280 832 l 1,29,-1
 192 790 l 1,30,-1
 119 742 l 1,31,-1
 83 800 l 1,32,-1
 296 933 l 1,25,-1
EndSplineSet
EndChar

StartChar: Idieresis
Encoding: 207 207 143
Width: 396
GlyphClass: 2
Flags: W
LayerCount: 2
Fore
SplineSet
207 896 m 0,0,1
 261 896 261 896 261 839 c 0,2,3
 261 803 261 803 241.5 780 c 128,-1,4
 222 757 222 757 191.5 757 c 128,-1,5
 161 757 161 757 146.5 772.5 c 128,-1,6
 132 788 132 788 132 818.5 c 128,-1,7
 132 849 132 849 152.5 872.5 c 128,-1,8
 173 896 173 896 207 896 c 0,0,1
376 896 m 0,9,10
 430 896 430 896 430 839 c 0,11,12
 430 803 430 803 410.5 780 c 128,-1,13
 391 757 391 757 360.5 757 c 128,-1,14
 330 757 330 757 316 772.5 c 128,-1,15
 302 788 302 788 302 819 c 128,-1,16
 302 850 302 850 321.5 873 c 128,-1,17
 341 896 341 896 376 896 c 0,9,10
410 710 m 1,18,-1
 403 629 l 1,19,-1
 339 623 l 1,20,21
 323 575 323 575 318 542 c 2,22,-1
 268 193 l 1,23,24
 259 144 259 144 259 77 c 1,25,-1
 320 71 l 1,26,-1
 304 -5 l 1,27,28
 225 0 225 0 113 0 c 1,29,-1
 17 -5 l 1,30,-1
 22 65 l 1,31,-1
 87 77 l 1,32,33
 87 79 87 79 96.5 115 c 128,-1,34
 106 151 106 151 108 163 c 2,35,-1
 159 512 l 2,36,37
 161 526 161 526 167 623 c 1,38,-1
 106 635 l 1,39,-1
 122 710 l 1,40,41
 170 705 170 705 217 705 c 1,42,-1
 410 710 l 1,18,-1
EndSplineSet
EndChar

StartChar: Eth
Encoding: 208 208 144
Width: 718
GlyphClass: 2
Flags: W
LayerCount: 2
Fore
SplineSet
317 -6 m 1,0,-1
 108 0 l 1,1,-1
 12 -5 l 1,2,-1
 17 65 l 1,3,-1
 82 77 l 1,4,5
 101 143 101 143 103 163 c 2,6,-1
 126 322 l 1,7,-1
 53 322 l 1,8,-1
 63 395 l 1,9,-1
 137 395 l 1,10,-1
 154 512 l 1,11,12
 162 556 162 556 162 606 c 2,13,-1
 162 623 l 1,14,-1
 101 635 l 1,15,-1
 117 710 l 1,16,17
 167 705 167 705 214 705 c 1,18,-1
 416 715 l 1,19,20
 561 715 561 715 637.5 633.5 c 128,-1,21
 714 552 714 552 714 415 c 0,22,23
 714 229 714 229 610 111.5 c 128,-1,24
 506 -6 506 -6 317 -6 c 1,0,-1
393 632 m 0,25,26
 375 632 375 632 329 624 c 0,27,28
 329 623 329 623 322 587.5 c 128,-1,29
 315 552 315 552 314 542 c 2,30,-1
 292 395 l 1,31,-1
 375 395 l 1,32,-1
 359 322 l 1,33,-1
 282 322 l 1,34,-1
 263 193 l 1,35,36
 255 146 255 146 250 80 c 1,37,38
 277 77 277 77 310 77 c 0,39,40
 377 77 377 77 426 108 c 128,-1,41
 475 139 475 139 500 192 c 0,42,43
 548 292 548 292 548 423 c 0,44,45
 548 517 548 517 511 574.5 c 128,-1,46
 474 632 474 632 393 632 c 0,25,26
EndSplineSet
EndChar

StartChar: Ntilde
Encoding: 209 209 145
Width: 781
GlyphClass: 2
Flags: W
LayerCount: 2
Fore
SplineSet
213 705 m 2,0,-1
 316 705 l 1,1,-1
 331 685 l 1,2,3
 383 559 383 559 394 537 c 2,4,-1
 560 230 l 1,5,-1
 601 512 l 2,6,7
 608 564 608 564 608 623 c 1,8,-1
 548 635 l 1,9,-1
 564 710 l 1,10,-1
 661 705 l 1,11,-1
 824 710 l 1,12,-1
 817 629 l 1,13,-1
 753 623 l 1,14,15
 739 580 739 580 733 542 c 2,16,-1
 654 0 l 1,17,-1
 517 0 l 1,18,-1
 273 450 l 1,19,-1
 235 193 l 2,20,21
 227 134 227 134 227 77 c 1,22,-1
 288 71 l 1,23,-1
 272 -5 l 1,24,25
 221 0 221 0 109 0 c 1,26,-1
 12 -5 l 1,27,-1
 17 65 l 1,28,-1
 82 77 l 1,29,30
 99 124 99 124 103 163 c 1,31,-1
 154 512 l 2,32,33
 162 562 162 562 162 623 c 1,34,-1
 102 635 l 1,35,-1
 117 710 l 1,36,37
 165 705 165 705 213 705 c 2,0,-1
605 782 m 128,-1,39
 577 754 577 754 556 754 c 128,-1,40
 535 754 535 754 476 773 c 128,-1,41
 417 792 417 792 400 792 c 0,42,43
 373 792 373 792 346 760 c 1,44,-1
 337 750 l 1,45,-1
 294 778 l 1,46,47
 318 819 318 819 349.5 851 c 128,-1,48
 381 883 381 883 401.5 883 c 128,-1,49
 422 883 422 883 482 864 c 128,-1,50
 542 845 542 845 558 845 c 0,51,52
 586 845 586 845 610 874 c 1,53,-1
 618 883 l 1,54,-1
 663 855 l 1,55,56
 656 844 656 844 644.5 827 c 128,-1,38
 633 810 633 810 605 782 c 128,-1,39
EndSplineSet
EndChar

StartChar: Ograve
Encoding: 210 210 146
Width: 747
GlyphClass: 2
Flags: W
LayerCount: 2
Fore
SplineSet
743 412 m 0,0,1
 743 221 743 221 629.5 101 c 128,-1,2
 516 -19 516 -19 338 -19 c 0,3,4
 198 -19 198 -19 116.5 65.5 c 128,-1,5
 35 150 35 150 35 292 c 0,6,7
 35 483 35 483 148.5 603.5 c 128,-1,8
 262 724 262 724 440 724 c 0,9,10
 580 724 580 724 661.5 639.5 c 128,-1,11
 743 555 743 555 743 412 c 0,0,1
212 271 m 0,12,13
 212 78 212 78 349 78 c 0,14,15
 460 78 460 78 512.5 172 c 128,-1,16
 565 266 565 266 565 433 c 0,17,18
 565 627 565 627 429 627 c 0,19,20
 317 627 317 627 264.5 532.5 c 128,-1,21
 212 438 212 438 212 271 c 0,12,13
548 804 m 1,22,-1
 512 740 l 1,23,-1
 440 778 l 1,24,-1
 283 824 l 1,25,-1
 318 908 l 1,26,-1
 548 804 l 1,22,-1
EndSplineSet
EndChar

StartChar: Oacute
Encoding: 211 211 147
Width: 747
GlyphClass: 2
Flags: W
LayerCount: 2
Fore
SplineSet
743 412 m 0,0,1
 743 221 743 221 629.5 101 c 128,-1,2
 516 -19 516 -19 338 -19 c 0,3,4
 198 -19 198 -19 116.5 65.5 c 128,-1,5
 35 150 35 150 35 292 c 0,6,7
 35 483 35 483 148.5 603.5 c 128,-1,8
 262 724 262 724 440 724 c 0,9,10
 580 724 580 724 661.5 639.5 c 128,-1,11
 743 555 743 555 743 412 c 0,0,1
212 271 m 0,12,13
 212 78 212 78 349 78 c 0,14,15
 460 78 460 78 512.5 172 c 128,-1,16
 565 266 565 266 565 433 c 0,17,18
 565 627 565 627 429 627 c 0,19,20
 317 627 317 627 264.5 532.5 c 128,-1,21
 212 438 212 438 212 271 c 0,12,13
549 908 m 1,22,-1
 584 824 l 1,23,24
 445 784 445 784 426 778 c 1,25,-1
 355 740 l 1,26,-1
 319 804 l 1,27,-1
 549 908 l 1,22,-1
EndSplineSet
EndChar

StartChar: Ocircumflex
Encoding: 212 212 148
Width: 747
GlyphClass: 2
Flags: W
LayerCount: 2
Fore
SplineSet
743 412 m 0,0,1
 743 221 743 221 629.5 101 c 128,-1,2
 516 -19 516 -19 338 -19 c 0,3,4
 198 -19 198 -19 116.5 65.5 c 128,-1,5
 35 150 35 150 35 292 c 0,6,7
 35 483 35 483 148.5 603.5 c 128,-1,8
 262 724 262 724 440 724 c 0,9,10
 580 724 580 724 661.5 639.5 c 128,-1,11
 743 555 743 555 743 412 c 0,0,1
212 271 m 0,12,13
 212 78 212 78 349 78 c 0,14,15
 460 78 460 78 512.5 172 c 128,-1,16
 565 266 565 266 565 433 c 0,17,18
 565 627 565 627 429 627 c 0,19,20
 317 627 317 627 264.5 532.5 c 128,-1,21
 212 438 212 438 212 271 c 0,12,13
457 933 m 1,22,-1
 628 800 l 1,23,-1
 573 742 l 1,24,-1
 516 790 l 1,25,-1
 441 832 l 1,26,-1
 353 790 l 1,27,-1
 280 742 l 1,28,-1
 244 800 l 1,29,-1
 457 933 l 1,22,-1
EndSplineSet
EndChar

StartChar: Otilde
Encoding: 213 213 149
Width: 747
GlyphClass: 2
Flags: W
LayerCount: 2
Fore
SplineSet
743 412 m 0,0,1
 743 221 743 221 629.5 101 c 128,-1,2
 516 -19 516 -19 338 -19 c 0,3,4
 198 -19 198 -19 116.5 65.5 c 128,-1,5
 35 150 35 150 35 292 c 0,6,7
 35 483 35 483 148.5 603.5 c 128,-1,8
 262 724 262 724 440 724 c 0,9,10
 580 724 580 724 661.5 639.5 c 128,-1,11
 743 555 743 555 743 412 c 0,0,1
212 271 m 0,12,13
 212 78 212 78 349 78 c 0,14,15
 460 78 460 78 512.5 172 c 128,-1,16
 565 266 565 266 565 433 c 0,17,18
 565 627 565 627 429 627 c 0,19,20
 317 627 317 627 264.5 532.5 c 128,-1,21
 212 438 212 438 212 271 c 0,12,13
567 782 m 128,-1,23
 539 754 539 754 518 754 c 128,-1,24
 497 754 497 754 438 773 c 128,-1,25
 379 792 379 792 362 792 c 0,26,27
 335 792 335 792 308 760 c 1,28,-1
 299 750 l 1,29,-1
 256 778 l 1,30,31
 280 819 280 819 311.5 851 c 128,-1,32
 343 883 343 883 363.5 883 c 128,-1,33
 384 883 384 883 444 864 c 128,-1,34
 504 845 504 845 520 845 c 0,35,36
 548 845 548 845 572 874 c 1,37,-1
 580 883 l 1,38,-1
 625 855 l 1,39,40
 618 844 618 844 606.5 827 c 128,-1,22
 595 810 595 810 567 782 c 128,-1,23
EndSplineSet
EndChar

StartChar: Odieresis
Encoding: 214 214 150
Width: 747
GlyphClass: 2
Flags: W
LayerCount: 2
Fore
SplineSet
743 412 m 0,0,1
 743 221 743 221 629.5 101 c 128,-1,2
 516 -19 516 -19 338 -19 c 0,3,4
 198 -19 198 -19 116.5 65.5 c 128,-1,5
 35 150 35 150 35 292 c 0,6,7
 35 483 35 483 148.5 603.5 c 128,-1,8
 262 724 262 724 440 724 c 0,9,10
 580 724 580 724 661.5 639.5 c 128,-1,11
 743 555 743 555 743 412 c 0,0,1
212 271 m 0,12,13
 212 78 212 78 349 78 c 0,14,15
 460 78 460 78 512.5 172 c 128,-1,16
 565 266 565 266 565 433 c 0,17,18
 565 627 565 627 429 627 c 0,19,20
 317 627 317 627 264.5 532.5 c 128,-1,21
 212 438 212 438 212 271 c 0,12,13
331 896 m 0,22,23
 387 896 387 896 387 839 c 0,24,25
 387 803 387 803 367 780 c 128,-1,26
 347 757 347 757 315 757 c 128,-1,27
 283 757 283 757 268.5 772.5 c 128,-1,28
 254 788 254 788 254 819 c 128,-1,29
 254 850 254 850 274.5 873 c 128,-1,30
 295 896 295 896 331 896 c 0,22,23
561 896 m 0,31,32
 617 896 617 896 617 839 c 0,33,34
 617 803 617 803 597 780 c 128,-1,35
 577 757 577 757 541 757 c 0,36,37
 485 757 485 757 485 814 c 0,38,39
 485 850 485 850 505 873 c 128,-1,40
 525 896 525 896 561 896 c 0,31,32
EndSplineSet
EndChar

StartChar: multiply
Encoding: 215 215 151
Width: 556
GlyphClass: 2
Flags: W
LayerCount: 2
Fore
SplineSet
287 312 m 1,0,-1
 453 460 l 1,1,-1
 515 389 l 1,2,-1
 348 242 l 1,3,-1
 474 98 l 1,4,-1
 393 26 l 1,5,-1
 267 172 l 1,6,-1
 98 24 l 1,7,-1
 39 92 l 1,8,-1
 208 242 l 1,9,-1
 81 390 l 1,10,-1
 159 459 l 1,11,-1
 287 312 l 1,0,-1
EndSplineSet
EndChar

StartChar: Oslash
Encoding: 216 216 152
Width: 743
GlyphClass: 2
Flags: W
LayerCount: 2
Fore
SplineSet
739 413 m 0,0,1
 739 222 739 222 625 101.5 c 128,-1,2
 511 -19 511 -19 332 -19 c 0,3,4
 260 -19 260 -19 197 7 c 1,5,-1
 102 -137 l 1,6,-1
 51 -108 l 1,7,-1
 146 37 l 1,8,9
 35 119 35 119 35 292 c 0,10,11
 35 483 35 483 149 603.5 c 128,-1,12
 263 724 263 724 441 724 c 0,13,14
 516 724 516 724 578 697 c 1,15,-1
 671 838 l 1,16,-1
 724 809 l 1,17,-1
 630 666 l 1,18,19
 739 583 739 583 739 413 c 0,0,1
207 272 m 0,20,21
 207 202 207 202 225 157 c 1,22,-1
 514 598 l 1,23,24
 480 627 480 627 426 627 c 0,25,26
 313 627 313 627 260 533 c 128,-1,27
 207 439 207 439 207 272 c 0,20,21
566 432 m 0,28,29
 566 498 566 498 549 544 c 1,30,-1
 261 105 l 1,31,32
 294 78 294 78 346 78 c 0,33,34
 566 78 566 78 566 432 c 0,28,29
EndSplineSet
EndChar

StartChar: Ugrave
Encoding: 217 217 153
Width: 759
GlyphClass: 2
Flags: W
LayerCount: 2
Fore
SplineSet
341 -15 m 128,-1,1
 204 -15 204 -15 142 61 c 1,2,3
 96 119 96 119 96 209 c 0,4,5
 96 237 96 237 100 268 c 2,6,-1
 135 512 l 1,7,8
 144 566 144 566 144 590 c 128,-1,9
 144 614 144 614 143 623 c 1,10,-1
 82 635 l 1,11,-1
 98 710 l 1,12,13
 146 705 146 705 193 705 c 1,14,-1
 391 710 l 1,15,-1
 384 629 l 1,16,-1
 320 623 l 1,17,18
 304 578 304 578 300 542 c 1,19,-1
 258 260 l 2,20,21
 256 243 256 243 256 227 c 0,22,23
 256 179 256 179 278 144 c 1,24,25
 309 99 309 99 378 99 c 128,-1,26
 447 99 447 99 484 140 c 128,-1,27
 521 181 521 181 532 260 c 2,28,-1
 569 512 l 2,29,30
 570 520 570 520 577 623 c 1,31,-1
 516 635 l 1,32,-1
 532 710 l 1,33,34
 580 705 580 705 628 705 c 1,35,-1
 797 710 l 1,36,-1
 790 629 l 1,37,-1
 726 623 l 1,38,39
 712 585 712 585 706 542 c 2,40,-1
 666 268 l 2,41,42
 647 137 647 137 562.5 61 c 128,-1,0
 478 -15 478 -15 341 -15 c 128,-1,1
574 804 m 1,43,-1
 538 740 l 1,44,-1
 466 778 l 1,45,-1
 309 824 l 1,46,-1
 344 908 l 1,47,-1
 574 804 l 1,43,-1
EndSplineSet
EndChar

StartChar: Uacute
Encoding: 218 218 154
Width: 759
GlyphClass: 2
Flags: W
LayerCount: 2
Fore
SplineSet
341 -15 m 128,-1,1
 204 -15 204 -15 142 61 c 1,2,3
 96 119 96 119 96 209 c 0,4,5
 96 237 96 237 100 268 c 2,6,-1
 135 512 l 1,7,8
 144 566 144 566 144 590 c 128,-1,9
 144 614 144 614 143 623 c 1,10,-1
 82 635 l 1,11,-1
 98 710 l 1,12,13
 146 705 146 705 193 705 c 1,14,-1
 391 710 l 1,15,-1
 384 629 l 1,16,-1
 320 623 l 1,17,18
 304 578 304 578 300 542 c 1,19,-1
 258 260 l 2,20,21
 256 243 256 243 256 227 c 0,22,23
 256 179 256 179 278 144 c 1,24,25
 309 99 309 99 378 99 c 128,-1,26
 447 99 447 99 484 140 c 128,-1,27
 521 181 521 181 532 260 c 2,28,-1
 569 512 l 2,29,30
 570 520 570 520 577 623 c 1,31,-1
 516 635 l 1,32,-1
 532 710 l 1,33,34
 580 705 580 705 628 705 c 1,35,-1
 797 710 l 1,36,-1
 790 629 l 1,37,-1
 726 623 l 1,38,39
 712 585 712 585 706 542 c 2,40,-1
 666 268 l 2,41,42
 647 137 647 137 562.5 61 c 128,-1,0
 478 -15 478 -15 341 -15 c 128,-1,1
576 898 m 1,43,-1
 611 814 l 1,44,45
 472 774 472 774 453 768 c 1,46,-1
 382 730 l 1,47,-1
 346 794 l 1,48,-1
 576 898 l 1,43,-1
EndSplineSet
EndChar

StartChar: Ucircumflex
Encoding: 219 219 155
Width: 759
GlyphClass: 2
Flags: W
LayerCount: 2
Fore
SplineSet
341 -15 m 128,-1,1
 204 -15 204 -15 142 61 c 1,2,3
 96 119 96 119 96 209 c 0,4,5
 96 237 96 237 100 268 c 2,6,-1
 135 512 l 1,7,8
 144 566 144 566 144 590 c 128,-1,9
 144 614 144 614 143 623 c 1,10,-1
 82 635 l 1,11,-1
 98 710 l 1,12,13
 146 705 146 705 193 705 c 1,14,-1
 391 710 l 1,15,-1
 384 629 l 1,16,-1
 320 623 l 1,17,18
 304 578 304 578 300 542 c 1,19,-1
 258 260 l 2,20,21
 256 243 256 243 256 227 c 0,22,23
 256 179 256 179 278 144 c 1,24,25
 309 99 309 99 378 99 c 128,-1,26
 447 99 447 99 484 140 c 128,-1,27
 521 181 521 181 532 260 c 2,28,-1
 569 512 l 2,29,30
 570 520 570 520 577 623 c 1,31,-1
 516 635 l 1,32,-1
 532 710 l 1,33,34
 580 705 580 705 628 705 c 1,35,-1
 797 710 l 1,36,-1
 790 629 l 1,37,-1
 726 623 l 1,38,39
 712 585 712 585 706 542 c 2,40,-1
 666 268 l 2,41,42
 647 137 647 137 562.5 61 c 128,-1,0
 478 -15 478 -15 341 -15 c 128,-1,1
474 933 m 1,43,-1
 645 800 l 1,44,-1
 590 742 l 1,45,-1
 533 790 l 1,46,-1
 458 832 l 1,47,-1
 370 790 l 1,48,-1
 297 742 l 1,49,-1
 261 800 l 1,50,-1
 474 933 l 1,43,-1
EndSplineSet
EndChar

StartChar: Udieresis
Encoding: 220 220 156
Width: 759
GlyphClass: 2
Flags: W
LayerCount: 2
Fore
SplineSet
341 -15 m 128,-1,1
 204 -15 204 -15 142 61 c 1,2,3
 96 119 96 119 96 209 c 0,4,5
 96 237 96 237 100 268 c 2,6,-1
 135 512 l 1,7,8
 144 566 144 566 144 590 c 128,-1,9
 144 614 144 614 143 623 c 1,10,-1
 82 635 l 1,11,-1
 98 710 l 1,12,13
 146 705 146 705 193 705 c 1,14,-1
 391 710 l 1,15,-1
 384 629 l 1,16,-1
 320 623 l 1,17,18
 304 578 304 578 300 542 c 1,19,-1
 258 260 l 2,20,21
 256 243 256 243 256 227 c 0,22,23
 256 179 256 179 278 144 c 1,24,25
 309 99 309 99 378 99 c 128,-1,26
 447 99 447 99 484 140 c 128,-1,27
 521 181 521 181 532 260 c 2,28,-1
 569 512 l 2,29,30
 570 520 570 520 577 623 c 1,31,-1
 516 635 l 1,32,-1
 532 710 l 1,33,34
 580 705 580 705 628 705 c 1,35,-1
 797 710 l 1,36,-1
 790 629 l 1,37,-1
 726 623 l 1,38,39
 712 585 712 585 706 542 c 2,40,-1
 666 268 l 2,41,42
 647 137 647 137 562.5 61 c 128,-1,0
 478 -15 478 -15 341 -15 c 128,-1,1
358 896 m 0,43,44
 414 896 414 896 414 839 c 0,45,46
 414 803 414 803 394 780 c 128,-1,47
 374 757 374 757 342 757 c 128,-1,48
 310 757 310 757 295.5 772.5 c 128,-1,49
 281 788 281 788 281 819 c 128,-1,50
 281 850 281 850 301.5 873 c 128,-1,51
 322 896 322 896 358 896 c 0,43,44
588 896 m 0,52,53
 644 896 644 896 644 839 c 0,54,55
 644 803 644 803 624 780 c 128,-1,56
 604 757 604 757 568 757 c 0,57,58
 512 757 512 757 512 814 c 0,59,60
 512 850 512 850 532 873 c 128,-1,61
 552 896 552 896 588 896 c 0,52,53
EndSplineSet
EndChar

StartChar: Yacute
Encoding: 221 221 157
Width: 666
GlyphClass: 2
Flags: W
LayerCount: 2
Fore
SplineSet
750 637 m 1,0,-1
 692 630 l 1,1,2
 639 576 639 576 619 544 c 2,3,-1
 425 244 l 1,4,-1
 418 193 l 2,5,6
 410 134 410 134 410 77 c 1,7,-1
 471 71 l 1,8,-1
 455 -5 l 1,9,10
 376 0 376 0 264 0 c 1,11,-1
 168 -5 l 1,12,-1
 173 65 l 1,13,-1
 238 77 l 1,14,15
 238 79 238 79 247.5 115 c 128,-1,16
 257 151 257 151 259 163 c 2,17,-1
 272 254 l 1,18,-1
 145 577 l 2,19,20
 137 599 137 599 114 623 c 1,21,-1
 107 631 l 1,22,-1
 51 640 l 1,23,-1
 66 710 l 1,24,25
 117 705 117 705 153 705 c 2,26,-1
 360 710 l 1,27,-1
 354 637 l 1,28,-1
 303 628 l 1,29,30
 305 595 305 595 310 576 c 1,31,-1
 382 369 l 1,32,-1
 521 590 l 1,33,-1
 529 628 l 1,34,-1
 490 640 l 1,35,-1
 505 710 l 1,36,37
 566 705 566 705 612 705 c 1,38,-1
 756 710 l 1,39,-1
 750 637 l 1,0,-1
543 898 m 1,40,-1
 578 814 l 1,41,42
 439 774 439 774 420 768 c 1,43,-1
 349 730 l 1,44,-1
 313 794 l 1,45,-1
 543 898 l 1,40,-1
EndSplineSet
EndChar

StartChar: Thorn
Encoding: 222 222 158
Width: 585
GlyphClass: 2
Flags: W
LayerCount: 2
Fore
SplineSet
252 146 m 1,0,1
 249 95 249 95 249 77 c 1,2,-1
 311 71 l 1,3,-1
 295 -5 l 1,4,5
 217 0 217 0 108 0 c 1,6,-1
 10 -5 l 1,7,-1
 15 65 l 1,8,-1
 81 77 l 1,9,10
 99 138 99 138 103 163 c 2,11,-1
 154 512 l 2,12,13
 161 562 161 562 161 623 c 1,14,-1
 100 635 l 1,15,-1
 116 710 l 1,16,17
 166 705 166 705 212 705 c 1,18,-1
 401 710 l 1,19,-1
 394 629 l 1,20,-1
 329 623 l 1,21,22
 323 608 323 608 313 566 c 1,23,24
 379 570 379 570 399 570 c 0,25,26
 492 570 492 570 546 522 c 128,-1,27
 600 474 600 474 600 389 c 0,28,29
 600 277 600 277 519.5 211.5 c 128,-1,30
 439 146 439 146 324 146 c 2,31,-1
 252 146 l 1,0,1
278 228 m 2,32,33
 355 228 355 228 399.5 269 c 128,-1,34
 444 310 444 310 444 386 c 0,35,36
 444 488 444 488 331 488 c 0,37,38
 313 488 313 488 300 487 c 1,39,-1
 262 228 l 1,40,-1
 278 228 l 2,32,33
EndSplineSet
EndChar

StartChar: germandbls
Encoding: 223 223 159
Width: 586
GlyphClass: 2
Flags: W
LayerCount: 2
Fore
SplineSet
316 164 m 1,0,1
 311 127 311 127 309 110 c 1,2,-1
 316 91 l 1,3,4
 332 75 332 75 358 75 c 0,5,6
 405 75 405 75 405 119 c 0,7,8
 405 143 405 143 378.5 166.5 c 128,-1,9
 352 190 352 190 264 247 c 1,10,-1
 408 420 l 1,11,12
 395 440 395 440 337 440 c 0,13,14
 299 440 299 440 269.5 411 c 128,-1,15
 240 382 240 382 233 338 c 2,16,-1
 208 158 l 2,17,18
 206 146 206 146 200.5 85.5 c 128,-1,19
 195 25 195 25 194 0 c 1,20,-1
 87 0 l 2,21,22
 13 0 13 0 -9 -4 c 1,23,-1
 -4 58 l 1,24,-1
 42 65 l 1,25,26
 59 124 59 124 60 130 c 2,27,-1
 90 334 l 2,28,29
 104 432 104 432 173 489.5 c 128,-1,30
 242 547 242 547 347 547 c 0,31,32
 409 547 409 547 472 529 c 128,-1,33
 535 511 535 511 574 483 c 1,34,-1
 420 298 l 1,35,36
 495 254 495 254 522.5 224 c 128,-1,37
 550 194 550 194 550 157 c 0,38,39
 550 85 550 85 489.5 36 c 128,-1,40
 429 -13 429 -13 343 -13 c 0,41,42
 310 -13 310 -13 278.5 -5.5 c 128,-1,43
 247 2 247 2 232 10 c 2,44,-1
 217 18 l 1,45,-1
 250 168 l 1,46,-1
 316 164 l 1,0,1
EndSplineSet
EndChar

StartChar: agrave
Encoding: 224 224 160
Width: 508
GlyphClass: 2
Flags: W
LayerCount: 2
Fore
SplineSet
487 54 m 1,0,-1
 474 -6 l 1,1,2
 448 0 448 0 420 0 c 2,3,-1
 239 -4 l 1,4,-1
 245 61 l 1,5,-1
 284 64 l 1,6,-1
 292 81 l 1,7,-1
 290 115 l 1,8,-1
 162 115 l 1,9,-1
 151 83 l 1,10,-1
 146 64 l 1,11,-1
 183 54 l 1,12,-1
 170 -6 l 1,13,14
 125 0 125 0 83 0 c 1,15,-1
 -23 -4 l 1,16,-1
 -18 61 l 1,17,-1
 8 63 l 1,18,-1
 48 123 l 1,19,-1
 253 536 l 1,20,-1
 362 545 l 1,21,-1
 448 60 l 1,22,-1
 487 54 l 1,0,-1
268 355 m 1,23,-1
 198 190 l 1,24,-1
 279 191 l 1,25,-1
 268 355 l 1,23,-1
434 623 m 1,26,-1
 388 565 l 1,27,-1
 323 614 l 1,28,-1
 187 679 l 1,29,-1
 233 755 l 1,30,-1
 434 623 l 1,26,-1
EndSplineSet
EndChar

StartChar: aacute
Encoding: 225 225 161
Width: 508
GlyphClass: 2
Flags: W
LayerCount: 2
Fore
SplineSet
487 54 m 1,0,-1
 474 -6 l 1,1,2
 448 0 448 0 420 0 c 2,3,-1
 239 -4 l 1,4,-1
 245 61 l 1,5,-1
 284 64 l 1,6,-1
 292 81 l 1,7,-1
 290 115 l 1,8,-1
 162 115 l 1,9,-1
 151 83 l 1,10,-1
 146 64 l 1,11,-1
 183 54 l 1,12,-1
 170 -6 l 1,13,14
 125 0 125 0 83 0 c 1,15,-1
 -23 -4 l 1,16,-1
 -18 61 l 1,17,-1
 8 63 l 1,18,-1
 48 123 l 1,19,-1
 253 536 l 1,20,-1
 362 545 l 1,21,-1
 448 60 l 1,22,-1
 487 54 l 1,0,-1
268 355 m 1,23,-1
 198 190 l 1,24,-1
 279 191 l 1,25,-1
 268 355 l 1,23,-1
420 755 m 1,26,-1
 466 679 l 1,27,28
 347 623 347 623 330 614 c 1,29,-1
 265 565 l 1,30,-1
 219 623 l 1,31,-1
 420 755 l 1,26,-1
EndSplineSet
EndChar

StartChar: acircumflex
Encoding: 226 226 162
Width: 508
GlyphClass: 2
Flags: W
LayerCount: 2
Fore
SplineSet
487 54 m 1,0,-1
 474 -6 l 1,1,2
 448 0 448 0 420 0 c 2,3,-1
 239 -4 l 1,4,-1
 245 61 l 1,5,-1
 284 64 l 1,6,-1
 292 81 l 1,7,-1
 290 115 l 1,8,-1
 162 115 l 1,9,-1
 151 83 l 1,10,-1
 146 64 l 1,11,-1
 183 54 l 1,12,-1
 170 -6 l 1,13,14
 125 0 125 0 83 0 c 1,15,-1
 -23 -4 l 1,16,-1
 -18 61 l 1,17,-1
 8 63 l 1,18,-1
 48 123 l 1,19,-1
 253 536 l 1,20,-1
 362 545 l 1,21,-1
 448 60 l 1,22,-1
 487 54 l 1,0,-1
341 765 m 1,23,-1
 512 622 l 1,24,-1
 457 564 l 1,25,-1
 400 617 l 1,26,-1
 325 662 l 1,27,28
 257 626 257 626 237 617 c 1,29,-1
 164 564 l 1,30,-1
 128 622 l 1,31,-1
 341 765 l 1,23,-1
268 355 m 1,32,-1
 198 190 l 1,33,-1
 279 191 l 1,34,-1
 268 355 l 1,32,-1
EndSplineSet
EndChar

StartChar: atilde
Encoding: 227 227 163
Width: 508
GlyphClass: 2
Flags: W
LayerCount: 2
Fore
SplineSet
487 54 m 1,0,-1
 474 -6 l 1,1,2
 448 0 448 0 420 0 c 2,3,-1
 239 -4 l 1,4,-1
 245 61 l 1,5,-1
 284 64 l 1,6,-1
 292 81 l 1,7,-1
 290 115 l 1,8,-1
 162 115 l 1,9,-1
 151 83 l 1,10,-1
 146 64 l 1,11,-1
 183 54 l 1,12,-1
 170 -6 l 1,13,14
 125 0 125 0 83 0 c 1,15,-1
 -23 -4 l 1,16,-1
 -18 61 l 1,17,-1
 8 63 l 1,18,-1
 48 123 l 1,19,-1
 253 536 l 1,20,-1
 362 545 l 1,21,-1
 448 60 l 1,22,-1
 487 54 l 1,0,-1
268 355 m 1,23,-1
 198 190 l 1,24,-1
 279 191 l 1,25,-1
 268 355 l 1,23,-1
405 594 m 128,-1,27
 385 594 385 594 328.5 613 c 128,-1,28
 272 632 272 632 256 632 c 0,29,30
 231 632 231 632 206 600 c 1,31,-1
 197 590 l 1,32,-1
 156 618 l 1,33,34
 181 660 181 660 209.5 691.5 c 128,-1,35
 238 723 238 723 258 723 c 128,-1,36
 278 723 278 723 335 704 c 128,-1,37
 392 685 392 685 408 685 c 0,38,39
 434 685 434 685 455 714 c 1,40,-1
 462 723 l 1,41,-1
 505 695 l 1,42,43
 485 659 485 659 455 626.5 c 128,-1,26
 425 594 425 594 405 594 c 128,-1,27
EndSplineSet
EndChar

StartChar: adieresis
Encoding: 228 228 164
Width: 508
GlyphClass: 2
Flags: W
LayerCount: 2
Fore
SplineSet
487 54 m 1,0,-1
 474 -6 l 1,1,2
 448 0 448 0 420 0 c 2,3,-1
 239 -4 l 1,4,-1
 245 61 l 1,5,-1
 284 64 l 1,6,-1
 292 81 l 1,7,-1
 290 115 l 1,8,-1
 162 115 l 1,9,-1
 151 83 l 1,10,-1
 146 64 l 1,11,-1
 183 54 l 1,12,-1
 170 -6 l 1,13,14
 125 0 125 0 83 0 c 1,15,-1
 -23 -4 l 1,16,-1
 -18 61 l 1,17,-1
 8 63 l 1,18,-1
 48 123 l 1,19,-1
 253 536 l 1,20,-1
 362 545 l 1,21,-1
 448 60 l 1,22,-1
 487 54 l 1,0,-1
268 355 m 1,23,-1
 198 190 l 1,24,-1
 279 191 l 1,25,-1
 268 355 l 1,23,-1
220 725 m 0,26,27
 276 725 276 725 276 668 c 0,28,29
 276 632 276 632 255.5 609 c 128,-1,30
 235 586 235 586 203.5 586 c 128,-1,31
 172 586 172 586 157 601.5 c 128,-1,32
 142 617 142 617 142 648 c 128,-1,33
 142 679 142 679 163 702 c 128,-1,34
 184 725 184 725 220 725 c 0,26,27
450 725 m 0,35,36
 506 725 506 725 506 668 c 0,37,38
 506 632 506 632 485.5 609 c 128,-1,39
 465 586 465 586 433.5 586 c 128,-1,40
 402 586 402 586 387.5 601.5 c 128,-1,41
 373 617 373 617 373 648 c 128,-1,42
 373 679 373 679 393.5 702 c 128,-1,43
 414 725 414 725 450 725 c 0,35,36
EndSplineSet
EndChar

StartChar: aring
Encoding: 229 229 165
Width: 508
GlyphClass: 2
Flags: W
LayerCount: 2
Fore
SplineSet
487 54 m 1,0,-1
 474 -6 l 1,1,2
 448 0 448 0 420 0 c 2,3,-1
 239 -4 l 1,4,-1
 245 61 l 1,5,-1
 284 64 l 1,6,-1
 292 81 l 1,7,-1
 290 115 l 1,8,-1
 162 115 l 1,9,-1
 151 83 l 1,10,-1
 146 64 l 1,11,-1
 183 54 l 1,12,-1
 170 -6 l 1,13,14
 125 0 125 0 83 0 c 1,15,-1
 -23 -4 l 1,16,-1
 -18 61 l 1,17,-1
 8 63 l 1,18,-1
 48 123 l 1,19,-1
 253 536 l 1,20,-1
 362 545 l 1,21,-1
 448 60 l 1,22,-1
 487 54 l 1,0,-1
268 355 m 1,23,-1
 198 190 l 1,24,-1
 279 191 l 1,25,-1
 268 355 l 1,23,-1
248.5 730 m 128,-1,27
 278 761 278 761 325 761 c 0,28,29
 415 761 415 761 415 681 c 0,30,31
 415 631 415 631 385.5 600.5 c 128,-1,32
 356 570 356 570 309 570 c 128,-1,33
 262 570 262 570 240.5 591.5 c 128,-1,34
 219 613 219 613 219 656 c 128,-1,26
 219 699 219 699 248.5 730 c 128,-1,27
323 703 m 0,35,36
 304 703 304 703 295 689.5 c 128,-1,37
 286 676 286 676 286 658 c 0,38,39
 286 628 286 628 312 628 c 0,40,41
 330 628 330 628 339.5 641.5 c 128,-1,42
 349 655 349 655 349 672 c 0,43,44
 349 703 349 703 323 703 c 0,35,36
EndSplineSet
EndChar

StartChar: ae
Encoding: 230 230 166
Width: 691
GlyphClass: 2
Flags: W
LayerCount: 2
Fore
SplineSet
467 238 m 1,0,-1
 472 237 l 1,1,-1
 472 155 l 1,2,-1
 475 79 l 1,3,-1
 542 79 l 2,4,5
 572 79 572 79 595 84 c 1,6,7
 613 114 613 114 619 132 c 128,-1,8
 625 150 625 150 627 159 c 1,9,-1
 685 155 l 1,10,-1
 653 11 l 1,11,-1
 637 -3 l 1,12,13
 566 0 566 0 552 0 c 2,14,-1
 329 0 l 1,15,-1
 282 -4 l 1,16,-1
 287 58 l 1,17,-1
 332 65 l 1,18,19
 338 77 338 77 338 101 c 1,20,-1
 337 113 l 1,21,-1
 169 113 l 1,22,-1
 136 65 l 1,23,-1
 183 61 l 1,24,-1
 169 -4 l 1,25,26
 117 0 117 0 54 0 c 1,27,-1
 -24 -4 l 1,28,-1
 -19 58 l 1,29,-1
 17 62 l 1,30,31
 54 104 54 104 70 126 c 2,32,-1
 332 465 l 1,33,-1
 286 474 l 1,34,-1
 300 540 l 1,35,36
 322 536 322 536 368 536 c 2,37,-1
 627 536 l 1,38,-1
 713 543 l 1,39,-1
 726 530 l 1,40,-1
 712 397 l 1,41,-1
 651 393 l 1,42,43
 653 423 653 423 653 434 c 2,44,-1
 652 453 l 1,45,46
 624 457 624 457 594 457 c 2,47,-1
 474 457 l 1,48,-1
 470 412 l 1,49,-1
 471 310 l 1,50,-1
 471 309 l 1,51,-1
 544 309 l 2,52,53
 560 309 560 309 572 316 c 1,54,-1
 585 364 l 1,55,-1
 638 360 l 1,56,57
 630 314 630 314 628 299 c 2,58,-1
 615 195 l 1,59,-1
 560 191 l 1,60,-1
 560 233 l 1,61,62
 534 238 534 238 519 238 c 2,63,-1
 467 238 l 1,0,-1
216 188 m 1,64,-1
 337 189 l 1,65,-1
 347 365 l 1,66,-1
 216 188 l 1,64,-1
EndSplineSet
EndChar

StartChar: ccedilla
Encoding: 231 231 167
Width: 496
GlyphClass: 2
Flags: W
LayerCount: 2
Fore
SplineSet
348 -134 m 0,0,1
 348 -184 348 -184 312.5 -209.5 c 128,-1,2
 277 -235 277 -235 222.5 -235 c 128,-1,3
 168 -235 168 -235 132 -217 c 1,4,-1
 157 -168 l 1,5,6
 190 -179 190 -179 209 -179 c 0,7,8
 260 -179 260 -179 260 -141 c 0,9,10
 260 -115 260 -115 223 -115 c 1,11,-1
 203 -116 l 1,12,-1
 194 -102 l 1,13,-1
 216 -8 l 1,14,15
 121 4 121 4 72.5 64.5 c 128,-1,16
 24 125 24 125 24 221 c 0,17,18
 24 365 24 365 108 456 c 128,-1,19
 192 547 192 547 343 547 c 0,20,21
 412 547 412 547 508 521 c 1,22,-1
 476 373 l 1,23,-1
 412 376 l 1,24,-1
 416 428 l 2,25,26
 417 432 417 432 411 455 c 1,27,28
 374 462 374 462 334 462 c 128,-1,29
 294 462 294 462 264.5 439 c 128,-1,30
 235 416 235 416 220 376 c 0,31,32
 192 303 192 303 192 208 c 0,33,34
 192 73 192 73 272 73 c 0,35,36
 312 73 312 73 364 82 c 1,37,38
 368 88 368 88 370.5 92.5 c 128,-1,39
 373 97 373 97 376 102 c 0,40,41
 383 112 383 112 383 116 c 2,42,-1
 391 152 l 1,43,-1
 454 154 l 1,44,-1
 440 14 l 1,45,46
 340 -9 340 -9 277 -11 c 1,47,-1
 261 -59 l 1,48,49
 300 -60 300 -60 324 -80 c 128,-1,50
 348 -100 348 -100 348 -134 c 0,0,1
EndSplineSet
EndChar

StartChar: egrave
Encoding: 232 232 168
Width: 481
GlyphClass: 2
Flags: W
LayerCount: 2
Fore
SplineSet
276 463 m 1,0,1
 267 418 267 418 267 414 c 2,2,-1
 251 304 l 1,3,-1
 297 304 l 2,4,5
 308 304 308 304 324 311 c 1,6,-1
 338 359 l 1,7,-1
 390 355 l 1,8,9
 382 307 382 307 380 292 c 2,10,-1
 368 188 l 1,11,-1
 311 184 l 1,12,-1
 310 227 l 1,13,14
 286 231 286 231 270 231 c 2,15,-1
 258 231 l 1,16,17
 241 232 241 232 241 231 c 2,18,-1
 229 157 l 1,19,-1
 218 78 l 1,20,-1
 303 78 l 2,21,22
 328 78 328 78 356 84 c 1,23,24
 366 99 366 99 376 119 c 1,25,26
 383 139 383 139 388 158 c 1,27,-1
 446 155 l 1,28,-1
 414 11 l 1,29,-1
 398 -3 l 1,30,31
 329 0 329 0 313 0 c 2,32,-1
 82 0 l 1,33,-1
 14 -4 l 1,34,-1
 19 58 l 1,35,-1
 64 65 l 1,36,37
 74 80 74 80 81 134 c 2,38,-1
 115 366 l 1,39,40
 125 422 125 422 125 440.5 c 128,-1,41
 125 459 125 459 124 465 c 1,42,-1
 81 474 l 1,43,-1
 95 540 l 1,44,45
 128 536 128 536 162 536 c 2,46,-1
 381 536 l 1,47,-1
 468 543 l 1,48,-1
 480 530 l 1,49,-1
 467 403 l 1,50,-1
 406 399 l 1,51,-1
 408 446 l 1,52,53
 407 447 407 447 407 452.5 c 128,-1,54
 407 458 407 458 406 460 c 1,55,56
 385 463 385 463 348 463 c 2,57,-1
 276 463 l 1,0,1
414 623 m 1,58,-1
 368 565 l 1,59,-1
 303 614 l 1,60,-1
 167 679 l 1,61,-1
 213 755 l 1,62,-1
 414 623 l 1,58,-1
EndSplineSet
EndChar

StartChar: eacute
Encoding: 233 233 169
Width: 481
GlyphClass: 2
Flags: W
LayerCount: 2
Fore
SplineSet
276 463 m 1,0,1
 267 418 267 418 267 414 c 2,2,-1
 251 304 l 1,3,-1
 297 304 l 2,4,5
 308 304 308 304 324 311 c 1,6,-1
 338 359 l 1,7,-1
 390 355 l 1,8,9
 382 307 382 307 380 292 c 2,10,-1
 368 188 l 1,11,-1
 311 184 l 1,12,-1
 310 227 l 1,13,14
 286 231 286 231 270 231 c 2,15,-1
 258 231 l 1,16,17
 241 232 241 232 241 231 c 2,18,-1
 229 157 l 1,19,-1
 218 78 l 1,20,-1
 303 78 l 2,21,22
 328 78 328 78 356 84 c 1,23,24
 366 99 366 99 376 119 c 1,25,26
 383 139 383 139 388 158 c 1,27,-1
 446 155 l 1,28,-1
 414 11 l 1,29,-1
 398 -3 l 1,30,31
 329 0 329 0 313 0 c 2,32,-1
 82 0 l 1,33,-1
 14 -4 l 1,34,-1
 19 58 l 1,35,-1
 64 65 l 1,36,37
 74 80 74 80 81 134 c 2,38,-1
 115 366 l 1,39,40
 125 422 125 422 125 440.5 c 128,-1,41
 125 459 125 459 124 465 c 1,42,-1
 81 474 l 1,43,-1
 95 540 l 1,44,45
 128 536 128 536 162 536 c 2,46,-1
 381 536 l 1,47,-1
 468 543 l 1,48,-1
 480 530 l 1,49,-1
 467 403 l 1,50,-1
 406 399 l 1,51,-1
 408 446 l 1,52,53
 407 447 407 447 407 452.5 c 128,-1,54
 407 458 407 458 406 460 c 1,55,56
 385 463 385 463 348 463 c 2,57,-1
 276 463 l 1,0,1
391 755 m 1,58,-1
 437 679 l 1,59,60
 318 623 318 623 301 614 c 1,61,-1
 236 565 l 1,62,-1
 190 623 l 1,63,-1
 391 755 l 1,58,-1
EndSplineSet
EndChar

StartChar: ecircumflex
Encoding: 234 234 170
Width: 481
GlyphClass: 2
Flags: W
LayerCount: 2
Fore
SplineSet
276 463 m 1,0,1
 267 418 267 418 267 414 c 2,2,-1
 251 304 l 1,3,-1
 297 304 l 2,4,5
 308 304 308 304 324 311 c 1,6,-1
 338 359 l 1,7,-1
 390 355 l 1,8,9
 382 307 382 307 380 292 c 2,10,-1
 368 188 l 1,11,-1
 311 184 l 1,12,-1
 310 227 l 1,13,14
 286 231 286 231 270 231 c 2,15,-1
 258 231 l 1,16,17
 241 232 241 232 241 231 c 2,18,-1
 229 157 l 1,19,-1
 218 78 l 1,20,-1
 303 78 l 2,21,22
 328 78 328 78 356 84 c 1,23,24
 366 99 366 99 376 119 c 1,25,26
 383 139 383 139 388 158 c 1,27,-1
 446 155 l 1,28,-1
 414 11 l 1,29,-1
 398 -3 l 1,30,31
 329 0 329 0 313 0 c 2,32,-1
 82 0 l 1,33,-1
 14 -4 l 1,34,-1
 19 58 l 1,35,-1
 64 65 l 1,36,37
 74 80 74 80 81 134 c 2,38,-1
 115 366 l 1,39,40
 125 422 125 422 125 440.5 c 128,-1,41
 125 459 125 459 124 465 c 1,42,-1
 81 474 l 1,43,-1
 95 540 l 1,44,45
 128 536 128 536 162 536 c 2,46,-1
 381 536 l 1,47,-1
 468 543 l 1,48,-1
 480 530 l 1,49,-1
 467 403 l 1,50,-1
 406 399 l 1,51,-1
 408 446 l 1,52,53
 407 447 407 447 407 452.5 c 128,-1,54
 407 458 407 458 406 460 c 1,55,56
 385 463 385 463 348 463 c 2,57,-1
 276 463 l 1,0,1
312 765 m 1,58,-1
 483 622 l 1,59,-1
 428 564 l 1,60,-1
 371 617 l 1,61,-1
 296 662 l 1,62,63
 228 626 228 626 208 617 c 1,64,-1
 135 564 l 1,65,-1
 99 622 l 1,66,-1
 312 765 l 1,58,-1
EndSplineSet
EndChar

StartChar: edieresis
Encoding: 235 235 171
Width: 481
GlyphClass: 2
Flags: W
LayerCount: 2
Fore
SplineSet
276 463 m 1,0,1
 267 418 267 418 267 414 c 2,2,-1
 251 304 l 1,3,-1
 297 304 l 2,4,5
 308 304 308 304 324 311 c 1,6,-1
 338 359 l 1,7,-1
 390 355 l 1,8,9
 382 307 382 307 380 292 c 2,10,-1
 368 188 l 1,11,-1
 311 184 l 1,12,-1
 310 227 l 1,13,14
 286 231 286 231 270 231 c 2,15,-1
 258 231 l 1,16,17
 241 232 241 232 241 231 c 2,18,-1
 229 157 l 1,19,-1
 218 78 l 1,20,-1
 303 78 l 2,21,22
 328 78 328 78 356 84 c 1,23,24
 366 99 366 99 376 119 c 1,25,26
 383 139 383 139 388 158 c 1,27,-1
 446 155 l 1,28,-1
 414 11 l 1,29,-1
 398 -3 l 1,30,31
 329 0 329 0 313 0 c 2,32,-1
 82 0 l 1,33,-1
 14 -4 l 1,34,-1
 19 58 l 1,35,-1
 64 65 l 1,36,37
 74 80 74 80 81 134 c 2,38,-1
 115 366 l 1,39,40
 125 422 125 422 125 440.5 c 128,-1,41
 125 459 125 459 124 465 c 1,42,-1
 81 474 l 1,43,-1
 95 540 l 1,44,45
 128 536 128 536 162 536 c 2,46,-1
 381 536 l 1,47,-1
 468 543 l 1,48,-1
 480 530 l 1,49,-1
 467 403 l 1,50,-1
 406 399 l 1,51,-1
 408 446 l 1,52,53
 407 447 407 447 407 452.5 c 128,-1,54
 407 458 407 458 406 460 c 1,55,56
 385 463 385 463 348 463 c 2,57,-1
 276 463 l 1,0,1
201 725 m 0,58,59
 257 725 257 725 257 668 c 0,60,61
 257 632 257 632 236.5 609 c 128,-1,62
 216 586 216 586 184.5 586 c 128,-1,63
 153 586 153 586 138 601.5 c 128,-1,64
 123 617 123 617 123 648 c 128,-1,65
 123 679 123 679 144 702 c 128,-1,66
 165 725 165 725 201 725 c 0,58,59
431 725 m 0,67,68
 487 725 487 725 487 668 c 0,69,70
 487 632 487 632 466.5 609 c 128,-1,71
 446 586 446 586 414.5 586 c 128,-1,72
 383 586 383 586 368.5 601.5 c 128,-1,73
 354 617 354 617 354 648 c 128,-1,74
 354 679 354 679 374.5 702 c 128,-1,75
 395 725 395 725 431 725 c 0,67,68
EndSplineSet
EndChar

StartChar: igrave
Encoding: 236 236 172
Width: 329
GlyphClass: 2
Flags: W
LayerCount: 2
Fore
SplineSet
336 540 m 1,0,-1
 330 469 l 1,1,-1
 285 465 l 1,2,3
 272 426 272 426 270 414 c 2,4,-1
 233 157 l 2,5,6
 226 115 226 115 226 65 c 1,7,-1
 263 61 l 1,8,-1
 251 -4 l 1,9,10
 184 0 184 0 85 0 c 1,11,-1
 18 -4 l 1,12,-1
 23 58 l 1,13,-1
 67 65 l 1,14,15
 80 105 80 105 84 134 c 2,16,-1
 119 366 l 2,17,18
 120 373 120 373 127 465 c 1,19,-1
 85 474 l 1,20,-1
 98 540 l 1,21,22
 119 536 119 536 165 536 c 1,23,-1
 336 540 l 1,0,-1
350 623 m 1,24,-1
 304 565 l 1,25,-1
 239 614 l 1,26,-1
 103 679 l 1,27,-1
 149 755 l 1,28,-1
 350 623 l 1,24,-1
EndSplineSet
EndChar

StartChar: iacute
Encoding: 237 237 173
Width: 329
GlyphClass: 2
Flags: W
LayerCount: 2
Fore
SplineSet
336 540 m 1,0,-1
 330 469 l 1,1,-1
 285 465 l 1,2,3
 272 426 272 426 270 414 c 2,4,-1
 233 157 l 2,5,6
 226 115 226 115 226 65 c 1,7,-1
 263 61 l 1,8,-1
 251 -4 l 1,9,10
 184 0 184 0 85 0 c 1,11,-1
 18 -4 l 1,12,-1
 23 58 l 1,13,-1
 67 65 l 1,14,15
 80 105 80 105 84 134 c 2,16,-1
 119 366 l 2,17,18
 120 373 120 373 127 465 c 1,19,-1
 85 474 l 1,20,-1
 98 540 l 1,21,22
 119 536 119 536 165 536 c 1,23,-1
 336 540 l 1,0,-1
319 755 m 1,24,-1
 365 679 l 1,25,26
 246 623 246 623 229 614 c 1,27,-1
 164 565 l 1,28,-1
 118 623 l 1,29,-1
 319 755 l 1,24,-1
EndSplineSet
EndChar

StartChar: icircumflex
Encoding: 238 238 174
Width: 329
GlyphClass: 2
Flags: W
LayerCount: 2
Fore
SplineSet
336 540 m 1,0,-1
 330 469 l 1,1,-1
 285 465 l 1,2,3
 272 426 272 426 270 414 c 2,4,-1
 233 157 l 2,5,6
 226 115 226 115 226 65 c 1,7,-1
 263 61 l 1,8,-1
 251 -4 l 1,9,10
 184 0 184 0 85 0 c 1,11,-1
 18 -4 l 1,12,-1
 23 58 l 1,13,-1
 67 65 l 1,14,15
 80 105 80 105 84 134 c 2,16,-1
 119 366 l 2,17,18
 120 373 120 373 127 465 c 1,19,-1
 85 474 l 1,20,-1
 98 540 l 1,21,22
 119 536 119 536 165 536 c 1,23,-1
 336 540 l 1,0,-1
259 765 m 1,24,-1
 430 622 l 1,25,-1
 375 564 l 1,26,-1
 318 617 l 1,27,-1
 243 662 l 1,28,29
 175 626 175 626 155 617 c 1,30,-1
 82 564 l 1,31,-1
 46 622 l 1,32,-1
 259 765 l 1,24,-1
EndSplineSet
EndChar

StartChar: idieresis
Encoding: 239 239 175
Width: 329
GlyphClass: 2
Flags: W
LayerCount: 2
Fore
SplineSet
336 540 m 1,0,-1
 330 469 l 1,1,-1
 285 465 l 1,2,3
 272 426 272 426 270 414 c 2,4,-1
 233 157 l 2,5,6
 226 115 226 115 226 65 c 1,7,-1
 263 61 l 1,8,-1
 251 -4 l 1,9,10
 184 0 184 0 85 0 c 1,11,-1
 18 -4 l 1,12,-1
 23 58 l 1,13,-1
 67 65 l 1,14,15
 80 105 80 105 84 134 c 2,16,-1
 119 366 l 2,17,18
 120 373 120 373 127 465 c 1,19,-1
 85 474 l 1,20,-1
 98 540 l 1,21,22
 119 536 119 536 165 536 c 1,23,-1
 336 540 l 1,0,-1
163 725 m 0,24,25
 217 725 217 725 217 668 c 0,26,27
 217 632 217 632 197.5 609 c 128,-1,28
 178 586 178 586 147.5 586 c 128,-1,29
 117 586 117 586 102.5 601.5 c 128,-1,30
 88 617 88 617 88 647.5 c 128,-1,31
 88 678 88 678 108.5 701.5 c 128,-1,32
 129 725 129 725 163 725 c 0,24,25
332 725 m 0,33,34
 386 725 386 725 386 668 c 0,35,36
 386 632 386 632 366.5 609 c 128,-1,37
 347 586 347 586 316.5 586 c 128,-1,38
 286 586 286 586 272 601.5 c 128,-1,39
 258 617 258 617 258 648 c 128,-1,40
 258 679 258 679 277.5 702 c 128,-1,41
 297 725 297 725 332 725 c 0,33,34
EndSplineSet
EndChar

StartChar: eth
Encoding: 240 240 176
Width: 568
GlyphClass: 2
Flags: W
LayerCount: 2
Fore
SplineSet
255 -5 m 1,0,-1
 81 0 l 1,1,-1
 14 -4 l 1,2,-1
 19 58 l 1,3,-1
 64 65 l 1,4,-1
 81 134 l 1,5,-1
 96 238 l 1,6,-1
 46 238 l 1,7,-1
 57 306 l 1,8,-1
 106 306 l 1,9,-1
 115 366 l 2,10,11
 116 374 116 374 117.5 382 c 128,-1,12
 119 390 119 390 119.5 397.5 c 128,-1,13
 120 405 120 405 121 412 c 0,14,15
 123 426 123 426 123 438 c 2,16,-1
 124 456 l 1,17,-1
 124 462 l 2,18,19
 124 465 124 465 124 465 c 1,20,-1
 81 474 l 1,21,-1
 95 540 l 1,22,-1
 170 536 l 2,23,24
 173 536 173 536 179 536 c 2,25,-1
 337 543 l 1,26,27
 450 543 450 543 508.5 481 c 128,-1,28
 567 419 567 419 567 314 c 0,29,30
 567 173 567 173 486 84 c 128,-1,31
 405 -5 405 -5 255 -5 c 1,0,-1
218 70 m 1,32,33
 234 68 234 68 244 68 c 0,34,35
 413 68 413 68 413 326 c 0,36,37
 413 471 413 471 310 471 c 0,38,39
 307 471 307 471 295 468 c 128,-1,40
 283 465 283 465 276 464 c 1,41,42
 275 459 275 459 273 446.5 c 128,-1,43
 271 434 271 434 269 424.5 c 128,-1,44
 267 415 267 415 267 414 c 2,45,-1
 251 306 l 1,46,-1
 318 306 l 1,47,-1
 304 238 l 1,48,-1
 241 238 l 1,49,-1
 229 157 l 2,50,51
 221 103 221 103 218 70 c 1,32,33
EndSplineSet
EndChar

StartChar: ntilde
Encoding: 241 241 177
Width: 625
GlyphClass: 2
Flags: W
LayerCount: 2
Fore
SplineSet
653 540 m 1,0,-1
 646 467 l 1,1,-1
 602 466 l 1,2,3
 595 444 595 444 591 418 c 2,4,-1
 530 3 l 1,5,-1
 395 3 l 1,6,-1
 228 299 l 1,7,-1
 206 157 l 2,8,9
 200 121 200 121 200 65 c 1,10,-1
 241 61 l 1,11,-1
 228 -4 l 1,12,13
 185 0 185 0 86 0 c 1,14,-1
 14 -4 l 1,15,-1
 19 58 l 1,16,-1
 64 65 l 1,17,18
 77 98 77 98 81 134 c 1,19,-1
 115 366 l 1,20,21
 124 418 124 418 124 465 c 1,22,-1
 83 474 l 1,23,-1
 96 540 l 1,24,25
 116 536 116 536 164 536 c 2,26,-1
 266 535 l 1,27,-1
 277 521 l 1,28,29
 314 428 314 428 322 411 c 1,30,-1
 437 202 l 1,31,-1
 462 370 l 2,32,33
 469 422 469 422 469 466 c 1,34,-1
 429 478 l 1,35,-1
 442 541 l 1,36,-1
 523 536 l 1,37,-1
 653 540 l 1,0,-1
467 594 m 128,-1,39
 447 594 447 594 390.5 613 c 128,-1,40
 334 632 334 632 318 632 c 0,41,42
 293 632 293 632 268 600 c 1,43,-1
 259 590 l 1,44,-1
 218 618 l 1,45,46
 243 660 243 660 271.5 691.5 c 128,-1,47
 300 723 300 723 320 723 c 128,-1,48
 340 723 340 723 397 704 c 128,-1,49
 454 685 454 685 470 685 c 0,50,51
 496 685 496 685 517 714 c 1,52,-1
 524 723 l 1,53,-1
 567 695 l 1,54,55
 547 659 547 659 517 626.5 c 128,-1,38
 487 594 487 594 467 594 c 128,-1,39
EndSplineSet
EndChar

StartChar: ograve
Encoding: 242 242 178
Width: 594
GlyphClass: 2
Flags: W
LayerCount: 2
Fore
SplineSet
592 310 m 0,0,1
 592 164 592 164 499.5 74 c 128,-1,2
 407 -16 407 -16 270 -16 c 0,3,4
 160 -16 160 -16 92.5 49.5 c 128,-1,5
 25 115 25 115 25 225 c 0,6,7
 25 371 25 371 117.5 461.5 c 128,-1,8
 210 552 210 552 348 552 c 0,9,10
 458 552 458 552 525 486.5 c 128,-1,11
 592 421 592 421 592 310 c 0,0,1
189 201 m 0,12,13
 189 133 189 133 211.5 104.5 c 128,-1,14
 234 76 234 76 281 76 c 0,15,16
 361 76 361 76 394.5 139.5 c 128,-1,17
 428 203 428 203 428 334 c 0,18,19
 428 403 428 403 406 431.5 c 128,-1,20
 384 460 384 460 337 460 c 0,21,22
 256 460 256 460 222.5 396 c 128,-1,23
 189 332 189 332 189 201 c 0,12,13
463 623 m 1,24,-1
 417 565 l 1,25,-1
 352 614 l 1,26,-1
 216 679 l 1,27,-1
 262 755 l 1,28,-1
 463 623 l 1,24,-1
EndSplineSet
EndChar

StartChar: oacute
Encoding: 243 243 179
Width: 594
GlyphClass: 2
Flags: W
LayerCount: 2
Fore
SplineSet
592 310 m 0,0,1
 592 164 592 164 499.5 74 c 128,-1,2
 407 -16 407 -16 270 -16 c 0,3,4
 160 -16 160 -16 92.5 49.5 c 128,-1,5
 25 115 25 115 25 225 c 0,6,7
 25 371 25 371 117.5 461.5 c 128,-1,8
 210 552 210 552 348 552 c 0,9,10
 458 552 458 552 525 486.5 c 128,-1,11
 592 421 592 421 592 310 c 0,0,1
189 201 m 0,12,13
 189 133 189 133 211.5 104.5 c 128,-1,14
 234 76 234 76 281 76 c 0,15,16
 361 76 361 76 394.5 139.5 c 128,-1,17
 428 203 428 203 428 334 c 0,18,19
 428 403 428 403 406 431.5 c 128,-1,20
 384 460 384 460 337 460 c 0,21,22
 256 460 256 460 222.5 396 c 128,-1,23
 189 332 189 332 189 201 c 0,12,13
450 755 m 1,24,-1
 496 679 l 1,25,26
 377 623 377 623 360 614 c 1,27,-1
 295 565 l 1,28,-1
 249 623 l 1,29,-1
 450 755 l 1,24,-1
EndSplineSet
EndChar

StartChar: ocircumflex
Encoding: 244 244 180
Width: 594
GlyphClass: 2
Flags: W
LayerCount: 2
Fore
SplineSet
592 310 m 0,0,1
 592 164 592 164 499.5 74 c 128,-1,2
 407 -16 407 -16 270 -16 c 0,3,4
 160 -16 160 -16 92.5 49.5 c 128,-1,5
 25 115 25 115 25 225 c 0,6,7
 25 371 25 371 117.5 461.5 c 128,-1,8
 210 552 210 552 348 552 c 0,9,10
 458 552 458 552 525 486.5 c 128,-1,11
 592 421 592 421 592 310 c 0,0,1
189 201 m 0,12,13
 189 133 189 133 211.5 104.5 c 128,-1,14
 234 76 234 76 281 76 c 0,15,16
 361 76 361 76 394.5 139.5 c 128,-1,17
 428 203 428 203 428 334 c 0,18,19
 428 403 428 403 406 431.5 c 128,-1,20
 384 460 384 460 337 460 c 0,21,22
 256 460 256 460 222.5 396 c 128,-1,23
 189 332 189 332 189 201 c 0,12,13
371 765 m 1,24,-1
 542 622 l 1,25,-1
 487 564 l 1,26,-1
 430 617 l 1,27,-1
 355 662 l 1,28,29
 287 626 287 626 267 617 c 1,30,-1
 194 564 l 1,31,-1
 158 622 l 1,32,-1
 371 765 l 1,24,-1
EndSplineSet
EndChar

StartChar: otilde
Encoding: 245 245 181
Width: 594
GlyphClass: 2
Flags: W
LayerCount: 2
Fore
SplineSet
592 310 m 0,0,1
 592 164 592 164 499.5 74 c 128,-1,2
 407 -16 407 -16 270 -16 c 0,3,4
 160 -16 160 -16 92.5 49.5 c 128,-1,5
 25 115 25 115 25 225 c 0,6,7
 25 371 25 371 117.5 461.5 c 128,-1,8
 210 552 210 552 348 552 c 0,9,10
 458 552 458 552 525 486.5 c 128,-1,11
 592 421 592 421 592 310 c 0,0,1
189 201 m 0,12,13
 189 133 189 133 211.5 104.5 c 128,-1,14
 234 76 234 76 281 76 c 0,15,16
 361 76 361 76 394.5 139.5 c 128,-1,17
 428 203 428 203 428 334 c 0,18,19
 428 403 428 403 406 431.5 c 128,-1,20
 384 460 384 460 337 460 c 0,21,22
 256 460 256 460 222.5 396 c 128,-1,23
 189 332 189 332 189 201 c 0,12,13
433 594 m 128,-1,25
 413 594 413 594 356.5 613 c 128,-1,26
 300 632 300 632 284 632 c 0,27,28
 259 632 259 632 234 600 c 1,29,-1
 225 590 l 1,30,-1
 184 618 l 1,31,32
 209 660 209 660 237.5 691.5 c 128,-1,33
 266 723 266 723 286 723 c 128,-1,34
 306 723 306 723 362.5 704 c 128,-1,35
 419 685 419 685 435 685 c 0,36,37
 462 685 462 685 483 714 c 1,38,-1
 490 723 l 1,39,-1
 533 695 l 1,40,41
 513 659 513 659 483 626.5 c 128,-1,24
 453 594 453 594 433 594 c 128,-1,25
EndSplineSet
EndChar

StartChar: odieresis
Encoding: 246 246 182
Width: 594
GlyphClass: 2
Flags: W
LayerCount: 2
Fore
SplineSet
592 310 m 0,0,1
 592 164 592 164 499.5 74 c 128,-1,2
 407 -16 407 -16 270 -16 c 0,3,4
 160 -16 160 -16 92.5 49.5 c 128,-1,5
 25 115 25 115 25 225 c 0,6,7
 25 371 25 371 117.5 461.5 c 128,-1,8
 210 552 210 552 348 552 c 0,9,10
 458 552 458 552 525 486.5 c 128,-1,11
 592 421 592 421 592 310 c 0,0,1
189 201 m 0,12,13
 189 133 189 133 211.5 104.5 c 128,-1,14
 234 76 234 76 281 76 c 0,15,16
 361 76 361 76 394.5 139.5 c 128,-1,17
 428 203 428 203 428 334 c 0,18,19
 428 403 428 403 406 431.5 c 128,-1,20
 384 460 384 460 337 460 c 0,21,22
 256 460 256 460 222.5 396 c 128,-1,23
 189 332 189 332 189 201 c 0,12,13
270 725 m 0,24,25
 326 725 326 725 326 668 c 0,26,27
 326 632 326 632 305.5 609 c 128,-1,28
 285 586 285 586 253.5 586 c 128,-1,29
 222 586 222 586 207 601.5 c 128,-1,30
 192 617 192 617 192 648 c 128,-1,31
 192 679 192 679 213 702 c 128,-1,32
 234 725 234 725 270 725 c 0,24,25
500 725 m 0,33,34
 556 725 556 725 556 668 c 0,35,36
 556 632 556 632 535.5 609 c 128,-1,37
 515 586 515 586 483.5 586 c 128,-1,38
 452 586 452 586 437.5 601.5 c 128,-1,39
 423 617 423 617 423 648 c 128,-1,40
 423 679 423 679 443.5 702 c 128,-1,41
 464 725 464 725 500 725 c 0,33,34
EndSplineSet
EndChar

StartChar: divide
Encoding: 247 247 183
Width: 591
GlyphClass: 2
Flags: W
LayerCount: 2
Fore
SplineSet
506 208 m 1,0,-1
 50 203 l 1,1,-1
 65 308 l 1,2,-1
 520 308 l 1,3,-1
 506 208 l 1,0,-1
319 516 m 0,4,5
 385 516 385 516 385 451 c 0,6,7
 385 416 385 416 360 386.5 c 128,-1,8
 335 357 335 357 302 357 c 0,9,10
 237 357 237 357 237 421 c 0,11,12
 237 456 237 456 261.5 486 c 128,-1,13
 286 516 286 516 319 516 c 0,4,5
266 153 m 0,14,15
 332 153 332 153 332 88 c 0,16,17
 332 53 332 53 307 23.5 c 128,-1,18
 282 -6 282 -6 249 -6 c 0,19,20
 184 -6 184 -6 184 58 c 0,21,22
 184 93 184 93 208.5 123 c 128,-1,23
 233 153 233 153 266 153 c 0,14,15
EndSplineSet
EndChar

StartChar: oslash
Encoding: 248 248 184
Width: 594
GlyphClass: 2
Flags: W
LayerCount: 2
Fore
SplineSet
495 511 m 1,0,1
 592 446 592 446 592 305 c 128,-1,2
 592 164 592 164 499.5 74 c 128,-1,3
 407 -16 407 -16 270 -16 c 0,4,5
 212 -16 212 -16 160 5 c 1,6,-1
 87 -105 l 1,7,-1
 41 -80 l 1,8,-1
 114 30 l 1,9,10
 25 97 25 97 25 225 c 0,11,12
 25 371 25 371 117.5 461.5 c 128,-1,13
 210 552 210 552 348 552 c 0,14,15
 403 552 403 552 448 534 c 1,16,-1
 516 637 l 1,17,-1
 562 612 l 1,18,-1
 495 511 l 1,0,1
428 334 m 0,19,20
 428 369 428 369 421 399 c 1,21,-1
 220 95 l 1,22,23
 240 76 240 76 281 76 c 0,24,25
 361 76 361 76 394.5 139.5 c 128,-1,26
 428 203 428 203 428 334 c 0,19,20
189 201 m 0,27,28
 189 168 189 168 193 149 c 1,29,-1
 390 446 l 1,30,31
 370 460 370 460 337 460 c 0,32,33
 256 460 256 460 222.5 396 c 128,-1,34
 189 332 189 332 189 201 c 0,27,28
EndSplineSet
EndChar

StartChar: ugrave
Encoding: 249 249 185
Width: 613
GlyphClass: 2
Flags: W
LayerCount: 2
Fore
SplineSet
275 -11 m 128,-1,1
 164 -11 164 -11 114 47 c 0,2,3
 76 92 76 92 76 160 c 0,4,5
 76 181 76 181 79 204 c 2,6,-1
 103 368 l 2,7,8
 112 423 112 423 112 441 c 128,-1,9
 112 459 112 459 111 465 c 1,10,-1
 69 474 l 1,11,-1
 83 540 l 1,12,13
 103 536 103 536 150 536 c 1,14,-1
 324 540 l 1,15,-1
 318 469 l 1,16,-1
 273 465 l 1,17,18
 259 432 259 432 259 416 c 1,19,-1
 226 195 l 2,20,21
 225 186 225 186 225 178 c 0,22,23
 225 147 225 147 244.5 121.5 c 128,-1,24
 264 96 264 96 312 96 c 128,-1,25
 360 96 360 96 382.5 119.5 c 128,-1,26
 405 143 405 143 412 195 c 2,27,-1
 438 368 l 1,28,29
 446 429 446 429 446 465 c 1,30,-1
 404 474 l 1,31,-1
 418 540 l 1,32,33
 442 536 442 536 490 536 c 1,34,-1
 635 540 l 1,35,-1
 629 469 l 1,36,-1
 584 465 l 1,37,38
 571 422 571 422 571 416 c 2,39,-1
 539 204 l 2,40,41
 524 105 524 105 455 47 c 128,-1,0
 386 -11 386 -11 275 -11 c 128,-1,1
482 623 m 1,42,-1
 436 565 l 1,43,-1
 371 614 l 1,44,-1
 235 679 l 1,45,-1
 281 755 l 1,46,-1
 482 623 l 1,42,-1
EndSplineSet
EndChar

StartChar: uacute
Encoding: 250 250 186
Width: 613
GlyphClass: 2
Flags: W
LayerCount: 2
Fore
SplineSet
275 -11 m 128,-1,1
 164 -11 164 -11 114 47 c 0,2,3
 76 92 76 92 76 160 c 0,4,5
 76 181 76 181 79 204 c 2,6,-1
 103 368 l 2,7,8
 112 423 112 423 112 441 c 128,-1,9
 112 459 112 459 111 465 c 1,10,-1
 69 474 l 1,11,-1
 83 540 l 1,12,13
 103 536 103 536 150 536 c 1,14,-1
 324 540 l 1,15,-1
 318 469 l 1,16,-1
 273 465 l 1,17,18
 259 432 259 432 259 416 c 1,19,-1
 226 195 l 2,20,21
 225 186 225 186 225 178 c 0,22,23
 225 147 225 147 244.5 121.5 c 128,-1,24
 264 96 264 96 312 96 c 128,-1,25
 360 96 360 96 382.5 119.5 c 128,-1,26
 405 143 405 143 412 195 c 2,27,-1
 438 368 l 1,28,29
 446 429 446 429 446 465 c 1,30,-1
 404 474 l 1,31,-1
 418 540 l 1,32,33
 442 536 442 536 490 536 c 1,34,-1
 635 540 l 1,35,-1
 629 469 l 1,36,-1
 584 465 l 1,37,38
 571 422 571 422 571 416 c 2,39,-1
 539 204 l 2,40,41
 524 105 524 105 455 47 c 128,-1,0
 386 -11 386 -11 275 -11 c 128,-1,1
469 755 m 1,42,-1
 515 679 l 1,43,44
 396 623 396 623 379 614 c 1,45,-1
 314 565 l 1,46,-1
 268 623 l 1,47,-1
 469 755 l 1,42,-1
EndSplineSet
EndChar

StartChar: ucircumflex
Encoding: 251 251 187
Width: 613
GlyphClass: 2
Flags: W
LayerCount: 2
Fore
SplineSet
275 -11 m 128,-1,1
 164 -11 164 -11 114 47 c 0,2,3
 76 92 76 92 76 160 c 0,4,5
 76 181 76 181 79 204 c 2,6,-1
 103 368 l 2,7,8
 112 423 112 423 112 441 c 128,-1,9
 112 459 112 459 111 465 c 1,10,-1
 69 474 l 1,11,-1
 83 540 l 1,12,13
 103 536 103 536 150 536 c 1,14,-1
 324 540 l 1,15,-1
 318 469 l 1,16,-1
 273 465 l 1,17,18
 259 432 259 432 259 416 c 1,19,-1
 226 195 l 2,20,21
 225 186 225 186 225 178 c 0,22,23
 225 147 225 147 244.5 121.5 c 128,-1,24
 264 96 264 96 312 96 c 128,-1,25
 360 96 360 96 382.5 119.5 c 128,-1,26
 405 143 405 143 412 195 c 2,27,-1
 438 368 l 1,28,29
 446 429 446 429 446 465 c 1,30,-1
 404 474 l 1,31,-1
 418 540 l 1,32,33
 442 536 442 536 490 536 c 1,34,-1
 635 540 l 1,35,-1
 629 469 l 1,36,-1
 584 465 l 1,37,38
 571 422 571 422 571 416 c 2,39,-1
 539 204 l 2,40,41
 524 105 524 105 455 47 c 128,-1,0
 386 -11 386 -11 275 -11 c 128,-1,1
401 765 m 1,42,-1
 572 622 l 1,43,-1
 517 564 l 1,44,-1
 460 617 l 1,45,-1
 385 662 l 1,46,47
 317 626 317 626 297 617 c 1,48,-1
 224 564 l 1,49,-1
 188 622 l 1,50,-1
 401 765 l 1,42,-1
EndSplineSet
EndChar

StartChar: udieresis
Encoding: 252 252 188
Width: 613
GlyphClass: 2
Flags: W
LayerCount: 2
Fore
SplineSet
275 -11 m 128,-1,1
 164 -11 164 -11 114 47 c 0,2,3
 76 92 76 92 76 160 c 0,4,5
 76 181 76 181 79 204 c 2,6,-1
 103 368 l 2,7,8
 112 423 112 423 112 441 c 128,-1,9
 112 459 112 459 111 465 c 1,10,-1
 69 474 l 1,11,-1
 83 540 l 1,12,13
 103 536 103 536 150 536 c 1,14,-1
 324 540 l 1,15,-1
 318 469 l 1,16,-1
 273 465 l 1,17,18
 259 432 259 432 259 416 c 1,19,-1
 226 195 l 2,20,21
 225 186 225 186 225 178 c 0,22,23
 225 147 225 147 244.5 121.5 c 128,-1,24
 264 96 264 96 312 96 c 128,-1,25
 360 96 360 96 382.5 119.5 c 128,-1,26
 405 143 405 143 412 195 c 2,27,-1
 438 368 l 1,28,29
 446 429 446 429 446 465 c 1,30,-1
 404 474 l 1,31,-1
 418 540 l 1,32,33
 442 536 442 536 490 536 c 1,34,-1
 635 540 l 1,35,-1
 629 469 l 1,36,-1
 584 465 l 1,37,38
 571 422 571 422 571 416 c 2,39,-1
 539 204 l 2,40,41
 524 105 524 105 455 47 c 128,-1,0
 386 -11 386 -11 275 -11 c 128,-1,1
280 725 m 0,42,43
 336 725 336 725 336 668 c 0,44,45
 336 632 336 632 315.5 609 c 128,-1,46
 295 586 295 586 263.5 586 c 128,-1,47
 232 586 232 586 217 601.5 c 128,-1,48
 202 617 202 617 202 648 c 128,-1,49
 202 679 202 679 223 702 c 128,-1,50
 244 725 244 725 280 725 c 0,42,43
510 725 m 0,51,52
 566 725 566 725 566 668 c 0,53,54
 566 632 566 632 545.5 609 c 128,-1,55
 525 586 525 586 493.5 586 c 128,-1,56
 462 586 462 586 447.5 601.5 c 128,-1,57
 433 617 433 617 433 648 c 128,-1,58
 433 679 433 679 453.5 702 c 128,-1,59
 474 725 474 725 510 725 c 0,51,52
EndSplineSet
EndChar

StartChar: yacute
Encoding: 253 253 189
Width: 561
GlyphClass: 2
Flags: W
LayerCount: 2
Fore
SplineSet
605 474 m 1,0,-1
 565 473 l 1,1,2
 520 429 520 429 509 413 c 2,3,-1
 353 173 l 1,4,-1
 351 157 l 1,5,6
 345 121 345 121 345 65 c 1,7,-1
 383 61 l 1,8,-1
 370 -4 l 1,9,10
 303 0 303 0 204 0 c 1,11,-1
 137 -4 l 1,12,-1
 142 58 l 1,13,-1
 187 65 l 1,14,15
 187 67 187 67 194.5 96 c 128,-1,16
 202 125 202 125 204 134 c 2,17,-1
 212 190 l 1,18,-1
 107 447 l 2,19,20
 103 457 103 457 79 475 c 1,21,-1
 38 482 l 1,22,-1
 51 542 l 1,23,24
 82 536 82 536 111 536 c 2,25,-1
 294 540 l 1,26,-1
 288 474 l 1,27,-1
 260 472 l 1,28,-1
 258 455 l 1,29,-1
 314 291 l 1,30,-1
 418 453 l 1,31,-1
 414 472 l 1,32,-1
 396 482 l 1,33,-1
 409 542 l 1,34,35
 457 536 457 536 499 536 c 1,36,-1
 611 540 l 1,37,-1
 605 474 l 1,0,-1
454 755 m 1,38,-1
 500 679 l 1,39,40
 381 623 381 623 364 614 c 1,41,-1
 299 565 l 1,42,-1
 253 623 l 1,43,-1
 454 755 l 1,38,-1
EndSplineSet
EndChar

StartChar: thorn
Encoding: 254 254 190
Width: 462
GlyphClass: 2
Flags: W
LayerCount: 2
Fore
SplineSet
207 109 m 1,0,-1
 206 74 l 2,1,2
 206 68 206 68 205 65 c 1,3,-1
 244 61 l 1,4,-1
 231 -4 l 1,5,6
 166 0 166 0 69 0 c 1,7,-1
 0 -4 l 1,8,-1
 5 58 l 1,9,-1
 51 65 l 1,10,11
 63 108 63 108 68 135 c 1,12,-1
 101 366 l 2,13,14
 105 389 105 389 110 465 c 1,15,-1
 66 474 l 1,16,-1
 80 540 l 1,17,18
 102 536 102 536 148 536 c 1,19,-1
 316 540 l 1,20,-1
 308 469 l 1,21,-1
 264 465 l 1,22,23
 263 462 263 462 258.5 449 c 128,-1,24
 254 436 254 436 252 430 c 1,25,26
 300 432 300 432 310 432 c 0,27,28
 382 432 382 432 426 394 c 128,-1,29
 470 356 470 356 470 292 c 0,30,31
 470 208 470 208 407.5 159 c 128,-1,32
 345 110 345 110 256 110 c 1,33,-1
 207 109 l 1,0,-1
295.5 215 m 128,-1,35
 325 243 325 243 325 284.5 c 128,-1,36
 325 326 325 326 308 341 c 128,-1,37
 291 356 291 356 250 356 c 1,38,39
 246 358 246 358 241 358 c 1,40,-1
 216 185 l 1,41,34
 266 187 266 187 295.5 215 c 128,-1,35
EndSplineSet
EndChar

StartChar: ydieresis
Encoding: 255 255 191
Width: 561
GlyphClass: 2
Flags: W
LayerCount: 2
Fore
SplineSet
605 474 m 1,0,-1
 565 473 l 1,1,2
 520 429 520 429 509 413 c 2,3,-1
 353 173 l 1,4,-1
 351 157 l 1,5,6
 345 121 345 121 345 65 c 1,7,-1
 383 61 l 1,8,-1
 370 -4 l 1,9,10
 303 0 303 0 204 0 c 1,11,-1
 137 -4 l 1,12,-1
 142 58 l 1,13,-1
 187 65 l 1,14,15
 187 67 187 67 194.5 96 c 128,-1,16
 202 125 202 125 204 134 c 2,17,-1
 212 190 l 1,18,-1
 107 447 l 2,19,20
 103 457 103 457 79 475 c 1,21,-1
 38 482 l 1,22,-1
 51 542 l 1,23,24
 82 536 82 536 111 536 c 2,25,-1
 294 540 l 1,26,-1
 288 474 l 1,27,-1
 260 472 l 1,28,-1
 258 455 l 1,29,-1
 314 291 l 1,30,-1
 418 453 l 1,31,-1
 414 472 l 1,32,-1
 396 482 l 1,33,-1
 409 542 l 1,34,35
 457 536 457 536 499 536 c 1,36,-1
 611 540 l 1,37,-1
 605 474 l 1,0,-1
254 725 m 0,38,39
 310 725 310 725 310 668 c 0,40,41
 310 632 310 632 289.5 609 c 128,-1,42
 269 586 269 586 237.5 586 c 128,-1,43
 206 586 206 586 191 601.5 c 128,-1,44
 176 617 176 617 176 648 c 128,-1,45
 176 679 176 679 197 702 c 128,-1,46
 218 725 218 725 254 725 c 0,38,39
484 725 m 0,47,48
 540 725 540 725 540 668 c 0,49,50
 540 632 540 632 519.5 609 c 128,-1,51
 499 586 499 586 467.5 586 c 128,-1,52
 436 586 436 586 421.5 601.5 c 128,-1,53
 407 617 407 617 407 648 c 128,-1,54
 407 679 407 679 427.5 702 c 128,-1,55
 448 725 448 725 484 725 c 0,47,48
EndSplineSet
EndChar

StartChar: Amacron
Encoding: 256 256 192
Width: 647
GlyphClass: 2
Flags: W
LayerCount: 2
Fore
SplineSet
622 65 m 1,0,-1
 607 -5 l 1,1,2
 562 0 562 0 527 0 c 2,3,-1
 324 -5 l 1,4,-1
 330 68 l 1,5,-1
 388 77 l 1,6,-1
 392 129 l 1,7,-1
 386 179 l 1,8,-1
 205 179 l 1,9,-1
 180 115 l 1,10,-1
 169 77 l 1,11,-1
 223 65 l 1,12,-1
 208 -5 l 1,13,14
 151 0 151 0 104 0 c 1,15,-1
 -31 -5 l 1,16,-1
 -26 68 l 1,17,-1
 18 75 l 1,18,-1
 71 161 l 1,19,-1
 332 705 l 1,20,-1
 446 716 l 1,21,-1
 556 128 l 1,22,-1
 569 74 l 1,23,-1
 622 65 l 1,0,-1
347 498 m 1,24,-1
 244 261 l 1,25,-1
 373 263 l 1,26,-1
 347 498 l 1,24,-1
567 771 m 1,27,-1
 241 771 l 1,28,-1
 252 844 l 1,29,-1
 585 844 l 1,30,-1
 567 771 l 1,27,-1
EndSplineSet
EndChar

StartChar: amacron
Encoding: 257 257 193
Width: 508
GlyphClass: 2
Flags: W
LayerCount: 2
Fore
SplineSet
487 54 m 1,0,-1
 474 -6 l 1,1,2
 448 0 448 0 420 0 c 2,3,-1
 239 -4 l 1,4,-1
 245 61 l 1,5,-1
 284 64 l 1,6,-1
 292 81 l 1,7,-1
 290 115 l 1,8,-1
 162 115 l 1,9,-1
 151 83 l 1,10,-1
 146 64 l 1,11,-1
 183 54 l 1,12,-1
 170 -6 l 1,13,14
 125 0 125 0 83 0 c 1,15,-1
 -23 -4 l 1,16,-1
 -18 61 l 1,17,-1
 8 63 l 1,18,-1
 48 123 l 1,19,-1
 253 536 l 1,20,-1
 362 545 l 1,21,-1
 448 60 l 1,22,-1
 487 54 l 1,0,-1
268 355 m 1,23,-1
 198 190 l 1,24,-1
 279 191 l 1,25,-1
 268 355 l 1,23,-1
489 596 m 1,26,-1
 163 596 l 1,27,-1
 174 669 l 1,28,-1
 507 669 l 1,29,-1
 489 596 l 1,26,-1
EndSplineSet
EndChar

StartChar: Abreve
Encoding: 258 258 194
Width: 647
GlyphClass: 2
Flags: W
LayerCount: 2
Fore
SplineSet
622 65 m 1,0,-1
 607 -5 l 1,1,2
 562 0 562 0 527 0 c 2,3,-1
 324 -5 l 1,4,-1
 330 68 l 1,5,-1
 388 77 l 1,6,-1
 392 129 l 1,7,-1
 386 179 l 1,8,-1
 205 179 l 1,9,-1
 180 115 l 1,10,-1
 169 77 l 1,11,-1
 223 65 l 1,12,-1
 208 -5 l 1,13,14
 151 0 151 0 104 0 c 1,15,-1
 -31 -5 l 1,16,-1
 -26 68 l 1,17,-1
 18 75 l 1,18,-1
 71 161 l 1,19,-1
 332 705 l 1,20,-1
 446 716 l 1,21,-1
 556 128 l 1,22,-1
 569 74 l 1,23,-1
 622 65 l 1,0,-1
347 498 m 1,24,-1
 244 261 l 1,25,-1
 373 263 l 1,26,-1
 347 498 l 1,24,-1
386 743 m 128,-1,28
 317 743 317 743 282 784 c 0,29,30
 256 815 256 815 256 866 c 0,31,32
 256 881 256 881 258 898 c 1,33,-1
 322 898 l 1,34,35
 321 891 321 891 321 884 c 0,36,37
 321 857 321 857 340 838 c 128,-1,38
 359 819 359 819 396.5 819 c 128,-1,39
 434 819 434 819 461 840 c 128,-1,40
 488 861 488 861 493 898 c 1,41,-1
 557 898 l 1,42,43
 547 824 547 824 501 783.5 c 128,-1,27
 455 743 455 743 386 743 c 128,-1,28
EndSplineSet
EndChar

StartChar: abreve
Encoding: 259 259 195
Width: 508
GlyphClass: 2
Flags: W
LayerCount: 2
Fore
SplineSet
487 54 m 1,0,-1
 474 -6 l 1,1,2
 448 0 448 0 420 0 c 2,3,-1
 239 -4 l 1,4,-1
 245 61 l 1,5,-1
 284 64 l 1,6,-1
 292 81 l 1,7,-1
 290 115 l 1,8,-1
 162 115 l 1,9,-1
 151 83 l 1,10,-1
 146 64 l 1,11,-1
 183 54 l 1,12,-1
 170 -6 l 1,13,14
 125 0 125 0 83 0 c 1,15,-1
 -23 -4 l 1,16,-1
 -18 61 l 1,17,-1
 8 63 l 1,18,-1
 48 123 l 1,19,-1
 253 536 l 1,20,-1
 362 545 l 1,21,-1
 448 60 l 1,22,-1
 487 54 l 1,0,-1
268 355 m 1,23,-1
 198 190 l 1,24,-1
 279 191 l 1,25,-1
 268 355 l 1,23,-1
307 574 m 128,-1,27
 238 574 238 574 204 614 c 0,28,29
 177 646 177 646 177 697 c 0,30,31
 177 712 177 712 179 729 c 1,32,-1
 243 729 l 1,33,34
 242 722 242 722 242 715 c 0,35,36
 242 688 242 688 261 669 c 128,-1,37
 280 650 280 650 317.5 650 c 128,-1,38
 355 650 355 650 382 671 c 128,-1,39
 409 692 409 692 414 729 c 1,40,-1
 478 729 l 1,41,42
 468 655 468 655 422 614.5 c 128,-1,26
 376 574 376 574 307 574 c 128,-1,27
EndSplineSet
EndChar

StartChar: Aogonek
Encoding: 260 260 196
Width: 643
GlyphClass: 2
Flags: W
LayerCount: 2
Fore
SplineSet
354 -93 m 0,0,1
 354 -133 354 -133 392 -133 c 0,2,3
 406 -133 406 -133 426 -126 c 1,4,-1
 437 -174 l 1,5,6
 386 -197 386 -197 341.5 -197 c 128,-1,7
 297 -197 297 -197 272 -177.5 c 128,-1,8
 247 -158 247 -158 247 -126 c 128,-1,9
 247 -94 247 -94 262 -70.5 c 128,-1,10
 277 -47 277 -47 298.5 -28 c 128,-1,11
 320 -9 320 -9 341 10 c 0,12,13
 392 58 392 58 392 120 c 2,14,-1
 392 129 l 1,15,-1
 386 179 l 1,16,-1
 202 179 l 1,17,-1
 177 115 l 1,18,-1
 165 77 l 1,19,-1
 219 65 l 1,20,-1
 204 -5 l 1,21,22
 148 0 148 0 103 0 c 1,23,-1
 -33 -5 l 1,24,-1
 -27 68 l 1,25,-1
 18 75 l 1,26,-1
 70 161 l 1,27,-1
 334 705 l 1,28,-1
 443 716 l 1,29,-1
 552 128 l 1,30,-1
 567 74 l 1,31,-1
 619 65 l 1,32,-1
 604 -5 l 1,33,34
 558 0 558 0 524 0 c 2,35,-1
 440 0 l 1,36,37
 402 -6 402 -6 378 -34.5 c 128,-1,38
 354 -63 354 -63 354 -93 c 0,0,1
345 498 m 1,39,-1
 241 261 l 1,40,-1
 372 263 l 1,41,-1
 345 498 l 1,39,-1
EndSplineSet
EndChar

StartChar: aogonek
Encoding: 261 261 197
Width: 508
GlyphClass: 2
Flags: W
LayerCount: 2
Fore
SplineSet
420 0 m 2,0,-1
 343 0 l 1,1,2
 305 -6 305 -6 281.5 -34.5 c 128,-1,3
 258 -63 258 -63 258 -93 c 0,4,5
 258 -133 258 -133 295 -133 c 0,6,7
 311 -133 311 -133 329 -126 c 1,8,-1
 340 -174 l 1,9,10
 289 -197 289 -197 245 -197 c 128,-1,11
 201 -197 201 -197 175.5 -177.5 c 128,-1,12
 150 -158 150 -158 150 -126.5 c 128,-1,13
 150 -95 150 -95 169 -69.5 c 128,-1,14
 188 -44 188 -44 212 -25.5 c 128,-1,15
 236 -7 236 -7 259.5 22 c 128,-1,16
 283 51 283 51 290 82 c 1,17,-1
 290 115 l 1,18,-1
 162 115 l 1,19,-1
 151 83 l 1,20,-1
 146 64 l 1,21,-1
 183 54 l 1,22,-1
 170 -6 l 1,23,24
 125 0 125 0 83 0 c 1,25,-1
 -23 -4 l 1,26,-1
 -18 61 l 1,27,-1
 8 63 l 1,28,-1
 48 123 l 1,29,-1
 253 536 l 1,30,-1
 362 545 l 1,31,-1
 448 60 l 1,32,-1
 487 54 l 1,33,-1
 474 -6 l 1,34,35
 448 0 448 0 420 0 c 2,0,-1
268 355 m 1,36,-1
 198 190 l 1,37,-1
 279 191 l 1,38,-1
 268 355 l 1,36,-1
EndSplineSet
EndChar

StartChar: Cacute
Encoding: 262 262 198
Width: 620
GlyphClass: 2
Flags: W
LayerCount: 2
Fore
SplineSet
332 -15 m 0,0,1
 187 -15 187 -15 110.5 66.5 c 128,-1,2
 34 148 34 148 34 287 c 0,3,4
 34 478 34 478 139 599 c 128,-1,5
 244 720 244 720 433 720 c 0,6,7
 511 720 511 720 641 686 c 1,8,-1
 603 507 l 1,9,-1
 528 511 l 1,10,-1
 534 572 l 2,11,12
 535 581 535 581 528 613 c 1,13,14
 467 627 467 627 417 627 c 128,-1,15
 367 627 367 627 325 596 c 128,-1,16
 283 565 283 565 260 514 c 0,17,18
 213 412 213 412 213 277 c 0,19,20
 213 187 213 187 244 132.5 c 128,-1,21
 275 78 275 78 335.5 78 c 128,-1,22
 396 78 396 78 463 93 c 1,23,24
 464 95 464 95 470 106 c 0,25,26
 486 137 486 137 486 142 c 1,27,-1
 496 189 l 1,28,-1
 570 191 l 1,29,-1
 553 19 l 1,30,31
 413 -15 413 -15 332 -15 c 0,0,1
525 908 m 1,32,-1
 560 824 l 1,33,34
 421 784 421 784 402 778 c 1,35,-1
 331 740 l 1,36,-1
 295 804 l 1,37,-1
 525 908 l 1,32,-1
EndSplineSet
EndChar

StartChar: cacute
Encoding: 263 263 199
Width: 496
GlyphClass: 2
Flags: W
LayerCount: 2
Fore
SplineSet
264 -11 m 0,0,1
 146 -11 146 -11 85 51.5 c 128,-1,2
 24 114 24 114 24 221 c 0,3,4
 24 365 24 365 108 456 c 128,-1,5
 192 547 192 547 343 547 c 0,6,7
 412 547 412 547 508 521 c 1,8,-1
 476 373 l 1,9,-1
 412 376 l 1,10,-1
 416 428 l 2,11,12
 417 432 417 432 411 455 c 1,13,14
 374 462 374 462 334 462 c 128,-1,15
 294 462 294 462 264.5 439 c 128,-1,16
 235 416 235 416 220 376 c 0,17,18
 192 303 192 303 192 208 c 0,19,20
 192 73 192 73 272 73 c 0,21,22
 312 73 312 73 364 82 c 1,23,24
 368 88 368 88 370.5 92.5 c 128,-1,25
 373 97 373 97 376 102 c 0,26,27
 383 112 383 112 383 116 c 2,28,-1
 391 152 l 1,29,-1
 454 154 l 1,30,-1
 440 14 l 1,31,32
 334 -11 334 -11 264 -11 c 0,0,1
450 755 m 1,33,-1
 496 679 l 1,34,35
 377 623 377 623 360 614 c 1,36,-1
 295 565 l 1,37,-1
 249 623 l 1,38,-1
 450 755 l 1,33,-1
EndSplineSet
EndChar

StartChar: Ccircumflex
Encoding: 264 264 200
Width: 620
GlyphClass: 2
Flags: W
LayerCount: 2
Fore
SplineSet
332 -15 m 0,0,1
 187 -15 187 -15 110.5 66.5 c 128,-1,2
 34 148 34 148 34 287 c 0,3,4
 34 478 34 478 139 599 c 128,-1,5
 244 720 244 720 433 720 c 0,6,7
 511 720 511 720 641 686 c 1,8,-1
 603 507 l 1,9,-1
 528 511 l 1,10,-1
 534 572 l 2,11,12
 535 581 535 581 528 613 c 1,13,14
 467 627 467 627 417 627 c 128,-1,15
 367 627 367 627 325 596 c 128,-1,16
 283 565 283 565 260 514 c 0,17,18
 213 412 213 412 213 277 c 0,19,20
 213 187 213 187 244 132.5 c 128,-1,21
 275 78 275 78 335.5 78 c 128,-1,22
 396 78 396 78 463 93 c 1,23,24
 464 95 464 95 470 106 c 0,25,26
 486 137 486 137 486 142 c 1,27,-1
 496 189 l 1,28,-1
 570 191 l 1,29,-1
 553 19 l 1,30,31
 413 -15 413 -15 332 -15 c 0,0,1
462 943 m 1,32,-1
 633 810 l 1,33,-1
 578 752 l 1,34,-1
 521 800 l 1,35,-1
 446 842 l 1,36,-1
 358 800 l 1,37,-1
 285 752 l 1,38,-1
 249 810 l 1,39,-1
 462 943 l 1,32,-1
EndSplineSet
EndChar

StartChar: ccircumflex
Encoding: 265 265 201
Width: 496
GlyphClass: 2
Flags: W
LayerCount: 2
Fore
SplineSet
264 -11 m 0,0,1
 146 -11 146 -11 85 51.5 c 128,-1,2
 24 114 24 114 24 221 c 0,3,4
 24 365 24 365 108 456 c 128,-1,5
 192 547 192 547 343 547 c 0,6,7
 412 547 412 547 508 521 c 1,8,-1
 476 373 l 1,9,-1
 412 376 l 1,10,-1
 416 428 l 2,11,12
 417 432 417 432 411 455 c 1,13,14
 374 462 374 462 334 462 c 128,-1,15
 294 462 294 462 264.5 439 c 128,-1,16
 235 416 235 416 220 376 c 0,17,18
 192 303 192 303 192 208 c 0,19,20
 192 73 192 73 272 73 c 0,21,22
 312 73 312 73 364 82 c 1,23,24
 368 88 368 88 370.5 92.5 c 128,-1,25
 373 97 373 97 376 102 c 0,26,27
 383 112 383 112 383 116 c 2,28,-1
 391 152 l 1,29,-1
 454 154 l 1,30,-1
 440 14 l 1,31,32
 334 -11 334 -11 264 -11 c 0,0,1
370 765 m 1,33,-1
 541 622 l 1,34,-1
 486 564 l 1,35,-1
 429 617 l 1,36,-1
 354 662 l 1,37,38
 286 626 286 626 266 617 c 1,39,-1
 193 564 l 1,40,-1
 157 622 l 1,41,-1
 370 765 l 1,33,-1
EndSplineSet
EndChar

StartChar: Cdotaccent
Encoding: 266 266 202
Width: 620
GlyphClass: 2
Flags: W
LayerCount: 2
Fore
SplineSet
332 -15 m 0,0,1
 187 -15 187 -15 110.5 66.5 c 128,-1,2
 34 148 34 148 34 287 c 0,3,4
 34 478 34 478 139 599 c 128,-1,5
 244 720 244 720 433 720 c 0,6,7
 511 720 511 720 641 686 c 1,8,-1
 603 507 l 1,9,-1
 528 511 l 1,10,-1
 534 572 l 2,11,12
 535 581 535 581 528 613 c 1,13,14
 467 627 467 627 417 627 c 128,-1,15
 367 627 367 627 325 596 c 128,-1,16
 283 565 283 565 260 514 c 0,17,18
 213 412 213 412 213 277 c 0,19,20
 213 187 213 187 244 132.5 c 128,-1,21
 275 78 275 78 335.5 78 c 128,-1,22
 396 78 396 78 463 93 c 1,23,24
 464 95 464 95 470 106 c 0,25,26
 486 137 486 137 486 142 c 1,27,-1
 496 189 l 1,28,-1
 570 191 l 1,29,-1
 553 19 l 1,30,31
 413 -15 413 -15 332 -15 c 0,0,1
382 879 m 128,-1,33
 406 905 406 905 442.5 905 c 128,-1,34
 479 905 479 905 496.5 887.5 c 128,-1,35
 514 870 514 870 514 834 c 128,-1,36
 514 798 514 798 490 772 c 128,-1,37
 466 746 466 746 429.5 746 c 128,-1,38
 393 746 393 746 375.5 764 c 128,-1,39
 358 782 358 782 358 817.5 c 128,-1,32
 358 853 358 853 382 879 c 128,-1,33
EndSplineSet
EndChar

StartChar: cdotaccent
Encoding: 267 267 203
Width: 496
GlyphClass: 2
Flags: W
LayerCount: 2
Fore
SplineSet
264 -11 m 0,0,1
 146 -11 146 -11 85 51.5 c 128,-1,2
 24 114 24 114 24 221 c 0,3,4
 24 365 24 365 108 456 c 128,-1,5
 192 547 192 547 343 547 c 0,6,7
 412 547 412 547 508 521 c 1,8,-1
 476 373 l 1,9,-1
 412 376 l 1,10,-1
 416 428 l 2,11,12
 417 432 417 432 411 455 c 1,13,14
 374 462 374 462 334 462 c 128,-1,15
 294 462 294 462 264.5 439 c 128,-1,16
 235 416 235 416 220 376 c 0,17,18
 192 303 192 303 192 208 c 0,19,20
 192 73 192 73 272 73 c 0,21,22
 312 73 312 73 364 82 c 1,23,24
 368 88 368 88 370.5 92.5 c 128,-1,25
 373 97 373 97 376 102 c 0,26,27
 383 112 383 112 383 116 c 2,28,-1
 391 152 l 1,29,-1
 454 154 l 1,30,-1
 440 14 l 1,31,32
 334 -11 334 -11 264 -11 c 0,0,1
310 709 m 128,-1,34
 334 735 334 735 370.5 735 c 128,-1,35
 407 735 407 735 424.5 717.5 c 128,-1,36
 442 700 442 700 442 664 c 128,-1,37
 442 628 442 628 418 602 c 128,-1,38
 394 576 394 576 357.5 576 c 128,-1,39
 321 576 321 576 303.5 594 c 128,-1,40
 286 612 286 612 286 647.5 c 128,-1,33
 286 683 286 683 310 709 c 128,-1,34
EndSplineSet
EndChar

StartChar: Ccaron
Encoding: 268 268 204
Width: 620
GlyphClass: 2
Flags: W
LayerCount: 2
Fore
SplineSet
332 -15 m 0,0,1
 187 -15 187 -15 110.5 66.5 c 128,-1,2
 34 148 34 148 34 287 c 0,3,4
 34 478 34 478 139 599 c 128,-1,5
 244 720 244 720 433 720 c 0,6,7
 511 720 511 720 641 686 c 1,8,-1
 603 507 l 1,9,-1
 528 511 l 1,10,-1
 534 572 l 2,11,12
 535 581 535 581 528 613 c 1,13,14
 467 627 467 627 417 627 c 128,-1,15
 367 627 367 627 325 596 c 128,-1,16
 283 565 283 565 260 514 c 0,17,18
 213 412 213 412 213 277 c 0,19,20
 213 187 213 187 244 132.5 c 128,-1,21
 275 78 275 78 335.5 78 c 128,-1,22
 396 78 396 78 463 93 c 1,23,24
 464 95 464 95 470 106 c 0,25,26
 486 137 486 137 486 142 c 1,27,-1
 496 189 l 1,28,-1
 570 191 l 1,29,-1
 553 19 l 1,30,31
 413 -15 413 -15 332 -15 c 0,0,1
610 939 m 1,32,-1
 648 881 l 1,33,-1
 436 748 l 1,34,-1
 264 881 l 1,35,-1
 317 939 l 1,36,-1
 375 890 l 1,37,-1
 451 849 l 1,38,-1
 538 890 l 1,39,-1
 610 939 l 1,32,-1
EndSplineSet
EndChar

StartChar: ccaron
Encoding: 269 269 205
Width: 496
GlyphClass: 2
Flags: W
LayerCount: 2
Fore
SplineSet
264 -11 m 0,0,1
 146 -11 146 -11 85 51.5 c 128,-1,2
 24 114 24 114 24 221 c 0,3,4
 24 365 24 365 108 456 c 128,-1,5
 192 547 192 547 343 547 c 0,6,7
 412 547 412 547 508 521 c 1,8,-1
 476 373 l 1,9,-1
 412 376 l 1,10,-1
 416 428 l 2,11,12
 417 432 417 432 411 455 c 1,13,14
 374 462 374 462 334 462 c 128,-1,15
 294 462 294 462 264.5 439 c 128,-1,16
 235 416 235 416 220 376 c 0,17,18
 192 303 192 303 192 208 c 0,19,20
 192 73 192 73 272 73 c 0,21,22
 312 73 312 73 364 82 c 1,23,24
 368 88 368 88 370.5 92.5 c 128,-1,25
 373 97 373 97 376 102 c 0,26,27
 383 112 383 112 383 116 c 2,28,-1
 391 152 l 1,29,-1
 454 154 l 1,30,-1
 440 14 l 1,31,32
 334 -11 334 -11 264 -11 c 0,0,1
239 765 m 1,33,-1
 296 712 l 1,34,35
 315 702 315 702 366 665 c 1,36,37
 428 702 428 702 449 712 c 1,38,-1
 522 765 l 1,39,-1
 564 707 l 1,40,-1
 351 564 l 1,41,-1
 180 707 l 1,42,-1
 239 765 l 1,33,-1
EndSplineSet
EndChar

StartChar: Dcaron
Encoding: 270 270 206
Width: 718
GlyphClass: 2
Flags: W
LayerCount: 2
Fore
SplineSet
214 705 m 1,0,-1
 416 715 l 1,1,2
 561 715 561 715 637.5 633.5 c 128,-1,3
 714 552 714 552 714 415 c 0,4,5
 714 229 714 229 610 111.5 c 128,-1,6
 506 -6 506 -6 317 -6 c 1,7,-1
 108 0 l 1,8,-1
 12 -5 l 1,9,-1
 17 65 l 1,10,-1
 82 77 l 1,11,12
 101 143 101 143 103 163 c 2,13,-1
 154 512 l 1,14,15
 162 556 162 556 162 606 c 2,16,-1
 162 623 l 1,17,-1
 101 635 l 1,18,-1
 117 710 l 1,19,20
 167 705 167 705 214 705 c 1,0,-1
393 632 m 0,21,22
 375 632 375 632 329 624 c 0,23,24
 329 623 329 623 322 587.5 c 128,-1,25
 315 552 315 552 314 542 c 2,26,-1
 263 193 l 1,27,28
 255 146 255 146 250 80 c 1,29,30
 277 77 277 77 310 77 c 0,31,32
 377 77 377 77 426 108 c 128,-1,33
 475 139 475 139 500 192 c 0,34,35
 548 292 548 292 548 423 c 0,36,37
 548 517 548 517 511 574.5 c 128,-1,38
 474 632 474 632 393 632 c 0,21,22
563 929 m 1,39,-1
 601 871 l 1,40,-1
 389 738 l 1,41,-1
 217 871 l 1,42,-1
 270 929 l 1,43,-1
 328 880 l 1,44,-1
 404 839 l 1,45,-1
 491 880 l 1,46,-1
 563 929 l 1,39,-1
EndSplineSet
EndChar

StartChar: dcaron
Encoding: 271 271 207
Width: 566
GlyphClass: 2
Flags: W
LayerCount: 2
Fore
SplineSet
179 536 m 2,0,-1
 337 543 l 1,1,2
 450 543 450 543 508.5 481 c 128,-1,3
 567 419 567 419 567 314 c 0,4,5
 567 173 567 173 486 84 c 128,-1,6
 405 -5 405 -5 255 -5 c 1,7,-1
 81 0 l 1,8,-1
 14 -4 l 1,9,-1
 19 58 l 1,10,-1
 64 65 l 2,11,12
 64 66 64 66 68 80 c 0,13,14
 78 114 78 114 81 134 c 2,15,-1
 115 366 l 2,16,17
 116 374 116 374 117.5 382 c 128,-1,18
 119 390 119 390 119.5 397.5 c 128,-1,19
 120 405 120 405 121 412 c 0,20,21
 123 426 123 426 123 438 c 2,22,23
 123 438 123 438 124 456 c 1,24,25
 124 456 124 456 124 462 c 0,26,27
 124 465 124 465 124 465 c 1,28,-1
 81 474 l 1,29,-1
 95 540 l 1,30,-1
 170 536 l 2,31,32
 173 536 173 536 179 536 c 2,0,-1
218 70 m 1,33,34
 234 68 234 68 244 68 c 0,35,36
 413 68 413 68 413 326 c 0,37,38
 413 471 413 471 310 471 c 0,39,40
 307 471 307 471 295 468 c 128,-1,41
 283 465 283 465 276 464 c 1,42,43
 275 459 275 459 273 446.5 c 128,-1,44
 271 434 271 434 269 424.5 c 128,-1,45
 267 415 267 415 267 414 c 2,46,-1
 229 157 l 2,47,48
 221 103 221 103 218 70 c 1,33,34
217 765 m 1,49,-1
 274 712 l 1,50,51
 293 702 293 702 344 665 c 1,52,53
 406 702 406 702 427 712 c 1,54,-1
 500 765 l 1,55,-1
 542 707 l 1,56,-1
 329 564 l 1,57,-1
 158 707 l 1,58,-1
 217 765 l 1,49,-1
EndSplineSet
EndChar

StartChar: Dcroat
Encoding: 272 272 208
Width: 718
GlyphClass: 2
Flags: W
LayerCount: 2
Fore
SplineSet
317 -6 m 1,0,-1
 108 0 l 1,1,-1
 12 -5 l 1,2,-1
 17 65 l 1,3,-1
 82 77 l 1,4,5
 101 143 101 143 103 163 c 2,6,-1
 126 322 l 1,7,-1
 53 322 l 1,8,-1
 63 395 l 1,9,-1
 137 395 l 1,10,-1
 154 512 l 1,11,12
 162 556 162 556 162 606 c 2,13,-1
 162 623 l 1,14,-1
 101 635 l 1,15,-1
 117 710 l 1,16,17
 167 705 167 705 214 705 c 1,18,-1
 416 715 l 1,19,20
 561 715 561 715 637.5 633.5 c 128,-1,21
 714 552 714 552 714 415 c 0,22,23
 714 229 714 229 610 111.5 c 128,-1,24
 506 -6 506 -6 317 -6 c 1,0,-1
393 632 m 0,25,26
 375 632 375 632 329 624 c 0,27,28
 329 623 329 623 322 587.5 c 128,-1,29
 315 552 315 552 314 542 c 2,30,-1
 292 395 l 1,31,-1
 375 395 l 1,32,-1
 359 322 l 1,33,-1
 282 322 l 1,34,-1
 263 193 l 1,35,36
 255 146 255 146 250 80 c 1,37,38
 277 77 277 77 310 77 c 0,39,40
 377 77 377 77 426 108 c 128,-1,41
 475 139 475 139 500 192 c 0,42,43
 548 292 548 292 548 423 c 0,44,45
 548 517 548 517 511 574.5 c 128,-1,46
 474 632 474 632 393 632 c 0,25,26
EndSplineSet
EndChar

StartChar: dcroat
Encoding: 273 273 209
Width: 568
GlyphClass: 2
Flags: W
LayerCount: 2
Fore
SplineSet
255 -5 m 1,0,-1
 81 0 l 1,1,-1
 14 -4 l 1,2,-1
 19 58 l 1,3,-1
 64 65 l 1,4,-1
 81 134 l 1,5,-1
 96 238 l 1,6,-1
 46 238 l 1,7,-1
 57 306 l 1,8,-1
 106 306 l 1,9,-1
 115 366 l 2,10,11
 116 374 116 374 117.5 382 c 128,-1,12
 119 390 119 390 119.5 397.5 c 128,-1,13
 120 405 120 405 121 412 c 0,14,15
 123 426 123 426 123 438 c 2,16,-1
 124 456 l 1,17,-1
 124 462 l 2,18,19
 124 465 124 465 124 465 c 1,20,-1
 81 474 l 1,21,-1
 95 540 l 1,22,-1
 170 536 l 2,23,24
 173 536 173 536 179 536 c 2,25,-1
 337 543 l 1,26,27
 450 543 450 543 508.5 481 c 128,-1,28
 567 419 567 419 567 314 c 0,29,30
 567 173 567 173 486 84 c 128,-1,31
 405 -5 405 -5 255 -5 c 1,0,-1
218 70 m 1,32,33
 234 68 234 68 244 68 c 0,34,35
 413 68 413 68 413 326 c 0,36,37
 413 471 413 471 310 471 c 0,38,39
 307 471 307 471 295 468 c 128,-1,40
 283 465 283 465 276 464 c 1,41,42
 275 459 275 459 273 446.5 c 128,-1,43
 271 434 271 434 269 424.5 c 128,-1,44
 267 415 267 415 267 414 c 2,45,-1
 251 306 l 1,46,-1
 318 306 l 1,47,-1
 304 238 l 1,48,-1
 241 238 l 1,49,-1
 229 157 l 2,50,51
 221 103 221 103 218 70 c 1,32,33
EndSplineSet
EndChar

StartChar: Emacron
Encoding: 274 274 210
Width: 600
GlyphClass: 2
Flags: W
LayerCount: 2
Fore
SplineSet
212 705 m 2,0,-1
 475 705 l 1,1,-1
 587 715 l 1,2,-1
 603 697 l 1,3,-1
 587 541 l 1,4,-1
 516 536 l 1,5,-1
 516 595 l 2,6,7
 516 607 516 607 510 619 c 1,8,9
 472 623 472 623 434 623 c 2,10,-1
 329 623 l 1,11,12
 328 617 328 617 321.5 584 c 128,-1,13
 315 551 315 551 314 542 c 2,14,-1
 293 399 l 1,15,16
 302 398 302 398 317 398 c 2,17,-1
 370 398 l 2,18,19
 390 398 390 398 413 407 c 1,20,-1
 431 471 l 1,21,-1
 491 466 l 1,22,23
 481 403 481 403 478 383 c 2,24,-1
 463 256 l 1,25,-1
 398 250 l 1,26,-1
 398 310 l 1,27,28
 358 316 358 316 338 316 c 2,29,-1
 310 316 l 2,30,31
 287 316 287 316 281 315 c 1,32,-1
 263 193 l 2,33,34
 256 152 256 152 250 87 c 1,35,-1
 370 87 l 2,36,37
 405 87 405 87 445 95 c 1,38,39
 459 116 459 116 470 138 c 1,40,41
 483 170 483 170 489 195 c 1,42,-1
 557 190 l 1,43,-1
 517 14 l 1,44,-1
 496 -4 l 1,45,46
 406 0 406 0 386 0 c 2,47,-1
 109 0 l 1,48,-1
 12 -5 l 1,49,-1
 17 65 l 1,50,-1
 82 77 l 1,51,52
 86 85 86 85 94 116.5 c 128,-1,53
 102 148 102 148 103 163 c 1,54,-1
 154 512 l 2,55,56
 163 567 163 567 163 590.5 c 128,-1,57
 163 614 163 614 162 623 c 1,58,-1
 101 635 l 1,59,-1
 117 710 l 1,60,61
 176 705 176 705 212 705 c 2,0,-1
542 771 m 1,62,-1
 216 771 l 1,63,-1
 227 844 l 1,64,-1
 560 844 l 1,65,-1
 542 771 l 1,62,-1
EndSplineSet
EndChar

StartChar: emacron
Encoding: 275 275 211
Width: 481
GlyphClass: 2
Flags: W
LayerCount: 2
Fore
SplineSet
276 463 m 1,0,1
 267 418 267 418 267 414 c 2,2,-1
 251 304 l 1,3,-1
 297 304 l 2,4,5
 308 304 308 304 324 311 c 1,6,-1
 338 359 l 1,7,-1
 390 355 l 1,8,9
 382 307 382 307 380 292 c 2,10,-1
 368 188 l 1,11,-1
 311 184 l 1,12,-1
 310 227 l 1,13,14
 286 231 286 231 270 231 c 2,15,-1
 258 231 l 1,16,17
 241 232 241 232 241 231 c 2,18,-1
 229 157 l 1,19,-1
 218 78 l 1,20,-1
 303 78 l 2,21,22
 328 78 328 78 356 84 c 1,23,24
 366 99 366 99 376 119 c 1,25,26
 383 139 383 139 388 158 c 1,27,-1
 446 155 l 1,28,-1
 414 11 l 1,29,-1
 398 -3 l 1,30,31
 329 0 329 0 313 0 c 2,32,-1
 82 0 l 1,33,-1
 14 -4 l 1,34,-1
 19 58 l 1,35,-1
 64 65 l 1,36,37
 74 80 74 80 81 134 c 2,38,-1
 115 366 l 1,39,40
 125 422 125 422 125 440.5 c 128,-1,41
 125 459 125 459 124 465 c 1,42,-1
 81 474 l 1,43,-1
 95 540 l 1,44,45
 128 536 128 536 162 536 c 2,46,-1
 381 536 l 1,47,-1
 468 543 l 1,48,-1
 480 530 l 1,49,-1
 467 403 l 1,50,-1
 406 399 l 1,51,-1
 408 446 l 1,52,53
 407 447 407 447 407 452.5 c 128,-1,54
 407 458 407 458 406 460 c 1,55,56
 385 463 385 463 348 463 c 2,57,-1
 276 463 l 1,0,1
473 596 m 1,58,-1
 147 596 l 1,59,-1
 158 669 l 1,60,-1
 491 669 l 1,61,-1
 473 596 l 1,58,-1
EndSplineSet
EndChar

StartChar: Ebreve
Encoding: 276 276 212
Width: 600
GlyphClass: 2
Flags: W
LayerCount: 2
Fore
SplineSet
212 705 m 2,0,-1
 475 705 l 1,1,-1
 587 715 l 1,2,-1
 603 697 l 1,3,-1
 587 541 l 1,4,-1
 516 536 l 1,5,-1
 516 595 l 2,6,7
 516 607 516 607 510 619 c 1,8,9
 472 623 472 623 434 623 c 2,10,-1
 329 623 l 1,11,12
 328 617 328 617 321.5 584 c 128,-1,13
 315 551 315 551 314 542 c 2,14,-1
 293 399 l 1,15,16
 302 398 302 398 317 398 c 2,17,-1
 370 398 l 2,18,19
 390 398 390 398 413 407 c 1,20,-1
 431 471 l 1,21,-1
 491 466 l 1,22,23
 481 403 481 403 478 383 c 2,24,-1
 463 256 l 1,25,-1
 398 250 l 1,26,-1
 398 310 l 1,27,28
 358 316 358 316 338 316 c 2,29,-1
 310 316 l 2,30,31
 287 316 287 316 281 315 c 1,32,-1
 263 193 l 2,33,34
 256 152 256 152 250 87 c 1,35,-1
 370 87 l 2,36,37
 405 87 405 87 445 95 c 1,38,39
 459 116 459 116 470 138 c 1,40,41
 483 170 483 170 489 195 c 1,42,-1
 557 190 l 1,43,-1
 517 14 l 1,44,-1
 496 -4 l 1,45,46
 406 0 406 0 386 0 c 2,47,-1
 109 0 l 1,48,-1
 12 -5 l 1,49,-1
 17 65 l 1,50,-1
 82 77 l 1,51,52
 86 85 86 85 94 116.5 c 128,-1,53
 102 148 102 148 103 163 c 1,54,-1
 154 512 l 2,55,56
 163 567 163 567 163 590.5 c 128,-1,57
 163 614 163 614 162 623 c 1,58,-1
 101 635 l 1,59,-1
 117 710 l 1,60,61
 176 705 176 705 212 705 c 2,0,-1
358 743 m 128,-1,63
 289 743 289 743 254 784 c 0,64,65
 228 815 228 815 228 866 c 0,66,67
 228 881 228 881 230 898 c 1,68,-1
 294 898 l 1,69,70
 293 891 293 891 293 884 c 0,71,72
 293 857 293 857 312 838 c 128,-1,73
 331 819 331 819 368.5 819 c 128,-1,74
 406 819 406 819 433 840 c 128,-1,75
 460 861 460 861 465 898 c 1,76,-1
 529 898 l 1,77,78
 519 824 519 824 473 783.5 c 128,-1,62
 427 743 427 743 358 743 c 128,-1,63
EndSplineSet
EndChar

StartChar: ebreve
Encoding: 277 277 213
Width: 481
GlyphClass: 2
Flags: W
LayerCount: 2
Fore
SplineSet
276 463 m 1,0,1
 267 418 267 418 267 414 c 2,2,-1
 251 304 l 1,3,-1
 297 304 l 2,4,5
 308 304 308 304 324 311 c 1,6,-1
 338 359 l 1,7,-1
 390 355 l 1,8,9
 382 307 382 307 380 292 c 2,10,-1
 368 188 l 1,11,-1
 311 184 l 1,12,-1
 310 227 l 1,13,14
 286 231 286 231 270 231 c 2,15,-1
 258 231 l 1,16,17
 241 232 241 232 241 231 c 2,18,-1
 229 157 l 1,19,-1
 218 78 l 1,20,-1
 303 78 l 2,21,22
 328 78 328 78 356 84 c 1,23,24
 366 99 366 99 376 119 c 1,25,26
 383 139 383 139 388 158 c 1,27,-1
 446 155 l 1,28,-1
 414 11 l 1,29,-1
 398 -3 l 1,30,31
 329 0 329 0 313 0 c 2,32,-1
 82 0 l 1,33,-1
 14 -4 l 1,34,-1
 19 58 l 1,35,-1
 64 65 l 1,36,37
 74 80 74 80 81 134 c 2,38,-1
 115 366 l 1,39,40
 125 422 125 422 125 440.5 c 128,-1,41
 125 459 125 459 124 465 c 1,42,-1
 81 474 l 1,43,-1
 95 540 l 1,44,45
 128 536 128 536 162 536 c 2,46,-1
 381 536 l 1,47,-1
 468 543 l 1,48,-1
 480 530 l 1,49,-1
 467 403 l 1,50,-1
 406 399 l 1,51,-1
 408 446 l 1,52,53
 407 447 407 447 407 452.5 c 128,-1,54
 407 458 407 458 406 460 c 1,55,56
 385 463 385 463 348 463 c 2,57,-1
 276 463 l 1,0,1
278 574 m 128,-1,59
 209 574 209 574 174 614 c 1,60,61
 148 646 148 646 148 697 c 0,62,63
 148 712 148 712 150 729 c 1,64,-1
 214 729 l 1,65,66
 213 722 213 722 213 715 c 0,67,68
 213 688 213 688 232 669 c 128,-1,69
 251 650 251 650 288.5 650 c 128,-1,70
 326 650 326 650 353 671 c 128,-1,71
 380 692 380 692 385 729 c 1,72,-1
 449 729 l 1,73,74
 439 655 439 655 393 614.5 c 128,-1,58
 347 574 347 574 278 574 c 128,-1,59
EndSplineSet
EndChar

StartChar: Edotaccent
Encoding: 278 278 214
Width: 600
GlyphClass: 2
Flags: W
LayerCount: 2
Fore
SplineSet
212 705 m 2,0,-1
 475 705 l 1,1,-1
 587 715 l 1,2,-1
 603 697 l 1,3,-1
 587 541 l 1,4,-1
 516 536 l 1,5,-1
 516 595 l 2,6,7
 516 607 516 607 510 619 c 1,8,9
 472 623 472 623 434 623 c 2,10,-1
 329 623 l 1,11,12
 328 617 328 617 321.5 584 c 128,-1,13
 315 551 315 551 314 542 c 2,14,-1
 293 399 l 1,15,16
 302 398 302 398 317 398 c 2,17,-1
 370 398 l 2,18,19
 390 398 390 398 413 407 c 1,20,-1
 431 471 l 1,21,-1
 491 466 l 1,22,23
 481 403 481 403 478 383 c 2,24,-1
 463 256 l 1,25,-1
 398 250 l 1,26,-1
 398 310 l 1,27,28
 358 316 358 316 338 316 c 2,29,-1
 310 316 l 2,30,31
 287 316 287 316 281 315 c 1,32,-1
 263 193 l 2,33,34
 256 152 256 152 250 87 c 1,35,-1
 370 87 l 2,36,37
 405 87 405 87 445 95 c 1,38,39
 459 116 459 116 470 138 c 1,40,41
 483 170 483 170 489 195 c 1,42,-1
 557 190 l 1,43,-1
 517 14 l 1,44,-1
 496 -4 l 1,45,46
 406 0 406 0 386 0 c 2,47,-1
 109 0 l 1,48,-1
 12 -5 l 1,49,-1
 17 65 l 1,50,-1
 82 77 l 1,51,52
 86 85 86 85 94 116.5 c 128,-1,53
 102 148 102 148 103 163 c 1,54,-1
 154 512 l 2,55,56
 163 567 163 567 163 590.5 c 128,-1,57
 163 614 163 614 162 623 c 1,58,-1
 101 635 l 1,59,-1
 117 710 l 1,60,61
 176 705 176 705 212 705 c 2,0,-1
324 879 m 128,-1,63
 348 905 348 905 384.5 905 c 128,-1,64
 421 905 421 905 438.5 887.5 c 128,-1,65
 456 870 456 870 456 834 c 128,-1,66
 456 798 456 798 432 772 c 128,-1,67
 408 746 408 746 371.5 746 c 128,-1,68
 335 746 335 746 317.5 764 c 128,-1,69
 300 782 300 782 300 817.5 c 128,-1,62
 300 853 300 853 324 879 c 128,-1,63
EndSplineSet
EndChar

StartChar: edotaccent
Encoding: 279 279 215
Width: 481
GlyphClass: 2
Flags: W
LayerCount: 2
Fore
SplineSet
276 463 m 1,0,1
 267 418 267 418 267 414 c 2,2,-1
 251 304 l 1,3,-1
 297 304 l 2,4,5
 308 304 308 304 324 311 c 1,6,-1
 338 359 l 1,7,-1
 390 355 l 1,8,9
 382 307 382 307 380 292 c 2,10,-1
 368 188 l 1,11,-1
 311 184 l 1,12,-1
 310 227 l 1,13,14
 286 231 286 231 270 231 c 2,15,-1
 258 231 l 1,16,17
 241 232 241 232 241 231 c 2,18,-1
 229 157 l 1,19,-1
 218 78 l 1,20,-1
 303 78 l 2,21,22
 328 78 328 78 356 84 c 1,23,24
 366 99 366 99 376 119 c 1,25,26
 383 139 383 139 388 158 c 1,27,-1
 446 155 l 1,28,-1
 414 11 l 1,29,-1
 398 -3 l 1,30,31
 329 0 329 0 313 0 c 2,32,-1
 82 0 l 1,33,-1
 14 -4 l 1,34,-1
 19 58 l 1,35,-1
 64 65 l 1,36,37
 74 80 74 80 81 134 c 2,38,-1
 115 366 l 1,39,40
 125 422 125 422 125 440.5 c 128,-1,41
 125 459 125 459 124 465 c 1,42,-1
 81 474 l 1,43,-1
 95 540 l 1,44,45
 128 536 128 536 162 536 c 2,46,-1
 381 536 l 1,47,-1
 468 543 l 1,48,-1
 480 530 l 1,49,-1
 467 403 l 1,50,-1
 406 399 l 1,51,-1
 408 446 l 1,52,53
 407 447 407 447 407 452.5 c 128,-1,54
 407 458 407 458 406 460 c 1,55,56
 385 463 385 463 348 463 c 2,57,-1
 276 463 l 1,0,1
255 709 m 128,-1,59
 279 735 279 735 315.5 735 c 128,-1,60
 352 735 352 735 369.5 717.5 c 128,-1,61
 387 700 387 700 387 664 c 128,-1,62
 387 628 387 628 363 602 c 128,-1,63
 339 576 339 576 302.5 576 c 128,-1,64
 266 576 266 576 248.5 594 c 128,-1,65
 231 612 231 612 231 647.5 c 128,-1,58
 231 683 231 683 255 709 c 128,-1,59
EndSplineSet
EndChar

StartChar: Eogonek
Encoding: 280 280 216
Width: 600
GlyphClass: 2
Flags: W
LayerCount: 2
Fore
SplineSet
385 -94 m 0,0,1
 385 -134 385 -134 423 -134 c 0,2,3
 437 -134 437 -134 457 -127 c 1,4,-1
 467 -175 l 1,5,6
 418 -198 418 -198 373 -198 c 128,-1,7
 328 -198 328 -198 303 -178.5 c 128,-1,8
 278 -159 278 -159 278 -122 c 0,9,10
 278 -82 278 -82 293.5 -64 c 128,-1,11
 309 -46 309 -46 316 -40 c 1,12,13
 328 -27 328 -27 364 0 c 1,14,-1
 109 0 l 1,15,-1
 12 -5 l 1,16,-1
 17 65 l 1,17,-1
 82 77 l 1,18,19
 86 85 86 85 94 116.5 c 128,-1,20
 102 148 102 148 103 163 c 1,21,-1
 154 512 l 2,22,23
 163 567 163 567 163 590.5 c 128,-1,24
 163 614 163 614 162 623 c 1,25,-1
 101 635 l 1,26,-1
 117 710 l 1,27,28
 176 705 176 705 212 705 c 2,29,-1
 475 705 l 1,30,-1
 587 715 l 1,31,-1
 603 697 l 1,32,-1
 587 541 l 1,33,-1
 516 536 l 1,34,-1
 516 595 l 2,35,36
 516 607 516 607 510 619 c 1,37,38
 472 623 472 623 434 623 c 2,39,-1
 329 623 l 1,40,41
 328 617 328 617 321.5 584 c 128,-1,42
 315 551 315 551 314 542 c 2,43,-1
 293 399 l 1,44,45
 302 398 302 398 317 398 c 2,46,-1
 370 398 l 2,47,48
 390 398 390 398 413 407 c 1,49,-1
 431 471 l 1,50,-1
 491 466 l 1,51,52
 481 403 481 403 478 383 c 2,53,-1
 463 256 l 1,54,-1
 398 250 l 1,55,-1
 398 310 l 1,56,57
 358 316 358 316 338 316 c 2,58,-1
 310 316 l 2,59,60
 287 316 287 316 281 315 c 1,61,-1
 263 193 l 2,62,63
 256 152 256 152 250 87 c 1,64,-1
 370 87 l 2,65,66
 405 87 405 87 445 95 c 1,67,68
 459 116 459 116 470 138 c 1,69,70
 483 170 483 170 489 195 c 1,71,-1
 557 190 l 1,72,-1
 517 14 l 1,73,-1
 496 -4 l 1,74,75
 444 -4 444 -4 408 -40 c 0,76,77
 385 -62 385 -62 385 -94 c 0,0,1
EndSplineSet
EndChar

StartChar: eogonek
Encoding: 281 281 217
Width: 620
GlyphClass: 2
Flags: W
LayerCount: 2
Fore
SplineSet
114 366 m 2,0,1
 123 425 123 425 123 442.5 c 128,-1,2
 123 460 123 460 122 465 c 1,3,-1
 81 474 l 1,4,-1
 95 540 l 1,5,6
 117 536 117 536 163 535 c 1,7,-1
 261 535 l 1,8,-1
 273 521 l 1,9,10
 310 428 310 428 319 411 c 2,11,-1
 438 203 l 1,12,-1
 462 370 l 1,13,14
 469 426 469 426 469 466 c 1,15,-1
 427 478 l 1,16,-1
 440 541 l 1,17,-1
 520 536 l 1,18,-1
 649 540 l 1,19,-1
 642 466 l 1,20,-1
 598 466 l 1,21,22
 589 439 589 439 586 418 c 2,23,-1
 526 3 l 1,24,25
 526 -16 526 -16 490 -48 c 0,26,27
 444 -90 444 -90 369 -152 c 1,28,-1
 325 -125 l 1,29,30
 398 -8 398 -8 399 -2 c 1,31,-1
 223 298 l 1,32,-1
 203 158 l 2,33,34
 196 116 196 116 196 65 c 1,35,-1
 239 61 l 1,36,-1
 226 -4 l 1,37,38
 183 0 183 0 85 0 c 1,39,-1
 14 -4 l 1,40,-1
 19 58 l 1,41,-1
 63 65 l 1,42,43
 72 82 72 82 81 135 c 1,44,-1
 114 366 l 2,0,1
EndSplineSet
EndChar

StartChar: Ecaron
Encoding: 282 282 218
Width: 600
GlyphClass: 2
Flags: W
LayerCount: 2
Fore
SplineSet
212 705 m 2,0,-1
 475 705 l 1,1,-1
 587 715 l 1,2,-1
 603 697 l 1,3,-1
 587 541 l 1,4,-1
 516 536 l 1,5,-1
 516 595 l 2,6,7
 516 607 516 607 510 619 c 1,8,9
 472 623 472 623 434 623 c 2,10,-1
 329 623 l 1,11,12
 328 617 328 617 321.5 584 c 128,-1,13
 315 551 315 551 314 542 c 2,14,-1
 293 399 l 1,15,16
 302 398 302 398 317 398 c 2,17,-1
 370 398 l 2,18,19
 390 398 390 398 413 407 c 1,20,-1
 431 471 l 1,21,-1
 491 466 l 1,22,23
 481 403 481 403 478 383 c 2,24,-1
 463 256 l 1,25,-1
 398 250 l 1,26,-1
 398 310 l 1,27,28
 358 316 358 316 338 316 c 2,29,-1
 310 316 l 2,30,31
 287 316 287 316 281 315 c 1,32,-1
 263 193 l 2,33,34
 256 152 256 152 250 87 c 1,35,-1
 370 87 l 2,36,37
 405 87 405 87 445 95 c 1,38,39
 459 116 459 116 470 138 c 1,40,41
 483 170 483 170 489 195 c 1,42,-1
 557 190 l 1,43,-1
 517 14 l 1,44,-1
 496 -4 l 1,45,46
 406 0 406 0 386 0 c 2,47,-1
 109 0 l 1,48,-1
 12 -5 l 1,49,-1
 17 65 l 1,50,-1
 82 77 l 1,51,52
 86 85 86 85 94 116.5 c 128,-1,53
 102 148 102 148 103 163 c 1,54,-1
 154 512 l 2,55,56
 163 567 163 567 163 590.5 c 128,-1,57
 163 614 163 614 162 623 c 1,58,-1
 101 635 l 1,59,-1
 117 710 l 1,60,61
 176 705 176 705 212 705 c 2,0,-1
532 919 m 1,62,-1
 570 861 l 1,63,-1
 358 728 l 1,64,-1
 186 861 l 1,65,-1
 239 919 l 1,66,-1
 297 870 l 1,67,-1
 373 829 l 1,68,-1
 460 870 l 1,69,-1
 532 919 l 1,62,-1
EndSplineSet
EndChar

